<mxfile host="app.diagrams.net" modified="2023-04-10T15:59:45.347Z" agent="Mozilla/5.0 (Macintosh; Intel Mac OS X 10_15_6) AppleWebKit/605.1.15 (KHTML, like Gecko) Version/14.0.2 Safari/605.1.15" etag="gey2C6UiafEYQlYBzW9V" version="21.1.5" type="github">
  <diagram name="第 1 页" id="lgFMJmtWHM4qqgG5a-uV">
    <mxGraphModel dx="954" dy="536" grid="1" gridSize="10" guides="1" tooltips="1" connect="1" arrows="1" fold="1" page="1" pageScale="1" pageWidth="827" pageHeight="1169" math="0" shadow="0">
      <root>
        <mxCell id="0" />
        <mxCell id="1" parent="0" />
        <UserObject label="" plantUmlData="{&#xa;  &quot;data&quot;: &quot;@startuml\n:抵达Honey公寓;\n:欣赏公寓外观，阳光洒进室内，美丽环境令人向往;\n:进入公寓，感受时尚、温馨的室内装修;\n:观察公寓开放式设计和艺术氛围;\n:遇见修理工王强，了解他的工作和性格;\n:观察王强工作，产生对他的幻想;\n:了解公寓租赁对象和硬性要求;\n:领会公寓的友好、热情理念，对生活充满期待;\n@enduml&quot;,&#xa;  &quot;format&quot;: &quot;svg&quot;&#xa;}" id="9PTHPJeuA1GVSyK6PPqB-1">
          <mxCell style="shape=image;noLabel=1;verticalAlign=top;aspect=fixed;imageAspect=0;image=data:image/svg+xml,PD94bWwgdmVyc2lvbj0iMS4wIiBlbmNvZGluZz0idXMtYXNjaWkiIHN0YW5kYWxvbmU9Im5vIj8+PHN2ZyB4bWxucz0iaHR0cDovL3d3dy53My5vcmcvMjAwMC9zdmciIHhtbG5zOnhsaW5rPSJodHRwOi8vd3d3LnczLm9yZy8xOTk5L3hsaW5rIiBjb250ZW50U3R5bGVUeXBlPSJ0ZXh0L2NzcyIgaGVpZ2h0PSI0MjRweCIgcHJlc2VydmVBc3BlY3RSYXRpbz0ibm9uZSIgc3R5bGU9IndpZHRoOjMwNnB4O2hlaWdodDo0MjRweDtiYWNrZ3JvdW5kOiNGRkZGRkY7IiB2ZXJzaW9uPSIxLjEiIHZpZXdCb3g9IjAgMCAzMDYgNDI0IiB3aWR0aD0iMzA2cHgiIHpvb21BbmRQYW49Im1hZ25pZnkiPjxkZWZzLz48Zz48cmVjdCBmaWxsPSIjRjFGMUYxIiBoZWlnaHQ9IjMyLjg0MzgiIHJ4PSIxMi41IiByeT0iMTIuNSIgc3R5bGU9InN0cm9rZTojMTgxODE4O3N0cm9rZS13aWR0aDowLjU7IiB3aWR0aD0iMTAzIiB4PSIxMDEuNSIgeT0iMTEiLz48dGV4dCBmaWxsPSIjMDAwMDAwIiBmb250LWZhbWlseT0ic2Fucy1zZXJpZiIgZm9udC1zaXplPSIxMiIgbGVuZ3RoQWRqdXN0PSJzcGFjaW5nIiB0ZXh0TGVuZ3RoPSI4MyIgeD0iMTExLjUiIHk9IjMyLjM0MzgiPiYjMjUyNjk7JiMzNjc5ODtIb25leSYjMjA4NDQ7JiMyMzUwNzs8L3RleHQ+PHJlY3QgZmlsbD0iI0YxRjFGMSIgaGVpZ2h0PSIzMi44NDM4IiByeD0iMTIuNSIgcnk9IjEyLjUiIHN0eWxlPSJzdHJva2U6IzE4MTgxODtzdHJva2Utd2lkdGg6MC41OyIgd2lkdGg9IjI4NCIgeD0iMTEiIHk9IjYzLjg0MzgiLz48dGV4dCBmaWxsPSIjMDAwMDAwIiBmb250LWZhbWlseT0ic2Fucy1zZXJpZiIgZm9udC1zaXplPSIxMiIgbGVuZ3RoQWRqdXN0PSJzcGFjaW5nIiB0ZXh0TGVuZ3RoPSIyNjQiIHg9IjIxIiB5PSI4NS4xODc1Ij4mIzI3NDI3OyYjMzYxNzU7JiMyMDg0NDsmIzIzNTA3OyYjMjI4MDY7JiMzNTI2NjsmIzY1MjkyOyYjMzg0NTE7JiMyMDgwOTsmIzI3OTIyOyYjMzY4Mjc7JiMyMzQ2MDsmIzIwODY5OyYjNjUyOTI7JiMzMjY1NDsmIzIwMDI5OyYjMjk2MTU7JiMyMjY1OTsmIzIwMTk2OyYjMjAxNTQ7JiMyMTUyMTsmIzI0NDQ4OzwvdGV4dD48cmVjdCBmaWxsPSIjRjFGMUYxIiBoZWlnaHQ9IjMyLjg0MzgiIHJ4PSIxMi41IiByeT0iMTIuNSIgc3R5bGU9InN0cm9rZTojMTgxODE4O3N0cm9rZS13aWR0aDowLjU7IiB3aWR0aD0iMjI0IiB4PSI0MSIgeT0iMTE2LjY4NzUiLz48dGV4dCBmaWxsPSIjMDAwMDAwIiBmb250LWZhbWlseT0ic2Fucy1zZXJpZiIgZm9udC1zaXplPSIxMiIgbGVuZ3RoQWRqdXN0PSJzcGFjaW5nIiB0ZXh0TGVuZ3RoPSIyMDQiIHg9IjUxIiB5PSIxMzguMDMxMyI+JiMzNjgyNzsmIzIwODM3OyYjMjA4NDQ7JiMyMzUwNzsmIzY1MjkyOyYjMjQ4NjM7JiMyMTQ2MzsmIzI2MTAyOyYjMjM1Nzg7JiMxMjI4OTsmIzI4MjAxOyYjMzkzMzY7JiMzMDM0MDsmIzIzNDYwOyYjMjA4Njk7JiMzNTAxMzsmIzIwNDYyOzwvdGV4dD48cmVjdCBmaWxsPSIjRjFGMUYxIiBoZWlnaHQ9IjMyLjg0MzgiIHJ4PSIxMi41IiByeT0iMTIuNSIgc3R5bGU9InN0cm9rZTojMTgxODE4O3N0cm9rZS13aWR0aDowLjU7IiB3aWR0aD0iMTg4IiB4PSI1OSIgeT0iMTY5LjUzMTMiLz48dGV4dCBmaWxsPSIjMDAwMDAwIiBmb250LWZhbWlseT0ic2Fucy1zZXJpZiIgZm9udC1zaXplPSIxMiIgbGVuZ3RoQWRqdXN0PSJzcGFjaW5nIiB0ZXh0TGVuZ3RoPSIxNjgiIHg9IjY5IiB5PSIxOTAuODc1Ij4mIzM1MjY2OyYjMjM1MTk7JiMyMDg0NDsmIzIzNTA3OyYjMjQzMjA7JiMyNTkxODsmIzI0MzM1OyYjMzU3NzQ7JiMzNTc0NTsmIzIxNjQ0OyYjMzM0MDI7JiMyNjQxNTsmIzI3Njc1OyYjMjIyNjA7PC90ZXh0PjxyZWN0IGZpbGw9IiNGMUYxRjEiIGhlaWdodD0iMzIuODQzOCIgcng9IjEyLjUiIHJ5PSIxMi41IiBzdHlsZT0ic3Ryb2tlOiMxODE4MTg7c3Ryb2tlLXdpZHRoOjAuNTsiIHdpZHRoPSIyMjQiIHg9IjQxIiB5PSIyMjIuMzc1Ii8+PHRleHQgZmlsbD0iIzAwMDAwMCIgZm9udC1mYW1pbHk9InNhbnMtc2VyaWYiIGZvbnQtc2l6ZT0iMTIiIGxlbmd0aEFkanVzdD0ic3BhY2luZyIgdGV4dExlbmd0aD0iMjA0IiB4PSI1MSIgeT0iMjQzLjcxODgiPiYjMzY5MzU7JiMzNTI2NTsmIzIwNDYyOyYjMjk3MDI7JiMyNDAzNzsmIzI5NTc5OyYjMjQzNzg7JiM2NTI5MjsmIzIwMTAyOyYjMzUyOTk7JiMyMDE4MjsmIzMwMzQwOyYjMjQwMzc7JiMyMDMxNjsmIzIxNjQ0OyYjMjQ2MTU7JiMyNjY4NDs8L3RleHQ+PHJlY3QgZmlsbD0iI0YxRjFGMSIgaGVpZ2h0PSIzMi44NDM4IiByeD0iMTIuNSIgcnk9IjEyLjUiIHN0eWxlPSJzdHJva2U6IzE4MTgxODtzdHJva2Utd2lkdGg6MC41OyIgd2lkdGg9IjE4OCIgeD0iNTkiIHk9IjI3NS4yMTg4Ii8+PHRleHQgZmlsbD0iIzAwMDAwMCIgZm9udC1mYW1pbHk9InNhbnMtc2VyaWYiIGZvbnQtc2l6ZT0iMTIiIGxlbmd0aEFkanVzdD0ic3BhY2luZyIgdGV4dExlbmd0aD0iMTY4IiB4PSI2OSIgeT0iMjk2LjU2MjUiPiYjMzUyNjY7JiMyMzUxOTsmIzI5NTc5OyYjMjQzNzg7JiMyNDAzNzsmIzIwMzE2OyYjNjUyOTI7JiMyMDEzNTsmIzI5OTgzOyYjMjM1NDU7JiMyMDE4MjsmIzMwMzQwOyYjMjQxODc7JiMyNDgxOTs8L3RleHQ+PHJlY3QgZmlsbD0iI0YxRjFGMSIgaGVpZ2h0PSIzMi44NDM4IiByeD0iMTIuNSIgcnk9IjEyLjUiIHN0eWxlPSJzdHJva2U6IzE4MTgxODtzdHJva2Utd2lkdGg6MC41OyIgd2lkdGg9IjE3NiIgeD0iNjUiIHk9IjMyOC4wNjI1Ii8+PHRleHQgZmlsbD0iIzAwMDAwMCIgZm9udC1mYW1pbHk9InNhbnMtc2VyaWYiIGZvbnQtc2l6ZT0iMTIiIGxlbmd0aEFkanVzdD0ic3BhY2luZyIgdGV4dExlbmd0aD0iMTU2IiB4PSI3NSIgeT0iMzQ5LjQwNjMiPiYjMjAxMDI7JiMzNTI5OTsmIzIwODQ0OyYjMjM1MDc7JiMzMTE5OTsmIzM2MTYxOyYjMjM1NDU7JiMzNTkzNzsmIzIxNjQ0OyYjMzA4Mjg7JiMyNDYxNTsmIzM1MjAxOyYjMjc3MTQ7PC90ZXh0PjxyZWN0IGZpbGw9IiNGMUYxRjEiIGhlaWdodD0iMzIuODQzOCIgcng9IjEyLjUiIHJ5PSIxMi41IiBzdHlsZT0ic3Ryb2tlOiMxODE4MTg7c3Ryb2tlLXdpZHRoOjAuNTsiIHdpZHRoPSIyNjAiIHg9IjIzIiB5PSIzODAuOTA2MyIvPjx0ZXh0IGZpbGw9IiMwMDAwMDAiIGZvbnQtZmFtaWx5PSJzYW5zLXNlcmlmIiBmb250LXNpemU9IjEyIiBsZW5ndGhBZGp1c3Q9InNwYWNpbmciIHRleHRMZW5ndGg9IjI0MCIgeD0iMzMiIHk9IjQwMi4yNSI+JiMzOTA0NjsmIzIwMjUwOyYjMjA4NDQ7JiMyMzUwNzsmIzMwMzQwOyYjMjE0NTE7JiMyMjkwOTsmIzEyMjg5OyYjMjg5MDk7JiMyNDc3MzsmIzI5NzAyOyYjMjQ1NjU7JiM2NTI5MjsmIzIzNTQ1OyYjMjk5ODM7JiMyNzk2MzsmIzIwODA1OyYjMjgzODU7JiMyNjM5OTsmIzI0NDUzOzwvdGV4dD48bGluZSBzdHlsZT0ic3Ryb2tlOiMxODE4MTg7c3Ryb2tlLXdpZHRoOjEuMDsiIHgxPSIxNTMiIHgyPSIxNTMiIHkxPSI0My44NDM4IiB5Mj0iNjMuODQzOCIvPjxwb2x5Z29uIGZpbGw9IiMxODE4MTgiIHBvaW50cz0iMTQ5LDUzLjg0MzgsMTUzLDYzLjg0MzgsMTU3LDUzLjg0MzgsMTUzLDU3Ljg0MzgiIHN0eWxlPSJzdHJva2U6IzE4MTgxODtzdHJva2Utd2lkdGg6MS4wOyIvPjxsaW5lIHN0eWxlPSJzdHJva2U6IzE4MTgxODtzdHJva2Utd2lkdGg6MS4wOyIgeDE9IjE1MyIgeDI9IjE1MyIgeTE9Ijk2LjY4NzUiIHkyPSIxMTYuNjg3NSIvPjxwb2x5Z29uIGZpbGw9IiMxODE4MTgiIHBvaW50cz0iMTQ5LDEwNi42ODc1LDE1MywxMTYuNjg3NSwxNTcsMTA2LjY4NzUsMTUzLDExMC42ODc1IiBzdHlsZT0ic3Ryb2tlOiMxODE4MTg7c3Ryb2tlLXdpZHRoOjEuMDsiLz48bGluZSBzdHlsZT0ic3Ryb2tlOiMxODE4MTg7c3Ryb2tlLXdpZHRoOjEuMDsiIHgxPSIxNTMiIHgyPSIxNTMiIHkxPSIxNDkuNTMxMyIgeTI9IjE2OS41MzEzIi8+PHBvbHlnb24gZmlsbD0iIzE4MTgxOCIgcG9pbnRzPSIxNDksMTU5LjUzMTMsMTUzLDE2OS41MzEzLDE1NywxNTkuNTMxMywxNTMsMTYzLjUzMTMiIHN0eWxlPSJzdHJva2U6IzE4MTgxODtzdHJva2Utd2lkdGg6MS4wOyIvPjxsaW5lIHN0eWxlPSJzdHJva2U6IzE4MTgxODtzdHJva2Utd2lkdGg6MS4wOyIgeDE9IjE1MyIgeDI9IjE1MyIgeTE9IjIwMi4zNzUiIHkyPSIyMjIuMzc1Ii8+PHBvbHlnb24gZmlsbD0iIzE4MTgxOCIgcG9pbnRzPSIxNDksMjEyLjM3NSwxNTMsMjIyLjM3NSwxNTcsMjEyLjM3NSwxNTMsMjE2LjM3NSIgc3R5bGU9InN0cm9rZTojMTgxODE4O3N0cm9rZS13aWR0aDoxLjA7Ii8+PGxpbmUgc3R5bGU9InN0cm9rZTojMTgxODE4O3N0cm9rZS13aWR0aDoxLjA7IiB4MT0iMTUzIiB4Mj0iMTUzIiB5MT0iMjU1LjIxODgiIHkyPSIyNzUuMjE4OCIvPjxwb2x5Z29uIGZpbGw9IiMxODE4MTgiIHBvaW50cz0iMTQ5LDI2NS4yMTg4LDE1MywyNzUuMjE4OCwxNTcsMjY1LjIxODgsMTUzLDI2OS4yMTg4IiBzdHlsZT0ic3Ryb2tlOiMxODE4MTg7c3Ryb2tlLXdpZHRoOjEuMDsiLz48bGluZSBzdHlsZT0ic3Ryb2tlOiMxODE4MTg7c3Ryb2tlLXdpZHRoOjEuMDsiIHgxPSIxNTMiIHgyPSIxNTMiIHkxPSIzMDguMDYyNSIgeTI9IjMyOC4wNjI1Ii8+PHBvbHlnb24gZmlsbD0iIzE4MTgxOCIgcG9pbnRzPSIxNDksMzE4LjA2MjUsMTUzLDMyOC4wNjI1LDE1NywzMTguMDYyNSwxNTMsMzIyLjA2MjUiIHN0eWxlPSJzdHJva2U6IzE4MTgxODtzdHJva2Utd2lkdGg6MS4wOyIvPjxsaW5lIHN0eWxlPSJzdHJva2U6IzE4MTgxODtzdHJva2Utd2lkdGg6MS4wOyIgeDE9IjE1MyIgeDI9IjE1MyIgeTE9IjM2MC45MDYzIiB5Mj0iMzgwLjkwNjMiLz48cG9seWdvbiBmaWxsPSIjMTgxODE4IiBwb2ludHM9IjE0OSwzNzAuOTA2MywxNTMsMzgwLjkwNjMsMTU3LDM3MC45MDYzLDE1MywzNzQuOTA2MyIgc3R5bGU9InN0cm9rZTojMTgxODE4O3N0cm9rZS13aWR0aDoxLjA7Ii8+PCEtLVNSQz1bRk9fREtpOG01OE50RlhBeVcyX1lMalZrTWFoZzgwbjVQQzAxUFllXzlKZzNCR25LZTJ0WE9TWXprUW55MU15RHVwQjlUeHZwS2k3ZGI5SXdWUllfVW1JblhFSXJVYkYxdk9wSW0xdlh0WVRQLW9iUWJ4U0RZMFBra3RHUUdKbTdOXzJiS01zekZ2ZnMwYkRGdnRFVFBUMXYwVU1tZkNINFAyTENPWnM0TzgyM1JyV0RwdXdCLXlfQnVpQ0N3clA1Q3c1RlNQY0lES1oyUXROWE80ejE0TDJpQTl2MGpxTUQzQ1M5aGFPbXNaOXlTUHo4a1htcTdIenNhTWF0ZVNZdUlzUy1vUGRFLXdMXzUtZFpjQkZlSTdtbF9ZaWlSNV9fOGpCcUdhV0VyekdYSHNfM2k1TlBGS1E2YkJoQ3FCZVNPb1BCVGpCMm5OTWo3M0ZyVEo2eWFjbThjWDBULVFWNi1xOUZiMGpGQUhUbmQ4am1jdUNHYzR6bTc4OElyTHkwXS0tPjwvZz48L3N2Zz4=;" parent="1" vertex="1">
            <mxGeometry x="80" y="40" width="306" height="424" as="geometry" />
          </mxCell>
        </UserObject>
        <UserObject label="" plantUmlData="{&#xa;  &quot;data&quot;: &quot;@startuml\n:王强帮忙放行李并参观公寓;\n:闲聊中王强询问关系状态;\n:遇到住户李晓阳并品尝三明治;\n:回到房间翻阅笔记本，发现往年公寓文化祭照片;\n:王强上门安装热水器，尝试隐藏滑落的照片;\n:对王强产生性幻想;\n:浏览公寓活动内容，发现LGBTQ类活动;\n:发现租户全裸写真照，感到惊讶与犯罪感;\n:了解试用考核要求，弄好文化祭Party;\n:翻阅叔叔给的信息并关灯睡觉;\n@enduml&quot;,&#xa;  &quot;format&quot;: &quot;svg&quot;&#xa;}" id="9PTHPJeuA1GVSyK6PPqB-2">
          <mxCell style="shape=image;noLabel=1;verticalAlign=top;aspect=fixed;imageAspect=0;image=data:image/svg+xml,PD94bWwgdmVyc2lvbj0iMS4wIiBlbmNvZGluZz0idXMtYXNjaWkiIHN0YW5kYWxvbmU9Im5vIj8+PHN2ZyB4bWxucz0iaHR0cDovL3d3dy53My5vcmcvMjAwMC9zdmciIHhtbG5zOnhsaW5rPSJodHRwOi8vd3d3LnczLm9yZy8xOTk5L3hsaW5rIiBjb250ZW50U3R5bGVUeXBlPSJ0ZXh0L2NzcyIgaGVpZ2h0PSI1MzBweCIgcHJlc2VydmVBc3BlY3RSYXRpbz0ibm9uZSIgc3R5bGU9IndpZHRoOjI5NHB4O2hlaWdodDo1MzBweDtiYWNrZ3JvdW5kOiNGRkZGRkY7IiB2ZXJzaW9uPSIxLjEiIHZpZXdCb3g9IjAgMCAyOTQgNTMwIiB3aWR0aD0iMjk0cHgiIHpvb21BbmRQYW49Im1hZ25pZnkiPjxkZWZzLz48Zz48cmVjdCBmaWxsPSIjRjFGMUYxIiBoZWlnaHQ9IjMyLjg0MzgiIHJ4PSIxMi41IiByeT0iMTIuNSIgc3R5bGU9InN0cm9rZTojMTgxODE4O3N0cm9rZS13aWR0aDowLjU7IiB3aWR0aD0iMTY0IiB4PSI2NSIgeT0iMTEiLz48dGV4dCBmaWxsPSIjMDAwMDAwIiBmb250LWZhbWlseT0ic2Fucy1zZXJpZiIgZm9udC1zaXplPSIxMiIgbGVuZ3RoQWRqdXN0PSJzcGFjaW5nIiB0ZXh0TGVuZ3RoPSIxNDQiIHg9Ijc1IiB5PSIzMi4zNDM4Ij4mIzI5NTc5OyYjMjQzNzg7JiMyNDExMDsmIzI0NTM3OyYjMjU5MTg7JiMzNDg5MjsmIzI2NDQ2OyYjMjQxODI7JiMyMTQ0MjsmIzM1MjY2OyYjMjA4NDQ7JiMyMzUwNzs8L3RleHQ+PHJlY3QgZmlsbD0iI0YxRjFGMSIgaGVpZ2h0PSIzMi44NDM4IiByeD0iMTIuNSIgcnk9IjEyLjUiIHN0eWxlPSJzdHJva2U6IzE4MTgxODtzdHJva2Utd2lkdGg6MC41OyIgd2lkdGg9IjE1MiIgeD0iNzEiIHk9IjYzLjg0MzgiLz48dGV4dCBmaWxsPSIjMDAwMDAwIiBmb250LWZhbWlseT0ic2Fucy1zZXJpZiIgZm9udC1zaXplPSIxMiIgbGVuZ3RoQWRqdXN0PSJzcGFjaW5nIiB0ZXh0TGVuZ3RoPSIxMzIiIHg9IjgxIiB5PSI4NS4xODc1Ij4mIzM4Mzg2OyYjMzI4NDI7JiMyMDAxMzsmIzI5NTc5OyYjMjQzNzg7JiMzNTgxMDsmIzM4MzgyOyYjMjA4NTE7JiMzMTk5NTsmIzI5MzY2OyYjMjQ1Nzc7PC90ZXh0PjxyZWN0IGZpbGw9IiNGMUYxRjEiIGhlaWdodD0iMzIuODQzOCIgcng9IjEyLjUiIHJ5PSIxMi41IiBzdHlsZT0ic3Ryb2tlOiMxODE4MTg7c3Ryb2tlLXdpZHRoOjAuNTsiIHdpZHRoPSIxNzYiIHg9IjU5IiB5PSIxMTYuNjg3NSIvPjx0ZXh0IGZpbGw9IiMwMDAwMDAiIGZvbnQtZmFtaWx5PSJzYW5zLXNlcmlmIiBmb250LXNpemU9IjEyIiBsZW5ndGhBZGp1c3Q9InNwYWNpbmciIHRleHRMZW5ndGg9IjE1NiIgeD0iNjkiIHk9IjEzOC4wMzEzIj4mIzM2OTM1OyYjMjEwNDA7JiMyMDMwMzsmIzI1MTQzOyYjMjY0NDY7JiMyNjE5NTsmIzM4NDUxOyYjMjQxODI7JiMyMTY5NzsmIzIzNTgxOyYjMTk5Nzc7JiMyNjEyNjsmIzI3ODM1OzwvdGV4dD48cmVjdCBmaWxsPSIjRjFGMUYxIiBoZWlnaHQ9IjMyLjg0MzgiIHJ4PSIxMi41IiByeT0iMTIuNSIgc3R5bGU9InN0cm9rZTojMTgxODE4O3N0cm9rZS13aWR0aDowLjU7IiB3aWR0aD0iMjcyIiB4PSIxMSIgeT0iMTY5LjUzMTMiLz48dGV4dCBmaWxsPSIjMDAwMDAwIiBmb250LWZhbWlseT0ic2Fucy1zZXJpZiIgZm9udC1zaXplPSIxMiIgbGVuZ3RoQWRqdXN0PSJzcGFjaW5nIiB0ZXh0TGVuZ3RoPSIyNTIiIHg9IjIxIiB5PSIxOTAuODc1Ij4mIzIyMjM4OyYjMjEwNDA7JiMyNTE1MTsmIzM4Mzg4OyYjMzI3NjM7JiMzODQwNTsmIzMxNTA4OyYjMzU3NjA7JiMyNjQxMjsmIzY1MjkyOyYjMjE0NTc7JiMyOTYxNjsmIzI0NDQ4OyYjMjQxODA7JiMyMDg0NDsmIzIzNTA3OyYjMjU5OTE7JiMyMTI3MDsmIzMxMDg1OyYjMjkwMzE7JiMyOTI1NTs8L3RleHQ+PHJlY3QgZmlsbD0iI0YxRjFGMSIgaGVpZ2h0PSIzMi44NDM4IiByeD0iMTIuNSIgcnk9IjEyLjUiIHN0eWxlPSJzdHJva2U6IzE4MTgxODtzdHJva2Utd2lkdGg6MC41OyIgd2lkdGg9IjI0OCIgeD0iMjMiIHk9IjIyMi4zNzUiLz48dGV4dCBmaWxsPSIjMDAwMDAwIiBmb250LWZhbWlseT0ic2Fucy1zZXJpZiIgZm9udC1zaXplPSIxMiIgbGVuZ3RoQWRqdXN0PSJzcGFjaW5nIiB0ZXh0TGVuZ3RoPSIyMjgiIHg9IjMzIiB5PSIyNDMuNzE4OCI+JiMyOTU3OTsmIzI0Mzc4OyYjMTk5Nzg7JiMzODM3NjsmIzIzNDMzOyYjMzUwMTM7JiMyODkwOTsmIzI3NzAwOyYjMjIxMjA7JiM2NTI5MjsmIzIzNTgxOyYjMzU3OTc7JiMzODU0NDsmIzM0MjU1OyYjMjgzNjk7JiMzMzg1MzsmIzMwMzQwOyYjMjkwMzE7JiMyOTI1NTs8L3RleHQ+PHJlY3QgZmlsbD0iI0YxRjFGMSIgaGVpZ2h0PSIzMi44NDM4IiByeD0iMTIuNSIgcnk9IjEyLjUiIHN0eWxlPSJzdHJva2U6IzE4MTgxODtzdHJva2Utd2lkdGg6MC41OyIgd2lkdGg9IjExNiIgeD0iODkiIHk9IjI3NS4yMTg4Ii8+PHRleHQgZmlsbD0iIzAwMDAwMCIgZm9udC1mYW1pbHk9InNhbnMtc2VyaWYiIGZvbnQtc2l6ZT0iMTIiIGxlbmd0aEFkanVzdD0ic3BhY2luZyIgdGV4dExlbmd0aD0iOTYiIHg9Ijk5IiB5PSIyOTYuNTYyNSI+JiMyMzU0NTsmIzI5NTc5OyYjMjQzNzg7JiMyMDEzNTsmIzI5OTgzOyYjMjQ2MTU7JiMyNDE4NzsmIzI0ODE5OzwvdGV4dD48cmVjdCBmaWxsPSIjRjFGMUYxIiBoZWlnaHQ9IjMyLjg0MzgiIHJ4PSIxMi41IiByeT0iMTIuNSIgc3R5bGU9InN0cm9rZTojMTgxODE4O3N0cm9rZS13aWR0aDowLjU7IiB3aWR0aD0iMjIxIiB4PSIzNi41IiB5PSIzMjguMDYyNSIvPjx0ZXh0IGZpbGw9IiMwMDAwMDAiIGZvbnQtZmFtaWx5PSJzYW5zLXNlcmlmIiBmb250LXNpemU9IjEyIiBsZW5ndGhBZGp1c3Q9InNwYWNpbmciIHRleHRMZW5ndGg9IjIwMSIgeD0iNDYuNSIgeT0iMzQ5LjQwNjMiPiYjMjc5ODM7JiMzNTI3MjsmIzIwODQ0OyYjMjM1MDc7JiMyNzk2MzsmIzIxMTYwOyYjMjA4Njk7JiMyMzQ4MTsmIzY1MjkyOyYjMjE0NTc7JiMyOTYxNjtMR0JUUSYjMzE4Njc7JiMyNzk2MzsmIzIxMTYwOzwvdGV4dD48cmVjdCBmaWxsPSIjRjFGMUYxIiBoZWlnaHQ9IjMyLjg0MzgiIHJ4PSIxMi41IiByeT0iMTIuNSIgc3R5bGU9InN0cm9rZTojMTgxODE4O3N0cm9rZS13aWR0aDowLjU7IiB3aWR0aD0iMjM2IiB4PSIyOSIgeT0iMzgwLjkwNjMiLz48dGV4dCBmaWxsPSIjMDAwMDAwIiBmb250LWZhbWlseT0ic2Fucy1zZXJpZiIgZm9udC1zaXplPSIxMiIgbGVuZ3RoQWRqdXN0PSJzcGFjaW5nIiB0ZXh0TGVuZ3RoPSIyMTYiIHg9IjM5IiB5PSI0MDIuMjUiPiYjMjE0NTc7JiMyOTYxNjsmIzMxMTk5OyYjMjUxNDM7JiMyMDg0MDsmIzM1MDY0OyYjMjA4ODk7JiMzMDQ5NTsmIzI5MDMxOyYjNjUyOTI7JiMyNDg2MzsmIzIxMDQwOyYjMjQ3Nzg7JiMzNTc2NjsmIzE5OTgyOyYjMjkzNTk7JiMzMjYxODsmIzI0ODYzOzwvdGV4dD48cmVjdCBmaWxsPSIjRjFGMUYxIiBoZWlnaHQ9IjMyLjg0MzgiIHJ4PSIxMi41IiByeT0iMTIuNSIgc3R5bGU9InN0cm9rZTojMTgxODE4O3N0cm9rZS13aWR0aDowLjU7IiB3aWR0aD0iMjIyIiB4PSIzNiIgeT0iNDMzLjc1Ii8+PHRleHQgZmlsbD0iIzAwMDAwMCIgZm9udC1mYW1pbHk9InNhbnMtc2VyaWYiIGZvbnQtc2l6ZT0iMTIiIGxlbmd0aEFkanVzdD0ic3BhY2luZyIgdGV4dExlbmd0aD0iMjAyIiB4PSI0NiIgeT0iNDU1LjA5MzgiPiYjMjAxMDI7JiMzNTI5OTsmIzM1Nzk3OyYjMjk5OTI7JiMzMjc3MTsmIzI2NjgwOyYjMzUyMDE7JiMyNzcxNDsmIzY1MjkyOyYjMjQzMjQ7JiMyMjkwOTsmIzI1OTkxOyYjMjEyNzA7JiMzMTA4NTtQYXJ0eTwvdGV4dD48cmVjdCBmaWxsPSIjRjFGMUYxIiBoZWlnaHQ9IjMyLjg0MzgiIHJ4PSIxMi41IiByeT0iMTIuNSIgc3R5bGU9InN0cm9rZTojMTgxODE4O3N0cm9rZS13aWR0aDowLjU7IiB3aWR0aD0iMTc2IiB4PSI1OSIgeT0iNDg2LjU5MzgiLz48dGV4dCBmaWxsPSIjMDAwMDAwIiBmb250LWZhbWlseT0ic2Fucy1zZXJpZiIgZm9udC1zaXplPSIxMiIgbGVuZ3RoQWRqdXN0PSJzcGFjaW5nIiB0ZXh0TGVuZ3RoPSIxNTYiIHg9IjY5IiB5PSI1MDcuOTM3NSI+JiMzMjc2MzsmIzM4NDA1OyYjMjE0NjA7JiMyMTQ2MDsmIzMyNDczOyYjMzAzNDA7JiMyMDQ0OTsmIzI0Njg3OyYjMjQxODI7JiMyMDg1MTsmIzI4NzgzOyYjMzA1NjE7JiMzNTI3Mzs8L3RleHQ+PGxpbmUgc3R5bGU9InN0cm9rZTojMTgxODE4O3N0cm9rZS13aWR0aDoxLjA7IiB4MT0iMTQ3IiB4Mj0iMTQ3IiB5MT0iNDMuODQzOCIgeTI9IjYzLjg0MzgiLz48cG9seWdvbiBmaWxsPSIjMTgxODE4IiBwb2ludHM9IjE0Myw1My44NDM4LDE0Nyw2My44NDM4LDE1MSw1My44NDM4LDE0Nyw1Ny44NDM4IiBzdHlsZT0ic3Ryb2tlOiMxODE4MTg7c3Ryb2tlLXdpZHRoOjEuMDsiLz48bGluZSBzdHlsZT0ic3Ryb2tlOiMxODE4MTg7c3Ryb2tlLXdpZHRoOjEuMDsiIHgxPSIxNDciIHgyPSIxNDciIHkxPSI5Ni42ODc1IiB5Mj0iMTE2LjY4NzUiLz48cG9seWdvbiBmaWxsPSIjMTgxODE4IiBwb2ludHM9IjE0MywxMDYuNjg3NSwxNDcsMTE2LjY4NzUsMTUxLDEwNi42ODc1LDE0NywxMTAuNjg3NSIgc3R5bGU9InN0cm9rZTojMTgxODE4O3N0cm9rZS13aWR0aDoxLjA7Ii8+PGxpbmUgc3R5bGU9InN0cm9rZTojMTgxODE4O3N0cm9rZS13aWR0aDoxLjA7IiB4MT0iMTQ3IiB4Mj0iMTQ3IiB5MT0iMTQ5LjUzMTMiIHkyPSIxNjkuNTMxMyIvPjxwb2x5Z29uIGZpbGw9IiMxODE4MTgiIHBvaW50cz0iMTQzLDE1OS41MzEzLDE0NywxNjkuNTMxMywxNTEsMTU5LjUzMTMsMTQ3LDE2My41MzEzIiBzdHlsZT0ic3Ryb2tlOiMxODE4MTg7c3Ryb2tlLXdpZHRoOjEuMDsiLz48bGluZSBzdHlsZT0ic3Ryb2tlOiMxODE4MTg7c3Ryb2tlLXdpZHRoOjEuMDsiIHgxPSIxNDciIHgyPSIxNDciIHkxPSIyMDIuMzc1IiB5Mj0iMjIyLjM3NSIvPjxwb2x5Z29uIGZpbGw9IiMxODE4MTgiIHBvaW50cz0iMTQzLDIxMi4zNzUsMTQ3LDIyMi4zNzUsMTUxLDIxMi4zNzUsMTQ3LDIxNi4zNzUiIHN0eWxlPSJzdHJva2U6IzE4MTgxODtzdHJva2Utd2lkdGg6MS4wOyIvPjxsaW5lIHN0eWxlPSJzdHJva2U6IzE4MTgxODtzdHJva2Utd2lkdGg6MS4wOyIgeDE9IjE0NyIgeDI9IjE0NyIgeTE9IjI1NS4yMTg4IiB5Mj0iMjc1LjIxODgiLz48cG9seWdvbiBmaWxsPSIjMTgxODE4IiBwb2ludHM9IjE0MywyNjUuMjE4OCwxNDcsMjc1LjIxODgsMTUxLDI2NS4yMTg4LDE0NywyNjkuMjE4OCIgc3R5bGU9InN0cm9rZTojMTgxODE4O3N0cm9rZS13aWR0aDoxLjA7Ii8+PGxpbmUgc3R5bGU9InN0cm9rZTojMTgxODE4O3N0cm9rZS13aWR0aDoxLjA7IiB4MT0iMTQ3IiB4Mj0iMTQ3IiB5MT0iMzA4LjA2MjUiIHkyPSIzMjguMDYyNSIvPjxwb2x5Z29uIGZpbGw9IiMxODE4MTgiIHBvaW50cz0iMTQzLDMxOC4wNjI1LDE0NywzMjguMDYyNSwxNTEsMzE4LjA2MjUsMTQ3LDMyMi4wNjI1IiBzdHlsZT0ic3Ryb2tlOiMxODE4MTg7c3Ryb2tlLXdpZHRoOjEuMDsiLz48bGluZSBzdHlsZT0ic3Ryb2tlOiMxODE4MTg7c3Ryb2tlLXdpZHRoOjEuMDsiIHgxPSIxNDciIHgyPSIxNDciIHkxPSIzNjAuOTA2MyIgeTI9IjM4MC45MDYzIi8+PHBvbHlnb24gZmlsbD0iIzE4MTgxOCIgcG9pbnRzPSIxNDMsMzcwLjkwNjMsMTQ3LDM4MC45MDYzLDE1MSwzNzAuOTA2MywxNDcsMzc0LjkwNjMiIHN0eWxlPSJzdHJva2U6IzE4MTgxODtzdHJva2Utd2lkdGg6MS4wOyIvPjxsaW5lIHN0eWxlPSJzdHJva2U6IzE4MTgxODtzdHJva2Utd2lkdGg6MS4wOyIgeDE9IjE0NyIgeDI9IjE0NyIgeTE9IjQxMy43NSIgeTI9IjQzMy43NSIvPjxwb2x5Z29uIGZpbGw9IiMxODE4MTgiIHBvaW50cz0iMTQzLDQyMy43NSwxNDcsNDMzLjc1LDE1MSw0MjMuNzUsMTQ3LDQyNy43NSIgc3R5bGU9InN0cm9rZTojMTgxODE4O3N0cm9rZS13aWR0aDoxLjA7Ii8+PGxpbmUgc3R5bGU9InN0cm9rZTojMTgxODE4O3N0cm9rZS13aWR0aDoxLjA7IiB4MT0iMTQ3IiB4Mj0iMTQ3IiB5MT0iNDY2LjU5MzgiIHkyPSI0ODYuNTkzOCIvPjxwb2x5Z29uIGZpbGw9IiMxODE4MTgiIHBvaW50cz0iMTQzLDQ3Ni41OTM4LDE0Nyw0ODYuNTkzOCwxNTEsNDc2LjU5MzgsMTQ3LDQ4MC41OTM4IiBzdHlsZT0ic3Ryb2tlOiMxODE4MTg7c3Ryb2tlLXdpZHRoOjEuMDsiLz48IS0tU1JDPVtGTDdESmk5MDRCeHhJN1pwdWlNMzlodzBoczJ5VTZrMXliRDkydzVJWWJINFdqaU9RQ2tGc0JCeWw0bmRQZGxvNVRtNUdoQWRjVXp0amEzTTJzcE1hOEltenozUFlNNDNWR2xJNVRYNW1PZldKMjFnTnJ1S1NkU2tUM0RCZmFVeVkzdnBEbUhaR0dqRXZXZXJOTTdxQWpKWVI2alp4TFVBZURWRWttaWJyVE9YemhFYVpicUJ2cm1ZdVVyVDhoNnNwenFieE5kVURNWllZMzM2X2tIbHFtMnhITE9DRW10SXZKNDBUZ2hHd0QxdUlXUVpVYktnNzZEYVlQY3gwT0hyQ0pBZURDTHUyTHdXNTY5VkhBenZob2JTNnRiQkRCVktBdi12NEFLZC1mZ0hDcTJER1Nnbmo5MGhfQjQ1Z3ZyQ2JucEMwMmU2WEVhdnJTdHJyVnFUcFZYbmdTR0VPczgzTUhnQ0c4bUlnN1pLN3FXdElTQm9HMUtqY0k5U1BPYjVQYUpSUnBjS242blQ0TW1hT3Y4SjJBczQ3dWR1cWQ1TUw1UVJDZW90dnpBdDN1ekZwd2hwdUw5V0VfOEh6c0liUjN6NEZMOGRiWi1YSC1HRjFRalZfV0MwXS0tPjwvZz48L3N2Zz4=;" parent="1" vertex="1">
            <mxGeometry x="86" y="570" width="294" height="530" as="geometry" />
          </mxCell>
        </UserObject>
        <UserObject label="" plantUmlData="{&quot;data&quot;:&quot;@startuml\n:起床并查看公寓管理表;\n:尝试拜访李晓阳，但他不在家;\n:在健身区找到王浩并讨论文化祭party;\n:拜访张涛并聆听他的艺术介绍，但未得到关于文化祭的信息;\n:拜访赵天宇并聊篮球及速配相亲比赛;\n:再次拜访王强并讨论文化祭的难度以及入住选拔过程;\nif (答应与王强共进晚餐) then (是)\n:来到李晓阳的日料店享用晚餐;\n:畅谈公寓趣事，拉近彼此关系;\n:晚餐结束，意犹未尽地回公寓;\nelse (否)\nendif\n:晚上与归来的李晓阳讨论文化祭party;\n:拜访结束，对住户们有了初步了解并思考文化祭节目;\n@enduml&quot;,&quot;format&quot;:&quot;svg&quot;}" id="9PTHPJeuA1GVSyK6PPqB-3">
          <mxCell style="shape=image;noLabel=1;verticalAlign=top;aspect=fixed;imageAspect=0;image=data:image/svg+xml,PD94bWwgdmVyc2lvbj0iMS4wIiBlbmNvZGluZz0idXMtYXNjaWkiIHN0YW5kYWxvbmU9Im5vIj8+PHN2ZyB4bWxucz0iaHR0cDovL3d3dy53My5vcmcvMjAwMC9zdmciIHhtbG5zOnhsaW5rPSJodHRwOi8vd3d3LnczLm9yZy8xOTk5L3hsaW5rIiBjb250ZW50U3R5bGVUeXBlPSJ0ZXh0L2NzcyIgaGVpZ2h0PSI2NzVweCIgcHJlc2VydmVBc3BlY3RSYXRpbz0ibm9uZSIgc3R5bGU9IndpZHRoOjM1NHB4O2hlaWdodDo2NzVweDtiYWNrZ3JvdW5kOiNGRkZGRkY7IiB2ZXJzaW9uPSIxLjEiIHZpZXdCb3g9IjAgMCAzNTQgNjc1IiB3aWR0aD0iMzU0cHgiIHpvb21BbmRQYW49Im1hZ25pZnkiPjxkZWZzLz48Zz48cmVjdCBmaWxsPSIjRjFGMUYxIiBoZWlnaHQ9IjMyLjg0MzgiIHJ4PSIxMi41IiByeT0iMTIuNSIgc3R5bGU9InN0cm9rZTojMTgxODE4O3N0cm9rZS13aWR0aDowLjU7IiB3aWR0aD0iMTQwIiB4PSIxMDciIHk9IjExIi8+PHRleHQgZmlsbD0iIzAwMDAwMCIgZm9udC1mYW1pbHk9InNhbnMtc2VyaWYiIGZvbnQtc2l6ZT0iMTIiIGxlbmd0aEFkanVzdD0ic3BhY2luZyIgdGV4dExlbmd0aD0iMTIwIiB4PSIxMTciIHk9IjMyLjM0MzgiPiYjMzYyMTU7JiMyNDIwMjsmIzI0MTgyOyYjMjY1OTc7JiMzMDQ3NTsmIzIwODQ0OyYjMjM1MDc7JiMzMTY0OTsmIzI5NzAyOyYjMzQ5MjA7PC90ZXh0PjxyZWN0IGZpbGw9IiNGMUYxRjEiIGhlaWdodD0iMzIuODQzOCIgcng9IjEyLjUiIHJ5PSIxMi41IiBzdHlsZT0ic3Ryb2tlOiMxODE4MTg7c3Ryb2tlLXdpZHRoOjAuNTsiIHdpZHRoPSIxNzYiIHg9Ijg5IiB5PSI2My44NDM4Ii8+PHRleHQgZmlsbD0iIzAwMDAwMCIgZm9udC1mYW1pbHk9InNhbnMtc2VyaWYiIGZvbnQtc2l6ZT0iMTIiIGxlbmd0aEFkanVzdD0ic3BhY2luZyIgdGV4dExlbmd0aD0iMTU2IiB4PSI5OSIgeT0iODUuMTg3NSI+JiMyMzU4MTsmIzM1Nzk3OyYjMjUzMDg7JiMzNTc3NTsmIzI2NDQ2OyYjMjYxOTU7JiMzODQ1MTsmIzY1MjkyOyYjMjAyOTQ7JiMyMDE4MjsmIzE5OTgxOyYjMjIzMTI7JiMyMzQ3ODs8L3RleHQ+PHJlY3QgZmlsbD0iI0YxRjFGMSIgaGVpZ2h0PSIzMi44NDM4IiByeD0iMTIuNSIgcnk9IjEyLjUiIHN0eWxlPSJzdHJva2U6IzE4MTgxODtzdHJva2Utd2lkdGg6MC41OyIgd2lkdGg9IjIyMiIgeD0iNjYiIHk9IjExNi42ODc1Ii8+PHRleHQgZmlsbD0iIzAwMDAwMCIgZm9udC1mYW1pbHk9InNhbnMtc2VyaWYiIGZvbnQtc2l6ZT0iMTIiIGxlbmd0aEFkanVzdD0ic3BhY2luZyIgdGV4dExlbmd0aD0iMjAyIiB4PSI3NiIgeT0iMTM4LjAzMTMiPiYjMjIzMTI7JiMyMDU4MTsmIzM2NTIzOyYjMjEzMDY7JiMyNTIxNDsmIzIxMDQwOyYjMjk1Nzk7JiMyODAwOTsmIzI0MTgyOyYjMzU3NTI7JiMzNTc3MDsmIzI1OTkxOyYjMjEyNzA7JiMzMTA4NTtwYXJ0eTwvdGV4dD48cmVjdCBmaWxsPSIjRjFGMUYxIiBoZWlnaHQ9IjMyLjg0MzgiIHJ4PSIxMi41IiByeT0iMTIuNSIgc3R5bGU9InN0cm9rZTojMTgxODE4O3N0cm9rZS13aWR0aDowLjU7IiB3aWR0aD0iMzMyIiB4PSIxMSIgeT0iMTY5LjUzMTMiLz48dGV4dCBmaWxsPSIjMDAwMDAwIiBmb250LWZhbWlseT0ic2Fucy1zZXJpZiIgZm9udC1zaXplPSIxMiIgbGVuZ3RoQWRqdXN0PSJzcGFjaW5nIiB0ZXh0TGVuZ3RoPSIzMTIiIHg9IjIxIiB5PSIxOTAuODc1Ij4mIzI1MzA4OyYjMzU3NzU7JiMyNDM1MjsmIzI4MDU5OyYjMjQxODI7JiMzMjgzODsmIzIxNTQ4OyYjMjAxODI7JiMzMDM0MDsmIzMzNDAyOyYjMjY0MTU7JiMyMDE3MTsmIzMyNDYxOyYjNjUyOTI7JiMyMDI5NDsmIzI2NDEwOyYjMjQ0NzE7JiMyMTA0MDsmIzIwODUxOyYjMjAxMTA7JiMyNTk5MTsmIzIxMjcwOyYjMzEwODU7JiMzMDM0MDsmIzIwNDQ5OyYjMjQ2ODc7PC90ZXh0PjxyZWN0IGZpbGw9IiNGMUYxRjEiIGhlaWdodD0iMzIuODQzOCIgcng9IjEyLjUiIHJ5PSIxMi41IiBzdHlsZT0ic3Ryb2tlOiMxODE4MTg7c3Ryb2tlLXdpZHRoOjAuNTsiIHdpZHRoPSIyMTIiIHg9IjcxIiB5PSIyMjIuMzc1Ii8+PHRleHQgZmlsbD0iIzAwMDAwMCIgZm9udC1mYW1pbHk9InNhbnMtc2VyaWYiIGZvbnQtc2l6ZT0iMTIiIGxlbmd0aEFkanVzdD0ic3BhY2luZyIgdGV4dExlbmd0aD0iMTkyIiB4PSI4MSIgeT0iMjQzLjcxODgiPiYjMjUzMDg7JiMzNTc3NTsmIzM2MjEzOyYjMjI4MjU7JiMyMzQzMTsmIzI0MTgyOyYjMzI4NDI7JiMzMTcyNjsmIzI5Njk5OyYjMjE0NTA7JiMzNjg5NTsmIzM3MTk3OyYjMzA0NTY7JiMyMDE0NjsmIzI3NjA0OyYjMzYxODc7PC90ZXh0PjxyZWN0IGZpbGw9IiNGMUYxRjEiIGhlaWdodD0iMzIuODQzOCIgcng9IjEyLjUiIHJ5PSIxMi41IiBzdHlsZT0ic3Ryb2tlOiMxODE4MTg7c3Ryb2tlLXdpZHRoOjAuNTsiIHdpZHRoPSIyOTYiIHg9IjI5IiB5PSIyNzUuMjE4OCIvPjx0ZXh0IGZpbGw9IiMwMDAwMDAiIGZvbnQtZmFtaWx5PSJzYW5zLXNlcmlmIiBmb250LXNpemU9IjEyIiBsZW5ndGhBZGp1c3Q9InNwYWNpbmciIHRleHRMZW5ndGg9IjI3NiIgeD0iMzkiIHk9IjI5Ni41NjI1Ij4mIzIwODc3OyYjMjc0MjU7JiMyNTMwODsmIzM1Nzc1OyYjMjk1Nzk7JiMyNDM3ODsmIzI0MTgyOyYjMzU3NTI7JiMzNTc3MDsmIzI1OTkxOyYjMjEyNzA7JiMzMTA4NTsmIzMwMzQwOyYjMzg1OTA7JiMyNDIzMDsmIzIwMTk3OyYjMjE0NTA7JiMyMDgzNzsmIzIwMzAzOyYjMzY4NzM7JiMyNTMwMDsmIzM2ODA3OyYjMzEyNDM7PC90ZXh0PjxyZWN0IGZpbGw9IiNGMUYxRjEiIGhlaWdodD0iMzIuODQzOCIgcng9IjEyLjUiIHJ5PSIxMi41IiBzdHlsZT0ic3Ryb2tlOiMxODE4MTg7c3Ryb2tlLXdpZHRoOjAuNTsiIHdpZHRoPSIxNzYiIHg9Ijg5IiB5PSIzNzYuMDYyNSIvPjx0ZXh0IGZpbGw9IiMwMDAwMDAiIGZvbnQtZmFtaWx5PSJzYW5zLXNlcmlmIiBmb250LXNpemU9IjEyIiBsZW5ndGhBZGp1c3Q9InNwYWNpbmciIHRleHRMZW5ndGg9IjE1NiIgeD0iOTkiIHk9IjM5Ny40MDYzIj4mIzI2NDY5OyYjMjEwNDA7JiMyNjQ0NjsmIzI2MTk1OyYjMzg0NTE7JiMzMDM0MDsmIzI2MDg1OyYjMjYwMDk7JiMyNDIxNTsmIzIwMTM5OyYjMjk5OTI7JiMyNjIwMjsmIzM5MTg0OzwvdGV4dD48cmVjdCBmaWxsPSIjRjFGMUYxIiBoZWlnaHQ9IjMyLjg0MzgiIHJ4PSIxMi41IiByeT0iMTIuNSIgc3R5bGU9InN0cm9rZTojMTgxODE4O3N0cm9rZS13aWR0aDowLjU7IiB3aWR0aD0iMTc2IiB4PSI4OSIgeT0iNDI4LjkwNjMiLz48dGV4dCBmaWxsPSIjMDAwMDAwIiBmb250LWZhbWlseT0ic2Fucy1zZXJpZiIgZm9udC1zaXplPSIxMiIgbGVuZ3RoQWRqdXN0PSJzcGFjaW5nIiB0ZXh0TGVuZ3RoPSIxNTYiIHg9Ijk5IiB5PSI0NTAuMjUiPiYjMzAwMjE7JiMzNTg0ODsmIzIwODQ0OyYjMjM1MDc7JiMzNjI1OTsmIzIwMTA3OyYjNjUyOTI7JiMyNTI4OTsmIzM2ODE3OyYjMjQ0NDQ7JiMyNzQ5MjsmIzIwODUxOyYjMzE5OTU7PC90ZXh0PjxyZWN0IGZpbGw9IiNGMUYxRjEiIGhlaWdodD0iMzIuODQzOCIgcng9IjEyLjUiIHJ5PSIxMi41IiBzdHlsZT0ic3Ryb2tlOiMxODE4MTg7c3Ryb2tlLXdpZHRoOjAuNTsiIHdpZHRoPSIxNzYiIHg9Ijg5IiB5PSI0ODEuNzUiLz48dGV4dCBmaWxsPSIjMDAwMDAwIiBmb250LWZhbWlseT0ic2Fucy1zZXJpZiIgZm9udC1zaXplPSIxMiIgbGVuZ3RoQWRqdXN0PSJzcGFjaW5nIiB0ZXh0TGVuZ3RoPSIxNTYiIHg9Ijk5IiB5PSI1MDMuMDkzOCI+JiMyNjIwMjsmIzM5MTg0OyYjMzI0Njc7JiMyNjQ2MzsmIzY1MjkyOyYjMjQ4NDc7JiMyOTM2OTsmIzI2NDEwOyYjMjM2MTM7JiMyMjMyMDsmIzIyMjM4OyYjMjA4NDQ7JiMyMzUwNzs8L3RleHQ+PHBvbHlnb24gZmlsbD0iI0YxRjFGMSIgcG9pbnRzPSIxMjcuNSwzMjguMDYyNSwyMjYuNSwzMjguMDYyNSwyMzguNSwzNDAuMDYyNSwyMjYuNSwzNTIuMDYyNSwxMjcuNSwzNTIuMDYyNSwxMTUuNSwzNDAuMDYyNSwxMjcuNSwzMjguMDYyNSIgc3R5bGU9InN0cm9rZTojMTgxODE4O3N0cm9rZS13aWR0aDowLjU7Ii8+PHRleHQgZmlsbD0iIzAwMDAwMCIgZm9udC1mYW1pbHk9InNhbnMtc2VyaWYiIGZvbnQtc2l6ZT0iMTEiIGxlbmd0aEFkanVzdD0ic3BhY2luZyIgdGV4dExlbmd0aD0iMTEiIHg9IjE4MSIgeT0iMzYyLjQ2MDkiPiYjMjYxNTk7PC90ZXh0Pjx0ZXh0IGZpbGw9IiMwMDAwMDAiIGZvbnQtZmFtaWx5PSJzYW5zLXNlcmlmIiBmb250LXNpemU9IjExIiBsZW5ndGhBZGp1c3Q9InNwYWNpbmciIHRleHRMZW5ndGg9Ijk5IiB4PSIxMjcuNSIgeT0iMzQ0LjU3NDIiPiYjMzE1NzI7JiMyNDIxMjsmIzE5OTgyOyYjMjk1Nzk7JiMyNDM3ODsmIzIwODQ5OyYjMzY4Mjc7JiMyNjIwMjsmIzM5MTg0OzwvdGV4dD48dGV4dCBmaWxsPSIjMDAwMDAwIiBmb250LWZhbWlseT0ic2Fucy1zZXJpZiIgZm9udC1zaXplPSIxMSIgbGVuZ3RoQWRqdXN0PSJzcGFjaW5nIiB0ZXh0TGVuZ3RoPSIxMSIgeD0iMjM4LjUiIHk9IjMzOC42ODc1Ij4mIzIxNTQyOzwvdGV4dD48cG9seWdvbiBmaWxsPSIjRjFGMUYxIiBwb2ludHM9IjE3Nyw1MzQuNTkzOCwxODksNTQ2LjU5MzgsMTc3LDU1OC41OTM4LDE2NSw1NDYuNTkzOCwxNzcsNTM0LjU5MzgiIHN0eWxlPSJzdHJva2U6IzE4MTgxODtzdHJva2Utd2lkdGg6MC41OyIvPjxyZWN0IGZpbGw9IiNGMUYxRjEiIGhlaWdodD0iMzIuODQzOCIgcng9IjEyLjUiIHJ5PSIxMi41IiBzdHlsZT0ic3Ryb2tlOiMxODE4MTg7c3Ryb2tlLXdpZHRoOjAuNTsiIHdpZHRoPSIyMjIiIHg9IjY2IiB5PSI1NzguNTkzOCIvPjx0ZXh0IGZpbGw9IiMwMDAwMDAiIGZvbnQtZmFtaWx5PSJzYW5zLXNlcmlmIiBmb250LXNpemU9IjEyIiBsZW5ndGhBZGp1c3Q9InNwYWNpbmciIHRleHRMZW5ndGg9IjIwMiIgeD0iNzYiIHk9IjU5OS45Mzc1Ij4mIzI2MjAyOyYjMTk5Nzg7JiMxOTk4MjsmIzI0NDAyOyYjMjY0Njk7JiMzMDM0MDsmIzI2NDQ2OyYjMjYxOTU7JiMzODQ1MTsmIzM1NzUyOyYjMzU3NzA7JiMyNTk5MTsmIzIxMjcwOyYjMzEwODU7cGFydHk8L3RleHQ+PHJlY3QgZmlsbD0iI0YxRjFGMSIgaGVpZ2h0PSIzMi44NDM4IiByeD0iMTIuNSIgcnk9IjEyLjUiIHN0eWxlPSJzdHJva2U6IzE4MTgxODtzdHJva2Utd2lkdGg6MC41OyIgd2lkdGg9IjI5NiIgeD0iMjkiIHk9IjYzMS40Mzc1Ii8+PHRleHQgZmlsbD0iIzAwMDAwMCIgZm9udC1mYW1pbHk9InNhbnMtc2VyaWYiIGZvbnQtc2l6ZT0iMTIiIGxlbmd0aEFkanVzdD0ic3BhY2luZyIgdGV4dExlbmd0aD0iMjc2IiB4PSIzOSIgeT0iNjUyLjc4MTMiPiYjMjUzMDg7JiMzNTc3NTsmIzMyNDY3OyYjMjY0NjM7JiM2NTI5MjsmIzIzNTQ1OyYjMjAzMDM7JiMyNTE0MzsmIzIwMjA0OyYjMjYzNzc7JiMyMDEwMjsmIzIxMDIxOyYjMjc0OTM7JiMyMDEwMjsmIzM1Mjk5OyYjMjQxODI7JiMyNDYwNTsmIzMyNzcxOyYjMjU5OTE7JiMyMTI3MDsmIzMxMDg1OyYjMzM0MTA7JiMzMDQ0Njs8L3RleHQ+PGxpbmUgc3R5bGU9InN0cm9rZTojMTgxODE4O3N0cm9rZS13aWR0aDoxLjA7IiB4MT0iMTc3IiB4Mj0iMTc3IiB5MT0iNDMuODQzOCIgeTI9IjYzLjg0MzgiLz48cG9seWdvbiBmaWxsPSIjMTgxODE4IiBwb2ludHM9IjE3Myw1My44NDM4LDE3Nyw2My44NDM4LDE4MSw1My44NDM4LDE3Nyw1Ny44NDM4IiBzdHlsZT0ic3Ryb2tlOiMxODE4MTg7c3Ryb2tlLXdpZHRoOjEuMDsiLz48bGluZSBzdHlsZT0ic3Ryb2tlOiMxODE4MTg7c3Ryb2tlLXdpZHRoOjEuMDsiIHgxPSIxNzciIHgyPSIxNzciIHkxPSI5Ni42ODc1IiB5Mj0iMTE2LjY4NzUiLz48cG9seWdvbiBmaWxsPSIjMTgxODE4IiBwb2ludHM9IjE3MywxMDYuNjg3NSwxNzcsMTE2LjY4NzUsMTgxLDEwNi42ODc1LDE3NywxMTAuNjg3NSIgc3R5bGU9InN0cm9rZTojMTgxODE4O3N0cm9rZS13aWR0aDoxLjA7Ii8+PGxpbmUgc3R5bGU9InN0cm9rZTojMTgxODE4O3N0cm9rZS13aWR0aDoxLjA7IiB4MT0iMTc3IiB4Mj0iMTc3IiB5MT0iMTQ5LjUzMTMiIHkyPSIxNjkuNTMxMyIvPjxwb2x5Z29uIGZpbGw9IiMxODE4MTgiIHBvaW50cz0iMTczLDE1OS41MzEzLDE3NywxNjkuNTMxMywxODEsMTU5LjUzMTMsMTc3LDE2My41MzEzIiBzdHlsZT0ic3Ryb2tlOiMxODE4MTg7c3Ryb2tlLXdpZHRoOjEuMDsiLz48bGluZSBzdHlsZT0ic3Ryb2tlOiMxODE4MTg7c3Ryb2tlLXdpZHRoOjEuMDsiIHgxPSIxNzciIHgyPSIxNzciIHkxPSIyMDIuMzc1IiB5Mj0iMjIyLjM3NSIvPjxwb2x5Z29uIGZpbGw9IiMxODE4MTgiIHBvaW50cz0iMTczLDIxMi4zNzUsMTc3LDIyMi4zNzUsMTgxLDIxMi4zNzUsMTc3LDIxNi4zNzUiIHN0eWxlPSJzdHJva2U6IzE4MTgxODtzdHJva2Utd2lkdGg6MS4wOyIvPjxsaW5lIHN0eWxlPSJzdHJva2U6IzE4MTgxODtzdHJva2Utd2lkdGg6MS4wOyIgeDE9IjE3NyIgeDI9IjE3NyIgeTE9IjI1NS4yMTg4IiB5Mj0iMjc1LjIxODgiLz48cG9seWdvbiBmaWxsPSIjMTgxODE4IiBwb2ludHM9IjE3MywyNjUuMjE4OCwxNzcsMjc1LjIxODgsMTgxLDI2NS4yMTg4LDE3NywyNjkuMjE4OCIgc3R5bGU9InN0cm9rZTojMTgxODE4O3N0cm9rZS13aWR0aDoxLjA7Ii8+PGxpbmUgc3R5bGU9InN0cm9rZTojMTgxODE4O3N0cm9rZS13aWR0aDoxLjA7IiB4MT0iMTc3IiB4Mj0iMTc3IiB5MT0iNDA4LjkwNjMiIHkyPSI0MjguOTA2MyIvPjxwb2x5Z29uIGZpbGw9IiMxODE4MTgiIHBvaW50cz0iMTczLDQxOC45MDYzLDE3Nyw0MjguOTA2MywxODEsNDE4LjkwNjMsMTc3LDQyMi45MDYzIiBzdHlsZT0ic3Ryb2tlOiMxODE4MTg7c3Ryb2tlLXdpZHRoOjEuMDsiLz48bGluZSBzdHlsZT0ic3Ryb2tlOiMxODE4MTg7c3Ryb2tlLXdpZHRoOjEuMDsiIHgxPSIxNzciIHgyPSIxNzciIHkxPSI0NjEuNzUiIHkyPSI0ODEuNzUiLz48cG9seWdvbiBmaWxsPSIjMTgxODE4IiBwb2ludHM9IjE3Myw0NzEuNzUsMTc3LDQ4MS43NSwxODEsNDcxLjc1LDE3Nyw0NzUuNzUiIHN0eWxlPSJzdHJva2U6IzE4MTgxODtzdHJva2Utd2lkdGg6MS4wOyIvPjxsaW5lIHN0eWxlPSJzdHJva2U6IzE4MTgxODtzdHJva2Utd2lkdGg6MS4wOyIgeDE9IjE3NyIgeDI9IjE3NyIgeTE9IjM1Mi4wNjI1IiB5Mj0iMzc2LjA2MjUiLz48cG9seWdvbiBmaWxsPSIjMTgxODE4IiBwb2ludHM9IjE3MywzNjYuMDYyNSwxNzcsMzc2LjA2MjUsMTgxLDM2Ni4wNjI1LDE3NywzNzAuMDYyNSIgc3R5bGU9InN0cm9rZTojMTgxODE4O3N0cm9rZS13aWR0aDoxLjA7Ii8+PGxpbmUgc3R5bGU9InN0cm9rZTojMTgxODE4O3N0cm9rZS13aWR0aDoxLjA7IiB4MT0iMjM4LjUiIHgyPSIyNzUiIHkxPSIzNDAuMDYyNSIgeTI9IjM0MC4wNjI1Ii8+PHBvbHlnb24gZmlsbD0iIzE4MTgxOCIgcG9pbnRzPSIyNzEsNDM1LjMyODEsMjc1LDQ0NS4zMjgxLDI3OSw0MzUuMzI4MSwyNzUsNDM5LjMyODEiIHN0eWxlPSJzdHJva2U6IzE4MTgxODtzdHJva2Utd2lkdGg6MS4wOyIvPjxsaW5lIHN0eWxlPSJzdHJva2U6IzE4MTgxODtzdHJva2Utd2lkdGg6MS4wOyIgeDE9IjI3NSIgeDI9IjI3NSIgeTE9IjM0MC4wNjI1IiB5Mj0iNTQ2LjU5MzgiLz48bGluZSBzdHlsZT0ic3Ryb2tlOiMxODE4MTg7c3Ryb2tlLXdpZHRoOjEuMDsiIHgxPSIyNzUiIHgyPSIxODkiIHkxPSI1NDYuNTkzOCIgeTI9IjU0Ni41OTM4Ii8+PHBvbHlnb24gZmlsbD0iIzE4MTgxOCIgcG9pbnRzPSIxOTksNTQyLjU5MzgsMTg5LDU0Ni41OTM4LDE5OSw1NTAuNTkzOCwxOTUsNTQ2LjU5MzgiIHN0eWxlPSJzdHJva2U6IzE4MTgxODtzdHJva2Utd2lkdGg6MS4wOyIvPjxsaW5lIHN0eWxlPSJzdHJva2U6IzE4MTgxODtzdHJva2Utd2lkdGg6MS4wOyIgeDE9IjE3NyIgeDI9IjE3NyIgeTE9IjUxNC41OTM4IiB5Mj0iNTM0LjU5MzgiLz48cG9seWdvbiBmaWxsPSIjMTgxODE4IiBwb2ludHM9IjE3Myw1MjQuNTkzOCwxNzcsNTM0LjU5MzgsMTgxLDUyNC41OTM4LDE3Nyw1MjguNTkzOCIgc3R5bGU9InN0cm9rZTojMTgxODE4O3N0cm9rZS13aWR0aDoxLjA7Ii8+PGxpbmUgc3R5bGU9InN0cm9rZTojMTgxODE4O3N0cm9rZS13aWR0aDoxLjA7IiB4MT0iMTc3IiB4Mj0iMTc3IiB5MT0iMzA4LjA2MjUiIHkyPSIzMjguMDYyNSIvPjxwb2x5Z29uIGZpbGw9IiMxODE4MTgiIHBvaW50cz0iMTczLDMxOC4wNjI1LDE3NywzMjguMDYyNSwxODEsMzE4LjA2MjUsMTc3LDMyMi4wNjI1IiBzdHlsZT0ic3Ryb2tlOiMxODE4MTg7c3Ryb2tlLXdpZHRoOjEuMDsiLz48bGluZSBzdHlsZT0ic3Ryb2tlOiMxODE4MTg7c3Ryb2tlLXdpZHRoOjEuMDsiIHgxPSIxNzciIHgyPSIxNzciIHkxPSI1NTguNTkzOCIgeTI9IjU3OC41OTM4Ii8+PHBvbHlnb24gZmlsbD0iIzE4MTgxOCIgcG9pbnRzPSIxNzMsNTY4LjU5MzgsMTc3LDU3OC41OTM4LDE4MSw1NjguNTkzOCwxNzcsNTcyLjU5MzgiIHN0eWxlPSJzdHJva2U6IzE4MTgxODtzdHJva2Utd2lkdGg6MS4wOyIvPjxsaW5lIHN0eWxlPSJzdHJva2U6IzE4MTgxODtzdHJva2Utd2lkdGg6MS4wOyIgeDE9IjE3NyIgeDI9IjE3NyIgeTE9IjYxMS40Mzc1IiB5Mj0iNjMxLjQzNzUiLz48cG9seWdvbiBmaWxsPSIjMTgxODE4IiBwb2ludHM9IjE3Myw2MjEuNDM3NSwxNzcsNjMxLjQzNzUsMTgxLDYyMS40Mzc1LDE3Nyw2MjUuNDM3NSIgc3R5bGU9InN0cm9rZTojMTgxODE4O3N0cm9rZS13aWR0aDoxLjA7Ii8+PCEtLVNSQz1bVlBCRFJqZjA1NFJ0RjBMQlU4Tm1EOUxBcjRYTExBTlBUMFREUkIzRE5tazFXRXJJNTltdzNUWGthR2NDQ053UGtOVjZneHYyaHQ3aEpRTmtQZDZfU3l6eUNzU29WMDZjbXR3QlNxVE8xWVdoeThWMk11WTFBWFRraE5HNldJdHpFcEdpd0lMZXp0MHdKRXl0bG11VDdnaXk2bERUNW9tTmw2cXNJT1VjOHphcFQxWGdIc1c3ZWNUVy00SG13UmRJT3BYa0dNU2lkRk14THJWTjdvWUhLLTdtNVJUY0RqTEtPUjBZZ2ZaVEllc1h2VkY4NDU0dHR1Uk1UcFhFWTBoQVhoRFUwUURYZFlvbXdIVDA2T1FtVjBBbFRNQmdtbFY0dTBSd1VqZ09mcWZOYzNsRVZnOF9hZzZQTVFqVE4ydG84RmQyV1Z0aElvbElzSDdPOHV5U3VlM1l5QllWRFpHcUhaOWYyVFVlYkl4RW9uTW43VzRSeUx0bDNxVnY4SENKZnhEcUVRWU1oel9LQnlpTGxGVWhmNmF4VDgtWUpTQlpuQzduNURZNGlzU25TbENHc09heEhHUmpfNU5hemU0cFd5ZjBHdkY5OXVXRms1dkk2TThKUExTX0hLR3FIN2tVcFRwc1hSeEZFV2pZaTA4bWwtSUdNZ2QtemRzek44NzFPeExLbHRuelNOd0F5ZnJFdFgxXzloTEN2d19RVm4ta00wUi1kV2gxeldrRkxjWGZkQWRHamQ3anE0NS1VeVctTHlFTVpQaTI4X01GbWxIZ2xtNDBdLS0+PC9nPjwvc3ZnPg==;" parent="1" vertex="1">
            <mxGeometry x="70" y="1210" width="354" height="675" as="geometry" />
          </mxCell>
        </UserObject>
        <UserObject label="" plantUmlData="{&#xa;  &quot;data&quot;: &quot;@startuml\n:参观公寓一楼休息大厅并进行头脑风暴;\nif (借机问李晓阳房间有没有有趣的服装) then (说有)\n:进入李晓阳房间;\n:换上摔跤服并模拟摔跤;\n:发生暧昧行为;\n:发现瓶瓶罐罐并询问;\n:李晓阳解释关于新颖食材的兴趣;\nelse (先不去看了)\n:继续参观公寓;\nendif\n:参观健身区，计划彩虹运动会;\n:遇见王浩并听取建议;\n:参观工作室，想到举办cosplay活动;\n:参观公共厨房;\n:向张涛询问调酒比赛建议;\n:讨论在厨房举办义卖会;\n:再次拜访张涛，但张涛忙碌无法交谈;\n:参观游泳池，考虑作为彩虹运动会分会场;\nif (碰到赵天宇并邀请游泳) then (答应了)\n:晚上来到泳池与赵天宇和朋友们游泳;\n:观察赵天宇和朋友的亲昵行为;\n:谈论与朋友开放玩法;\n:拒绝参与暧昧游戏;\n:观察他们的暧昧玩耍;\n:在一旁solo;\nelse (今天有点累)\n:晚上回到房间休息;\nendif\n:在阳台梳理活动计划;\n:发现望远镜并向室友询问;\n:阅读室友发来的安装说明;\n:翻开推，开始solo之旅放松心情;\n@enduml&quot;,&#xa;  &quot;format&quot;: &quot;svg&quot;&#xa;}" id="9PTHPJeuA1GVSyK6PPqB-4">
          <mxCell style="shape=image;noLabel=1;verticalAlign=top;aspect=fixed;imageAspect=0;image=data:image/svg+xml,PD94bWwgdmVyc2lvbj0iMS4wIiBlbmNvZGluZz0idXMtYXNjaWkiIHN0YW5kYWxvbmU9Im5vIj8+PHN2ZyB4bWxucz0iaHR0cDovL3d3dy53My5vcmcvMjAwMC9zdmciIHhtbG5zOnhsaW5rPSJodHRwOi8vd3d3LnczLm9yZy8xOTk5L3hsaW5rIiBjb250ZW50U3R5bGVUeXBlPSJ0ZXh0L2NzcyIgaGVpZ2h0PSIxMzk4cHgiIHByZXNlcnZlQXNwZWN0UmF0aW89Im5vbmUiIHN0eWxlPSJ3aWR0aDozODJweDtoZWlnaHQ6MTM5OHB4O2JhY2tncm91bmQ6I0ZGRkZGRjsiIHZlcnNpb249IjEuMSIgdmlld0JveD0iMCAwIDM4MiAxMzk4IiB3aWR0aD0iMzgycHgiIHpvb21BbmRQYW49Im1hZ25pZnkiPjxkZWZzLz48Zz48cmVjdCBmaWxsPSIjRjFGMUYxIiBoZWlnaHQ9IjMyLjg0MzgiIHJ4PSIxMi41IiByeT0iMTIuNSIgc3R5bGU9InN0cm9rZTojMTgxODE4O3N0cm9rZS13aWR0aDowLjU7IiB3aWR0aD0iMjI0IiB4PSIxMDMiIHk9IjExIi8+PHRleHQgZmlsbD0iIzAwMDAwMCIgZm9udC1mYW1pbHk9InNhbnMtc2VyaWYiIGZvbnQtc2l6ZT0iMTIiIGxlbmd0aEFkanVzdD0ic3BhY2luZyIgdGV4dExlbmd0aD0iMjA0IiB4PSIxMTMiIHk9IjMyLjM0MzgiPiYjMjE0NDI7JiMzNTI2NjsmIzIwODQ0OyYjMjM1MDc7JiMxOTk2ODsmIzI3MDA0OyYjMjAyNDE7JiMyNDY4NzsmIzIyODIzOyYjMjEzODE7JiMyNDE4MjsmIzM2ODI3OyYjMzQ4OTI7JiMyMjgzNjsmIzMzMDQxOyYjMzkxMTg7JiMyNjI5Mjs8L3RleHQ+PHBvbHlnb24gZmlsbD0iI0YxRjFGMSIgcG9pbnRzPSIxMjcsNjMuODQzOCwzMDMsNjMuODQzOCwzMTUsNzUuODQzOCwzMDMsODcuODQzOCwxMjcsODcuODQzOCwxMTUsNzUuODQzOCwxMjcsNjMuODQzOCIgc3R5bGU9InN0cm9rZTojMTgxODE4O3N0cm9rZS13aWR0aDowLjU7Ii8+PHRleHQgZmlsbD0iIzAwMDAwMCIgZm9udC1mYW1pbHk9InNhbnMtc2VyaWYiIGZvbnQtc2l6ZT0iMTEiIGxlbmd0aEFkanVzdD0ic3BhY2luZyIgdGV4dExlbmd0aD0iMTc2IiB4PSIxMjciIHk9IjgwLjM1NTUiPiYjMjA1MTE7JiMyNjQyNjsmIzM4MzgyOyYjMjY0NDY7JiMyNjE5NTsmIzM4NDUxOyYjMjUxNTE7JiMzODM4ODsmIzI2Mzc3OyYjMjc4MDk7JiMyNjM3NzsmIzI2Mzc3OyYjMzYyNTk7JiMzMDM0MDsmIzI2MzgxOyYjMzUwMTM7PC90ZXh0Pjx0ZXh0IGZpbGw9IiMwMDAwMDAiIGZvbnQtZmFtaWx5PSJzYW5zLXNlcmlmIiBmb250LXNpemU9IjExIiBsZW5ndGhBZGp1c3Q9InNwYWNpbmciIHRleHRMZW5ndGg9IjIyIiB4PSI5MyIgeT0iNzQuNDY4OCI+JiMzNTgyODsmIzI2Mzc3OzwvdGV4dD48dGV4dCBmaWxsPSIjMDAwMDAwIiBmb250LWZhbWlseT0ic2Fucy1zZXJpZiIgZm9udC1zaXplPSIxMSIgbGVuZ3RoQWRqdXN0PSJzcGFjaW5nIiB0ZXh0TGVuZ3RoPSI1NSIgeD0iMzE1IiB5PSI3NC40Njg4Ij4mIzIwODA4OyYjMTk5ODE7JiMyMTQzNTsmIzMwNDc1OyYjMjAxMDI7PC90ZXh0PjxyZWN0IGZpbGw9IiNGMUYxRjEiIGhlaWdodD0iMzIuODQzOCIgcng9IjEyLjUiIHJ5PSIxMi41IiBzdHlsZT0ic3Ryb2tlOiMxODE4MTg7c3Ryb2tlLXdpZHRoOjAuNTsiIHdpZHRoPSIxMDQiIHg9IjUzIiB5PSI5Ny44NDM4Ii8+PHRleHQgZmlsbD0iIzAwMDAwMCIgZm9udC1mYW1pbHk9InNhbnMtc2VyaWYiIGZvbnQtc2l6ZT0iMTIiIGxlbmd0aEFkanVzdD0ic3BhY2luZyIgdGV4dExlbmd0aD0iODQiIHg9IjYzIiB5PSIxMTkuMTg3NSI+JiMzNjgyNzsmIzIwODM3OyYjMjY0NDY7JiMyNjE5NTsmIzM4NDUxOyYjMjUxNTE7JiMzODM4ODs8L3RleHQ+PHJlY3QgZmlsbD0iI0YxRjFGMSIgaGVpZ2h0PSIzMi44NDM4IiByeD0iMTIuNSIgcnk9IjEyLjUiIHN0eWxlPSJzdHJva2U6IzE4MTgxODtzdHJva2Utd2lkdGg6MC41OyIgd2lkdGg9IjE0MCIgeD0iMzUiIHk9IjE1MC42ODc1Ii8+PHRleHQgZmlsbD0iIzAwMDAwMCIgZm9udC1mYW1pbHk9InNhbnMtc2VyaWYiIGZvbnQtc2l6ZT0iMTIiIGxlbmd0aEFkanVzdD0ic3BhY2luZyIgdGV4dExlbmd0aD0iMTIwIiB4PSI0NSIgeT0iMTcyLjAzMTMiPiYjMjU0NDI7JiMxOTk3ODsmIzI1Njg0OyYjMzYzMjQ7JiMyNjM4MTsmIzI0MTgyOyYjMjcxNjk7JiMyNTMxMTsmIzI1Njg0OyYjMzYzMjQ7PC90ZXh0PjxyZWN0IGZpbGw9IiNGMUYxRjEiIGhlaWdodD0iMzIuODQzOCIgcng9IjEyLjUiIHJ5PSIxMi41IiBzdHlsZT0ic3Ryb2tlOiMxODE4MTg7c3Ryb2tlLXdpZHRoOjAuNTsiIHdpZHRoPSI5MiIgeD0iNTkiIHk9IjIwMy41MzEzIi8+PHRleHQgZmlsbD0iIzAwMDAwMCIgZm9udC1mYW1pbHk9InNhbnMtc2VyaWYiIGZvbnQtc2l6ZT0iMTIiIGxlbmd0aEFkanVzdD0ic3BhY2luZyIgdGV4dExlbmd0aD0iNzIiIHg9IjY5IiB5PSIyMjQuODc1Ij4mIzIxNDU3OyYjMjk5ODM7JiMyNjI3OTsmIzI2MTUxOyYjMzQ4OTI7JiMyMDAyNjs8L3RleHQ+PHJlY3QgZmlsbD0iI0YxRjFGMSIgaGVpZ2h0PSIzMi44NDM4IiByeD0iMTIuNSIgcnk9IjEyLjUiIHN0eWxlPSJzdHJva2U6IzE4MTgxODtzdHJva2Utd2lkdGg6MC41OyIgd2lkdGg9IjEyOCIgeD0iNDEiIHk9IjI1Ni4zNzUiLz48dGV4dCBmaWxsPSIjMDAwMDAwIiBmb250LWZhbWlseT0ic2Fucy1zZXJpZiIgZm9udC1zaXplPSIxMiIgbGVuZ3RoQWRqdXN0PSJzcGFjaW5nIiB0ZXh0TGVuZ3RoPSIxMDgiIHg9IjUxIiB5PSIyNzcuNzE4OCI+JiMyMTQ1NzsmIzI5NjE2OyYjMjk5NDI7JiMyOTk0MjsmIzMyNTkyOyYjMzI1OTI7JiMyNDE4MjsmIzM1ODEwOyYjMzgzODI7PC90ZXh0PjxyZWN0IGZpbGw9IiNGMUYxRjEiIGhlaWdodD0iMzIuODQzOCIgcng9IjEyLjUiIHJ5PSIxMi41IiBzdHlsZT0ic3Ryb2tlOiMxODE4MTg7c3Ryb2tlLXdpZHRoOjAuNTsiIHdpZHRoPSIxODgiIHg9IjExIiB5PSIzMDkuMjE4OCIvPjx0ZXh0IGZpbGw9IiMwMDAwMDAiIGZvbnQtZmFtaWx5PSJzYW5zLXNlcmlmIiBmb250LXNpemU9IjEyIiBsZW5ndGhBZGp1c3Q9InNwYWNpbmciIHRleHRMZW5ndGg9IjE2OCIgeD0iMjEiIHk9IjMzMC41NjI1Ij4mIzI2NDQ2OyYjMjYxOTU7JiMzODQ1MTsmIzM1Mjk5OyYjMzczMjI7JiMyMDg1MTsmIzIwMTEwOyYjMjYwMzI7JiMzOTA2MjsmIzM5MTM1OyYjMjY0NDg7JiMzMDM0MDsmIzIwODUyOyYjMzYyNTk7PC90ZXh0PjxyZWN0IGZpbGw9IiNGMUYxRjEiIGhlaWdodD0iMzIuODQzOCIgcng9IjEyLjUiIHJ5PSIxMi41IiBzdHlsZT0ic3Ryb2tlOiMxODE4MTg7c3Ryb2tlLXdpZHRoOjAuNTsiIHdpZHRoPSI5MiIgeD0iMjc5IiB5PSI5Ny44NDM4Ii8+PHRleHQgZmlsbD0iIzAwMDAwMCIgZm9udC1mYW1pbHk9InNhbnMtc2VyaWYiIGZvbnQtc2l6ZT0iMTIiIGxlbmd0aEFkanVzdD0ic3BhY2luZyIgdGV4dExlbmd0aD0iNzIiIHg9IjI4OSIgeT0iMTE5LjE4NzUiPiYjMzI0ODc7JiMzMjQ5MzsmIzIxNDQyOyYjMzUyNjY7JiMyMDg0NDsmIzIzNTA3OzwvdGV4dD48cG9seWdvbiBmaWxsPSIjRjFGMUYxIiBwb2ludHM9IjIxNSwzNDguMDYyNSwyMjcsMzYwLjA2MjUsMjE1LDM3Mi4wNjI1LDIwMywzNjAuMDYyNSwyMTUsMzQ4LjA2MjUiIHN0eWxlPSJzdHJva2U6IzE4MTgxODtzdHJva2Utd2lkdGg6MC41OyIvPjxyZWN0IGZpbGw9IiNGMUYxRjEiIGhlaWdodD0iMzIuODQzOCIgcng9IjEyLjUiIHJ5PSIxMi41IiBzdHlsZT0ic3Ryb2tlOiMxODE4MTg7c3Ryb2tlLXdpZHRoOjAuNTsiIHdpZHRoPSIxNzYiIHg9IjEyNyIgeT0iMzkyLjA2MjUiLz48dGV4dCBmaWxsPSIjMDAwMDAwIiBmb250LWZhbWlseT0ic2Fucy1zZXJpZiIgZm9udC1zaXplPSIxMiIgbGVuZ3RoQWRqdXN0PSJzcGFjaW5nIiB0ZXh0TGVuZ3RoPSIxNTYiIHg9IjEzNyIgeT0iNDEzLjQwNjMiPiYjMjE0NDI7JiMzNTI2NjsmIzIwNTgxOyYjMzY1MjM7JiMyMTMwNjsmIzY1MjkyOyYjMzU3NDU7JiMyMTAxMDsmIzI0NDI1OyYjMzQ0MjU7JiMzNjgxNjsmIzIxMTYwOyYjMjAyNTA7PC90ZXh0PjxyZWN0IGZpbGw9IiNGMUYxRjEiIGhlaWdodD0iMzIuODQzOCIgcng9IjEyLjUiIHJ5PSIxMi41IiBzdHlsZT0ic3Ryb2tlOiMxODE4MTg7c3Ryb2tlLXdpZHRoOjAuNTsiIHdpZHRoPSIxMjgiIHg9IjE1MSIgeT0iNDQ0LjkwNjMiLz48dGV4dCBmaWxsPSIjMDAwMDAwIiBmb250LWZhbWlseT0ic2Fucy1zZXJpZiIgZm9udC1zaXplPSIxMiIgbGVuZ3RoQWRqdXN0PSJzcGFjaW5nIiB0ZXh0TGVuZ3RoPSIxMDgiIHg9IjE2MSIgeT0iNDY2LjI1Ij4mIzM2OTM1OyYjMzUyNjU7JiMyOTU3OTsmIzI4MDA5OyYjMjQxODI7JiMyMTU0ODsmIzIxNDYyOyYjMjQzMTQ7JiMzNTc1ODs8L3RleHQ+PHJlY3QgZmlsbD0iI0YxRjFGMSIgaGVpZ2h0PSIzMi44NDM4IiByeD0iMTIuNSIgcnk9IjEyLjUiIHN0eWxlPSJzdHJva2U6IzE4MTgxODtzdHJva2Utd2lkdGg6MC41OyIgd2lkdGg9IjIxMSIgeD0iMTA5LjUiIHk9IjQ5Ny43NSIvPjx0ZXh0IGZpbGw9IiMwMDAwMDAiIGZvbnQtZmFtaWx5PSJzYW5zLXNlcmlmIiBmb250LXNpemU9IjEyIiBsZW5ndGhBZGp1c3Q9InNwYWNpbmciIHRleHRMZW5ndGg9IjE5MSIgeD0iMTE5LjUiIHk9IjUxOS4wOTM4Ij4mIzIxNDQyOyYjMzUyNjY7JiMyNDAzNzsmIzIwMzE2OyYjMjM0NjA7JiM2NTI5MjsmIzI0ODE5OyYjMjEwNDA7JiMyMDAzMDsmIzIxMTUwO2Nvc3BsYXkmIzI3OTYzOyYjMjExNjA7PC90ZXh0PjxyZWN0IGZpbGw9IiNGMUYxRjEiIGhlaWdodD0iMzIuODQzOCIgcng9IjEyLjUiIHJ5PSIxMi41IiBzdHlsZT0ic3Ryb2tlOiMxODE4MTg7c3Ryb2tlLXdpZHRoOjAuNTsiIHdpZHRoPSI5MiIgeD0iMTY5IiB5PSI1NTAuNTkzOCIvPjx0ZXh0IGZpbGw9IiMwMDAwMDAiIGZvbnQtZmFtaWx5PSJzYW5zLXNlcmlmIiBmb250LXNpemU9IjEyIiBsZW5ndGhBZGp1c3Q9InNwYWNpbmciIHRleHRMZW5ndGg9IjcyIiB4PSIxNzkiIHk9IjU3MS45Mzc1Ij4mIzIxNDQyOyYjMzUyNjY7JiMyMDg0NDsmIzIwODQ5OyYjMjE0MTY7JiMyNTE1MTs8L3RleHQ+PHJlY3QgZmlsbD0iI0YxRjFGMSIgaGVpZ2h0PSIzMi44NDM4IiByeD0iMTIuNSIgcnk9IjEyLjUiIHN0eWxlPSJzdHJva2U6IzE4MTgxODtzdHJva2Utd2lkdGg6MC41OyIgd2lkdGg9IjE1MiIgeD0iMTM5IiB5PSI2MDMuNDM3NSIvPjx0ZXh0IGZpbGw9IiMwMDAwMDAiIGZvbnQtZmFtaWx5PSJzYW5zLXNlcmlmIiBmb250LXNpemU9IjEyIiBsZW5ndGhBZGp1c3Q9InNwYWNpbmciIHRleHRMZW5ndGg9IjEzMiIgeD0iMTQ5IiB5PSI2MjQuNzgxMyI+JiMyMTUyMTsmIzI0MzUyOyYjMjgwNTk7JiMzNTgxMDsmIzM4MzgyOyYjMzU4NDM7JiMzNzIwMjsmIzI3NjA0OyYjMzYxODc7JiMyNDMxNDsmIzM1NzU4OzwvdGV4dD48cmVjdCBmaWxsPSIjRjFGMUYxIiBoZWlnaHQ9IjMyLjg0MzgiIHJ4PSIxMi41IiByeT0iMTIuNSIgc3R5bGU9InN0cm9rZTojMTgxODE4O3N0cm9rZS13aWR0aDowLjU7IiB3aWR0aD0iMTQwIiB4PSIxNDUiIHk9IjY1Ni4yODEzIi8+PHRleHQgZmlsbD0iIzAwMDAwMCIgZm9udC1mYW1pbHk9InNhbnMtc2VyaWYiIGZvbnQtc2l6ZT0iMTIiIGxlbmd0aEFkanVzdD0ic3BhY2luZyIgdGV4dExlbmd0aD0iMTIwIiB4PSIxNTUiIHk9IjY3Ny42MjUiPiYjMzU3NTI7JiMzNTc3MDsmIzIyMzEyOyYjMjE0MTY7JiMyNTE1MTsmIzIwMDMwOyYjMjExNTA7JiMyMDA0MTsmIzIxMzM0OyYjMjAyNTA7PC90ZXh0PjxyZWN0IGZpbGw9IiNGMUYxRjEiIGhlaWdodD0iMzIuODQzOCIgcng9IjEyLjUiIHJ5PSIxMi41IiBzdHlsZT0ic3Ryb2tlOiMxODE4MTg7c3Ryb2tlLXdpZHRoOjAuNTsiIHdpZHRoPSIyMTIiIHg9IjEwOSIgeT0iNzA5LjEyNSIvPjx0ZXh0IGZpbGw9IiMwMDAwMDAiIGZvbnQtZmFtaWx5PSJzYW5zLXNlcmlmIiBmb250LXNpemU9IjEyIiBsZW5ndGhBZGp1c3Q9InNwYWNpbmciIHRleHRMZW5ndGg9IjE5MiIgeD0iMTE5IiB5PSI3MzAuNDY4OCI+JiMyMDg3NzsmIzI3NDI1OyYjMjUzMDg7JiMzNTc3NTsmIzI0MzUyOyYjMjgwNTk7JiM2NTI5MjsmIzIwMjk0OyYjMjQzNTI7JiMyODA1OTsmIzI0NTM3OyYjMzA4NjA7JiMyNjA4MDsmIzI3ODYxOyYjMjAxMzI7JiMzNTg0ODs8L3RleHQ+PHJlY3QgZmlsbD0iI0YxRjFGMSIgaGVpZ2h0PSIzMi44NDM4IiByeD0iMTIuNSIgcnk9IjEyLjUiIHN0eWxlPSJzdHJva2U6IzE4MTgxODtzdHJva2Utd2lkdGg6MC41OyIgd2lkdGg9IjIzNiIgeD0iOTciIHk9Ijc2MS45Njg4Ii8+PHRleHQgZmlsbD0iIzAwMDAwMCIgZm9udC1mYW1pbHk9InNhbnMtc2VyaWYiIGZvbnQtc2l6ZT0iMTIiIGxlbmd0aEFkanVzdD0ic3BhY2luZyIgdGV4dExlbmd0aD0iMjE2IiB4PSIxMDciIHk9Ijc4My4zMTI1Ij4mIzIxNDQyOyYjMzUyNjY7JiMyODIxNjsmIzI3ODkxOyYjMjc3NDQ7JiM2NTI5MjsmIzMyNzcxOyYjMzQzODU7JiMyMDMxNjsmIzIwMDI2OyYjMjQ0MjU7JiMzNDQyNTsmIzM2ODE2OyYjMjExNjA7JiMyMDI1MDsmIzIwOTk4OyYjMjAyNTA7JiMyMjMzMDs8L3RleHQ+PHBvbHlnb24gZmlsbD0iI0YxRjFGMSIgcG9pbnRzPSIxNjAsODE0LjgxMjUsMjcwLDgxNC44MTI1LDI4Miw4MjYuODEyNSwyNzAsODM4LjgxMjUsMTYwLDgzOC44MTI1LDE0OCw4MjYuODEyNSwxNjAsODE0LjgxMjUiIHN0eWxlPSJzdHJva2U6IzE4MTgxODtzdHJva2Utd2lkdGg6MC41OyIvPjx0ZXh0IGZpbGw9IiMwMDAwMDAiIGZvbnQtZmFtaWx5PSJzYW5zLXNlcmlmIiBmb250LXNpemU9IjExIiBsZW5ndGhBZGp1c3Q9InNwYWNpbmciIHRleHRMZW5ndGg9IjExMCIgeD0iMTYwIiB5PSI4MzEuMzI0MiI+JiMzMDg5NjsmIzIxMDQwOyYjMzYyMTM7JiMyMjgyNTsmIzIzNDMxOyYjMjQxODI7JiMzNjk5MjsmIzM1ODMxOyYjMjgyMTY7JiMyNzg5MTs8L3RleHQ+PHRleHQgZmlsbD0iIzAwMDAwMCIgZm9udC1mYW1pbHk9InNhbnMtc2VyaWYiIGZvbnQtc2l6ZT0iMTEiIGxlbmd0aEFkanVzdD0ic3BhY2luZyIgdGV4dExlbmd0aD0iMzMiIHg9IjExNSIgeT0iODI1LjQzNzUiPiYjMzE1NzI7JiMyNDIxMjsmIzIwMTAyOzwvdGV4dD48dGV4dCBmaWxsPSIjMDAwMDAwIiBmb250LWZhbWlseT0ic2Fucy1zZXJpZiIgZm9udC1zaXplPSIxMSIgbGVuZ3RoQWRqdXN0PSJzcGFjaW5nIiB0ZXh0TGVuZ3RoPSI1NSIgeD0iMjgyIiB5PSI4MjUuNDM3NSI+JiMyMDE3MDsmIzIyODI1OyYjMjYzNzc7JiMyODg1NzsmIzMyMDQ3OzwvdGV4dD48cmVjdCBmaWxsPSIjRjFGMUYxIiBoZWlnaHQ9IjMyLjg0MzgiIHJ4PSIxMi41IiByeT0iMTIuNSIgc3R5bGU9InN0cm9rZTojMTgxODE4O3N0cm9rZS13aWR0aDowLjU7IiB3aWR0aD0iMjEyIiB4PSIxNyIgeT0iODQ4LjgxMjUiLz48dGV4dCBmaWxsPSIjMDAwMDAwIiBmb250LWZhbWlseT0ic2Fucy1zZXJpZiIgZm9udC1zaXplPSIxMiIgbGVuZ3RoQWRqdXN0PSJzcGFjaW5nIiB0ZXh0TGVuZ3RoPSIxOTIiIHg9IjI3IiB5PSI4NzAuMTU2MyI+JiMyNjIwMjsmIzE5OTc4OyYjMjY0Njk7JiMyMTA0MDsmIzI3ODkxOyYjMjc3NDQ7JiMxOTk4MjsmIzM2MjEzOyYjMjI4MjU7JiMyMzQzMTsmIzIxNjQ0OyYjMjYzNzk7JiMyMTQ1MTsmIzIwMjA0OyYjMjgyMTY7JiMyNzg5MTs8L3RleHQ+PHJlY3QgZmlsbD0iI0YxRjFGMSIgaGVpZ2h0PSIzMi44NDM4IiByeD0iMTIuNSIgcnk9IjEyLjUiIHN0eWxlPSJzdHJva2U6IzE4MTgxODtzdHJva2Utd2lkdGg6MC41OyIgd2lkdGg9IjE3NiIgeD0iMzUiIHk9IjkwMS42NTYzIi8+PHRleHQgZmlsbD0iIzAwMDAwMCIgZm9udC1mYW1pbHk9InNhbnMtc2VyaWYiIGZvbnQtc2l6ZT0iMTIiIGxlbmd0aEFkanVzdD0ic3BhY2luZyIgdGV4dExlbmd0aD0iMTU2IiB4PSI0NSIgeT0iOTIzIj4mIzM1MjY2OyYjMjM1MTk7JiMzNjIxMzsmIzIyODI1OyYjMjM0MzE7JiMyMTY0NDsmIzI2Mzc5OyYjMjE0NTE7JiMzMDM0MDsmIzIwMTQ2OyYjMjYxNjU7JiMzNDg5MjsmIzIwMDI2OzwvdGV4dD48cmVjdCBmaWxsPSIjRjFGMUYxIiBoZWlnaHQ9IjMyLjg0MzgiIHJ4PSIxMi41IiByeT0iMTIuNSIgc3R5bGU9InN0cm9rZTojMTgxODE4O3N0cm9rZS13aWR0aDowLjU7IiB3aWR0aD0iMTI4IiB4PSI1OSIgeT0iOTU0LjUiLz48dGV4dCBmaWxsPSIjMDAwMDAwIiBmb250LWZhbWlseT0ic2Fucy1zZXJpZiIgZm9udC1zaXplPSIxMiIgbGVuZ3RoQWRqdXN0PSJzcGFjaW5nIiB0ZXh0TGVuZ3RoPSIxMDgiIHg9IjY5IiB5PSI5NzUuODQzOCI+JiMzNTg0ODsmIzM1NzcwOyYjMTk5ODI7JiMyNjM3OTsmIzIxNDUxOyYjMjQzMjA7JiMyNTkxODsmIzI5NjA5OyYjMjc4NjE7PC90ZXh0PjxyZWN0IGZpbGw9IiNGMUYxRjEiIGhlaWdodD0iMzIuODQzOCIgcng9IjEyLjUiIHJ5PSIxMi41IiBzdHlsZT0ic3Ryb2tlOiMxODE4MTg7c3Ryb2tlLXdpZHRoOjAuNTsiIHdpZHRoPSIxMTYiIHg9IjY1IiB5PSIxMDA3LjM0MzgiLz48dGV4dCBmaWxsPSIjMDAwMDAwIiBmb250LWZhbWlseT0ic2Fucy1zZXJpZiIgZm9udC1zaXplPSIxMiIgbGVuZ3RoQWRqdXN0PSJzcGFjaW5nIiB0ZXh0TGVuZ3RoPSI5NiIgeD0iNzUiIHk9IjEwMjguNjg3NSI+JiMyNTI5ODsmIzMyNDc3OyYjMjE0NDI7JiMxOTk4MjsmIzI2Mjc5OyYjMjYxNTE7JiMyODIxNjsmIzI1MTAzOzwvdGV4dD48cmVjdCBmaWxsPSIjRjFGMUYxIiBoZWlnaHQ9IjMyLjg0MzgiIHJ4PSIxMi41IiByeT0iMTIuNSIgc3R5bGU9InN0cm9rZTojMTgxODE4O3N0cm9rZS13aWR0aDowLjU7IiB3aWR0aD0iMTI4IiB4PSI1OSIgeT0iMTA2MC4xODc1Ii8+PHRleHQgZmlsbD0iIzAwMDAwMCIgZm9udC1mYW1pbHk9InNhbnMtc2VyaWYiIGZvbnQtc2l6ZT0iMTIiIGxlbmd0aEFkanVzdD0ic3BhY2luZyIgdGV4dExlbmd0aD0iMTA4IiB4PSI2OSIgeT0iMTA4MS41MzEzIj4mIzM1MjY2OyYjMjM1MTk7JiMyMDE4MjsmIzIwMjA0OyYjMzAzNDA7JiMyNjI3OTsmIzI2MTUxOyYjMjk2MDk7JiMzMjc4MTs8L3RleHQ+PHJlY3QgZmlsbD0iI0YxRjFGMSIgaGVpZ2h0PSIzMi44NDM4IiByeD0iMTIuNSIgcnk9IjEyLjUiIHN0eWxlPSJzdHJva2U6IzE4MTgxODtzdHJva2Utd2lkdGg6MC41OyIgd2lkdGg9IjgzIiB4PSI4MS41IiB5PSIxMTEzLjAzMTMiLz48dGV4dCBmaWxsPSIjMDAwMDAwIiBmb250LWZhbWlseT0ic2Fucy1zZXJpZiIgZm9udC1zaXplPSIxMiIgbGVuZ3RoQWRqdXN0PSJzcGFjaW5nIiB0ZXh0TGVuZ3RoPSI2MyIgeD0iOTEuNSIgeT0iMTEzNC4zNzUiPiYjMjIzMTI7JiMxOTk2ODsmIzI2MDQ5O3NvbG88L3RleHQ+PHJlY3QgZmlsbD0iI0YxRjFGMSIgaGVpZ2h0PSIzMi44NDM4IiByeD0iMTIuNSIgcnk9IjEyLjUiIHN0eWxlPSJzdHJva2U6IzE4MTgxODtzdHJva2Utd2lkdGg6MC41OyIgd2lkdGg9IjExNiIgeD0iMjQ5IiB5PSI4NDguODEyNSIvPjx0ZXh0IGZpbGw9IiMwMDAwMDAiIGZvbnQtZmFtaWx5PSJzYW5zLXNlcmlmIiBmb250LXNpemU9IjEyIiBsZW5ndGhBZGp1c3Q9InNwYWNpbmciIHRleHRMZW5ndGg9Ijk2IiB4PSIyNTkiIHk9Ijg3MC4xNTYzIj4mIzI2MjAyOyYjMTk5Nzg7JiMyMjIzODsmIzIxMDQwOyYjMjUxNTE7JiMzODM4ODsmIzIwMjQxOyYjMjQ2ODc7PC90ZXh0Pjxwb2x5Z29uIGZpbGw9IiNGMUYxRjEiIHBvaW50cz0iMjE1LDExNTEuODc1LDIyNywxMTYzLjg3NSwyMTUsMTE3NS44NzUsMjAzLDExNjMuODc1LDIxNSwxMTUxLjg3NSIgc3R5bGU9InN0cm9rZTojMTgxODE4O3N0cm9rZS13aWR0aDowLjU7Ii8+PHJlY3QgZmlsbD0iI0YxRjFGMSIgaGVpZ2h0PSIzMi44NDM4IiByeD0iMTIuNSIgcnk9IjEyLjUiIHN0eWxlPSJzdHJva2U6IzE4MTgxODtzdHJva2Utd2lkdGg6MC41OyIgd2lkdGg9IjEyOCIgeD0iMTUxIiB5PSIxMTk1Ljg3NSIvPjx0ZXh0IGZpbGw9IiMwMDAwMDAiIGZvbnQtZmFtaWx5PSJzYW5zLXNlcmlmIiBmb250LXNpemU9IjEyIiBsZW5ndGhBZGp1c3Q9InNwYWNpbmciIHRleHRMZW5ndGg9IjEwOCIgeD0iMTYxIiB5PSIxMjE3LjIxODgiPiYjMjIzMTI7JiMzODQ1MTsmIzIxNDg4OyYjMjY4MDM7JiMyOTcwMjsmIzI3OTYzOyYjMjExNjA7JiMzNTc0NTsmIzIxMDEwOzwvdGV4dD48cmVjdCBmaWxsPSIjRjFGMUYxIiBoZWlnaHQ9IjMyLjg0MzgiIHJ4PSIxMi41IiByeT0iMTIuNSIgc3R5bGU9InN0cm9rZTojMTgxODE4O3N0cm9rZS13aWR0aDowLjU7IiB3aWR0aD0iMTUyIiB4PSIxMzkiIHk9IjEyNDguNzE4OCIvPjx0ZXh0IGZpbGw9IiMwMDAwMDAiIGZvbnQtZmFtaWx5PSJzYW5zLXNlcmlmIiBmb250LXNpemU9IjEyIiBsZW5ndGhBZGp1c3Q9InNwYWNpbmciIHRleHRMZW5ndGg9IjEzMiIgeD0iMTQ5IiB5PSIxMjcwLjA2MjUiPiYjMjE0NTc7JiMyOTYxNjsmIzI2Mzk1OyYjMzY4Mjg7JiMzODIzNjsmIzI0MTgyOyYjMjE1MjE7JiMyMzQ2MDsmIzIxNDUxOyYjMzU4MTA7JiMzODM4Mjs8L3RleHQ+PHJlY3QgZmlsbD0iI0YxRjFGMSIgaGVpZ2h0PSIzMi44NDM4IiByeD0iMTIuNSIgcnk9IjEyLjUiIHN0eWxlPSJzdHJva2U6IzE4MTgxODtzdHJva2Utd2lkdGg6MC41OyIgd2lkdGg9IjE1MiIgeD0iMTM5IiB5PSIxMzAxLjU2MjUiLz48dGV4dCBmaWxsPSIjMDAwMDAwIiBmb250LWZhbWlseT0ic2Fucy1zZXJpZiIgZm9udC1zaXplPSIxMiIgbGVuZ3RoQWRqdXN0PSJzcGFjaW5nIiB0ZXh0TGVuZ3RoPSIxMzIiIHg9IjE0OSIgeT0iMTMyMi45MDYzIj4mIzM4NDA1OyYjMzU4MzU7JiMyMzQ2MDsmIzIxNDUxOyYjMjE0NTc7JiMyNjQ2OTsmIzMwMzQwOyYjMjM0MzM7JiMzNTAxMzsmIzM1ODI4OyYjMjYxMjY7PC90ZXh0PjxyZWN0IGZpbGw9IiNGMUYxRjEiIGhlaWdodD0iMzIuODQzOCIgcng9IjEyLjUiIHJ5PSIxMi41IiBzdHlsZT0ic3Ryb2tlOiMxODE4MTg7c3Ryb2tlLXdpZHRoOjAuNTsiIHdpZHRoPSIxOTEiIHg9IjExOS41IiB5PSIxMzU0LjQwNjMiLz48dGV4dCBmaWxsPSIjMDAwMDAwIiBmb250LWZhbWlseT0ic2Fucy1zZXJpZiIgZm9udC1zaXplPSIxMiIgbGVuZ3RoQWRqdXN0PSJzcGFjaW5nIiB0ZXh0TGVuZ3RoPSIxNzEiIHg9IjEyOS41IiB5PSIxMzc1Ljc1Ij4mIzMyNzYzOyYjMjQzMjA7JiMyNTUxMjsmIzY1MjkyOyYjMjQzMjA7JiMyMjk4Nztzb2xvJiMyMDA0MzsmIzI2MDUzOyYjMjU5MTg7JiMyNjQ5NDsmIzI0NTE1OyYjMjQ3NzM7PC90ZXh0PjxsaW5lIHN0eWxlPSJzdHJva2U6IzE4MTgxODtzdHJva2Utd2lkdGg6MS4wOyIgeDE9IjEwNSIgeDI9IjEwNSIgeTE9IjEzMC42ODc1IiB5Mj0iMTUwLjY4NzUiLz48cG9seWdvbiBmaWxsPSIjMTgxODE4IiBwb2ludHM9IjEwMSwxNDAuNjg3NSwxMDUsMTUwLjY4NzUsMTA5LDE0MC42ODc1LDEwNSwxNDQuNjg3NSIgc3R5bGU9InN0cm9rZTojMTgxODE4O3N0cm9rZS13aWR0aDoxLjA7Ii8+PGxpbmUgc3R5bGU9InN0cm9rZTojMTgxODE4O3N0cm9rZS13aWR0aDoxLjA7IiB4MT0iMTA1IiB4Mj0iMTA1IiB5MT0iMTgzLjUzMTMiIHkyPSIyMDMuNTMxMyIvPjxwb2x5Z29uIGZpbGw9IiMxODE4MTgiIHBvaW50cz0iMTAxLDE5My41MzEzLDEwNSwyMDMuNTMxMywxMDksMTkzLjUzMTMsMTA1LDE5Ny41MzEzIiBzdHlsZT0ic3Ryb2tlOiMxODE4MTg7c3Ryb2tlLXdpZHRoOjEuMDsiLz48bGluZSBzdHlsZT0ic3Ryb2tlOiMxODE4MTg7c3Ryb2tlLXdpZHRoOjEuMDsiIHgxPSIxMDUiIHgyPSIxMDUiIHkxPSIyMzYuMzc1IiB5Mj0iMjU2LjM3NSIvPjxwb2x5Z29uIGZpbGw9IiMxODE4MTgiIHBvaW50cz0iMTAxLDI0Ni4zNzUsMTA1LDI1Ni4zNzUsMTA5LDI0Ni4zNzUsMTA1LDI1MC4zNzUiIHN0eWxlPSJzdHJva2U6IzE4MTgxODtzdHJva2Utd2lkdGg6MS4wOyIvPjxsaW5lIHN0eWxlPSJzdHJva2U6IzE4MTgxODtzdHJva2Utd2lkdGg6MS4wOyIgeDE9IjEwNSIgeDI9IjEwNSIgeTE9IjI4OS4yMTg4IiB5Mj0iMzA5LjIxODgiLz48cG9seWdvbiBmaWxsPSIjMTgxODE4IiBwb2ludHM9IjEwMSwyOTkuMjE4OCwxMDUsMzA5LjIxODgsMTA5LDI5OS4yMTg4LDEwNSwzMDMuMjE4OCIgc3R5bGU9InN0cm9rZTojMTgxODE4O3N0cm9rZS13aWR0aDoxLjA7Ii8+PGxpbmUgc3R5bGU9InN0cm9rZTojMTgxODE4O3N0cm9rZS13aWR0aDoxLjA7IiB4MT0iMTE1IiB4Mj0iMTA1IiB5MT0iNzUuODQzOCIgeTI9Ijc1Ljg0MzgiLz48bGluZSBzdHlsZT0ic3Ryb2tlOiMxODE4MTg7c3Ryb2tlLXdpZHRoOjEuMDsiIHgxPSIxMDUiIHgyPSIxMDUiIHkxPSI3NS44NDM4IiB5Mj0iOTcuODQzOCIvPjxwb2x5Z29uIGZpbGw9IiMxODE4MTgiIHBvaW50cz0iMTAxLDg3Ljg0MzgsMTA1LDk3Ljg0MzgsMTA5LDg3Ljg0MzgsMTA1LDkxLjg0MzgiIHN0eWxlPSJzdHJva2U6IzE4MTgxODtzdHJva2Utd2lkdGg6MS4wOyIvPjxsaW5lIHN0eWxlPSJzdHJva2U6IzE4MTgxODtzdHJva2Utd2lkdGg6MS4wOyIgeDE9IjMxNSIgeDI9IjMyNSIgeTE9Ijc1Ljg0MzgiIHkyPSI3NS44NDM4Ii8+PGxpbmUgc3R5bGU9InN0cm9rZTojMTgxODE4O3N0cm9rZS13aWR0aDoxLjA7IiB4MT0iMzI1IiB4Mj0iMzI1IiB5MT0iNzUuODQzOCIgeTI9Ijk3Ljg0MzgiLz48cG9seWdvbiBmaWxsPSIjMTgxODE4IiBwb2ludHM9IjMyMSw4Ny44NDM4LDMyNSw5Ny44NDM4LDMyOSw4Ny44NDM4LDMyNSw5MS44NDM4IiBzdHlsZT0ic3Ryb2tlOiMxODE4MTg7c3Ryb2tlLXdpZHRoOjEuMDsiLz48bGluZSBzdHlsZT0ic3Ryb2tlOiMxODE4MTg7c3Ryb2tlLXdpZHRoOjEuMDsiIHgxPSIxMDUiIHgyPSIxMDUiIHkxPSIzNDIuMDYyNSIgeTI9IjM2MC4wNjI1Ii8+PGxpbmUgc3R5bGU9InN0cm9rZTojMTgxODE4O3N0cm9rZS13aWR0aDoxLjA7IiB4MT0iMTA1IiB4Mj0iMjAzIiB5MT0iMzYwLjA2MjUiIHkyPSIzNjAuMDYyNSIvPjxwb2x5Z29uIGZpbGw9IiMxODE4MTgiIHBvaW50cz0iMTkzLDM1Ni4wNjI1LDIwMywzNjAuMDYyNSwxOTMsMzY0LjA2MjUsMTk3LDM2MC4wNjI1IiBzdHlsZT0ic3Ryb2tlOiMxODE4MTg7c3Ryb2tlLXdpZHRoOjEuMDsiLz48bGluZSBzdHlsZT0ic3Ryb2tlOiMxODE4MTg7c3Ryb2tlLXdpZHRoOjEuMDsiIHgxPSIzMjUiIHgyPSIzMjUiIHkxPSIxMzAuNjg3NSIgeTI9IjM2MC4wNjI1Ii8+PGxpbmUgc3R5bGU9InN0cm9rZTojMTgxODE4O3N0cm9rZS13aWR0aDoxLjA7IiB4MT0iMzI1IiB4Mj0iMjI3IiB5MT0iMzYwLjA2MjUiIHkyPSIzNjAuMDYyNSIvPjxwb2x5Z29uIGZpbGw9IiMxODE4MTgiIHBvaW50cz0iMjM3LDM1Ni4wNjI1LDIyNywzNjAuMDYyNSwyMzcsMzY0LjA2MjUsMjMzLDM2MC4wNjI1IiBzdHlsZT0ic3Ryb2tlOiMxODE4MTg7c3Ryb2tlLXdpZHRoOjEuMDsiLz48bGluZSBzdHlsZT0ic3Ryb2tlOiMxODE4MTg7c3Ryb2tlLXdpZHRoOjEuMDsiIHgxPSIyMTUiIHgyPSIyMTUiIHkxPSI0My44NDM4IiB5Mj0iNjMuODQzOCIvPjxwb2x5Z29uIGZpbGw9IiMxODE4MTgiIHBvaW50cz0iMjExLDUzLjg0MzgsMjE1LDYzLjg0MzgsMjE5LDUzLjg0MzgsMjE1LDU3Ljg0MzgiIHN0eWxlPSJzdHJva2U6IzE4MTgxODtzdHJva2Utd2lkdGg6MS4wOyIvPjxsaW5lIHN0eWxlPSJzdHJva2U6IzE4MTgxODtzdHJva2Utd2lkdGg6MS4wOyIgeDE9IjIxNSIgeDI9IjIxNSIgeTE9IjM3Mi4wNjI1IiB5Mj0iMzkyLjA2MjUiLz48cG9seWdvbiBmaWxsPSIjMTgxODE4IiBwb2ludHM9IjIxMSwzODIuMDYyNSwyMTUsMzkyLjA2MjUsMjE5LDM4Mi4wNjI1LDIxNSwzODYuMDYyNSIgc3R5bGU9InN0cm9rZTojMTgxODE4O3N0cm9rZS13aWR0aDoxLjA7Ii8+PGxpbmUgc3R5bGU9InN0cm9rZTojMTgxODE4O3N0cm9rZS13aWR0aDoxLjA7IiB4MT0iMjE1IiB4Mj0iMjE1IiB5MT0iNDI0LjkwNjMiIHkyPSI0NDQuOTA2MyIvPjxwb2x5Z29uIGZpbGw9IiMxODE4MTgiIHBvaW50cz0iMjExLDQzNC45MDYzLDIxNSw0NDQuOTA2MywyMTksNDM0LjkwNjMsMjE1LDQzOC45MDYzIiBzdHlsZT0ic3Ryb2tlOiMxODE4MTg7c3Ryb2tlLXdpZHRoOjEuMDsiLz48bGluZSBzdHlsZT0ic3Ryb2tlOiMxODE4MTg7c3Ryb2tlLXdpZHRoOjEuMDsiIHgxPSIyMTUiIHgyPSIyMTUiIHkxPSI0NzcuNzUiIHkyPSI0OTcuNzUiLz48cG9seWdvbiBmaWxsPSIjMTgxODE4IiBwb2ludHM9IjIxMSw0ODcuNzUsMjE1LDQ5Ny43NSwyMTksNDg3Ljc1LDIxNSw0OTEuNzUiIHN0eWxlPSJzdHJva2U6IzE4MTgxODtzdHJva2Utd2lkdGg6MS4wOyIvPjxsaW5lIHN0eWxlPSJzdHJva2U6IzE4MTgxODtzdHJva2Utd2lkdGg6MS4wOyIgeDE9IjIxNSIgeDI9IjIxNSIgeTE9IjUzMC41OTM4IiB5Mj0iNTUwLjU5MzgiLz48cG9seWdvbiBmaWxsPSIjMTgxODE4IiBwb2ludHM9IjIxMSw1NDAuNTkzOCwyMTUsNTUwLjU5MzgsMjE5LDU0MC41OTM4LDIxNSw1NDQuNTkzOCIgc3R5bGU9InN0cm9rZTojMTgxODE4O3N0cm9rZS13aWR0aDoxLjA7Ii8+PGxpbmUgc3R5bGU9InN0cm9rZTojMTgxODE4O3N0cm9rZS13aWR0aDoxLjA7IiB4MT0iMjE1IiB4Mj0iMjE1IiB5MT0iNTgzLjQzNzUiIHkyPSI2MDMuNDM3NSIvPjxwb2x5Z29uIGZpbGw9IiMxODE4MTgiIHBvaW50cz0iMjExLDU5My40Mzc1LDIxNSw2MDMuNDM3NSwyMTksNTkzLjQzNzUsMjE1LDU5Ny40Mzc1IiBzdHlsZT0ic3Ryb2tlOiMxODE4MTg7c3Ryb2tlLXdpZHRoOjEuMDsiLz48bGluZSBzdHlsZT0ic3Ryb2tlOiMxODE4MTg7c3Ryb2tlLXdpZHRoOjEuMDsiIHgxPSIyMTUiIHgyPSIyMTUiIHkxPSI2MzYuMjgxMyIgeTI9IjY1Ni4yODEzIi8+PHBvbHlnb24gZmlsbD0iIzE4MTgxOCIgcG9pbnRzPSIyMTEsNjQ2LjI4MTMsMjE1LDY1Ni4yODEzLDIxOSw2NDYuMjgxMywyMTUsNjUwLjI4MTMiIHN0eWxlPSJzdHJva2U6IzE4MTgxODtzdHJva2Utd2lkdGg6MS4wOyIvPjxsaW5lIHN0eWxlPSJzdHJva2U6IzE4MTgxODtzdHJva2Utd2lkdGg6MS4wOyIgeDE9IjIxNSIgeDI9IjIxNSIgeTE9IjY4OS4xMjUiIHkyPSI3MDkuMTI1Ii8+PHBvbHlnb24gZmlsbD0iIzE4MTgxOCIgcG9pbnRzPSIyMTEsNjk5LjEyNSwyMTUsNzA5LjEyNSwyMTksNjk5LjEyNSwyMTUsNzAzLjEyNSIgc3R5bGU9InN0cm9rZTojMTgxODE4O3N0cm9rZS13aWR0aDoxLjA7Ii8+PGxpbmUgc3R5bGU9InN0cm9rZTojMTgxODE4O3N0cm9rZS13aWR0aDoxLjA7IiB4MT0iMjE1IiB4Mj0iMjE1IiB5MT0iNzQxLjk2ODgiIHkyPSI3NjEuOTY4OCIvPjxwb2x5Z29uIGZpbGw9IiMxODE4MTgiIHBvaW50cz0iMjExLDc1MS45Njg4LDIxNSw3NjEuOTY4OCwyMTksNzUxLjk2ODgsMjE1LDc1NS45Njg4IiBzdHlsZT0ic3Ryb2tlOiMxODE4MTg7c3Ryb2tlLXdpZHRoOjEuMDsiLz48bGluZSBzdHlsZT0ic3Ryb2tlOiMxODE4MTg7c3Ryb2tlLXdpZHRoOjEuMDsiIHgxPSIxMjMiIHgyPSIxMjMiIHkxPSI4ODEuNjU2MyIgeTI9IjkwMS42NTYzIi8+PHBvbHlnb24gZmlsbD0iIzE4MTgxOCIgcG9pbnRzPSIxMTksODkxLjY1NjMsMTIzLDkwMS42NTYzLDEyNyw4OTEuNjU2MywxMjMsODk1LjY1NjMiIHN0eWxlPSJzdHJva2U6IzE4MTgxODtzdHJva2Utd2lkdGg6MS4wOyIvPjxsaW5lIHN0eWxlPSJzdHJva2U6IzE4MTgxODtzdHJva2Utd2lkdGg6MS4wOyIgeDE9IjEyMyIgeDI9IjEyMyIgeTE9IjkzNC41IiB5Mj0iOTU0LjUiLz48cG9seWdvbiBmaWxsPSIjMTgxODE4IiBwb2ludHM9IjExOSw5NDQuNSwxMjMsOTU0LjUsMTI3LDk0NC41LDEyMyw5NDguNSIgc3R5bGU9InN0cm9rZTojMTgxODE4O3N0cm9rZS13aWR0aDoxLjA7Ii8+PGxpbmUgc3R5bGU9InN0cm9rZTojMTgxODE4O3N0cm9rZS13aWR0aDoxLjA7IiB4MT0iMTIzIiB4Mj0iMTIzIiB5MT0iOTg3LjM0MzgiIHkyPSIxMDA3LjM0MzgiLz48cG9seWdvbiBmaWxsPSIjMTgxODE4IiBwb2ludHM9IjExOSw5OTcuMzQzOCwxMjMsMTAwNy4zNDM4LDEyNyw5OTcuMzQzOCwxMjMsMTAwMS4zNDM4IiBzdHlsZT0ic3Ryb2tlOiMxODE4MTg7c3Ryb2tlLXdpZHRoOjEuMDsiLz48bGluZSBzdHlsZT0ic3Ryb2tlOiMxODE4MTg7c3Ryb2tlLXdpZHRoOjEuMDsiIHgxPSIxMjMiIHgyPSIxMjMiIHkxPSIxMDQwLjE4NzUiIHkyPSIxMDYwLjE4NzUiLz48cG9seWdvbiBmaWxsPSIjMTgxODE4IiBwb2ludHM9IjExOSwxMDUwLjE4NzUsMTIzLDEwNjAuMTg3NSwxMjcsMTA1MC4xODc1LDEyMywxMDU0LjE4NzUiIHN0eWxlPSJzdHJva2U6IzE4MTgxODtzdHJva2Utd2lkdGg6MS4wOyIvPjxsaW5lIHN0eWxlPSJzdHJva2U6IzE4MTgxODtzdHJva2Utd2lkdGg6MS4wOyIgeDE9IjEyMyIgeDI9IjEyMyIgeTE9IjEwOTMuMDMxMyIgeTI9IjExMTMuMDMxMyIvPjxwb2x5Z29uIGZpbGw9IiMxODE4MTgiIHBvaW50cz0iMTE5LDExMDMuMDMxMywxMjMsMTExMy4wMzEzLDEyNywxMTAzLjAzMTMsMTIzLDExMDcuMDMxMyIgc3R5bGU9InN0cm9rZTojMTgxODE4O3N0cm9rZS13aWR0aDoxLjA7Ii8+PGxpbmUgc3R5bGU9InN0cm9rZTojMTgxODE4O3N0cm9rZS13aWR0aDoxLjA7IiB4MT0iMTQ4IiB4Mj0iMTIzIiB5MT0iODI2LjgxMjUiIHkyPSI4MjYuODEyNSIvPjxsaW5lIHN0eWxlPSJzdHJva2U6IzE4MTgxODtzdHJva2Utd2lkdGg6MS4wOyIgeDE9IjEyMyIgeDI9IjEyMyIgeTE9IjgyNi44MTI1IiB5Mj0iODQ4LjgxMjUiLz48cG9seWdvbiBmaWxsPSIjMTgxODE4IiBwb2ludHM9IjExOSw4MzguODEyNSwxMjMsODQ4LjgxMjUsMTI3LDgzOC44MTI1LDEyMyw4NDIuODEyNSIgc3R5bGU9InN0cm9rZTojMTgxODE4O3N0cm9rZS13aWR0aDoxLjA7Ii8+PGxpbmUgc3R5bGU9InN0cm9rZTojMTgxODE4O3N0cm9rZS13aWR0aDoxLjA7IiB4MT0iMjgyIiB4Mj0iMzA3IiB5MT0iODI2LjgxMjUiIHkyPSI4MjYuODEyNSIvPjxsaW5lIHN0eWxlPSJzdHJva2U6IzE4MTgxODtzdHJva2Utd2lkdGg6MS4wOyIgeDE9IjMwNyIgeDI9IjMwNyIgeTE9IjgyNi44MTI1IiB5Mj0iODQ4LjgxMjUiLz48cG9seWdvbiBmaWxsPSIjMTgxODE4IiBwb2ludHM9IjMwMyw4MzguODEyNSwzMDcsODQ4LjgxMjUsMzExLDgzOC44MTI1LDMwNyw4NDIuODEyNSIgc3R5bGU9InN0cm9rZTojMTgxODE4O3N0cm9rZS13aWR0aDoxLjA7Ii8+PGxpbmUgc3R5bGU9InN0cm9rZTojMTgxODE4O3N0cm9rZS13aWR0aDoxLjA7IiB4MT0iMTIzIiB4Mj0iMTIzIiB5MT0iMTE0NS44NzUiIHkyPSIxMTYzLjg3NSIvPjxsaW5lIHN0eWxlPSJzdHJva2U6IzE4MTgxODtzdHJva2Utd2lkdGg6MS4wOyIgeDE9IjEyMyIgeDI9IjIwMyIgeTE9IjExNjMuODc1IiB5Mj0iMTE2My44NzUiLz48cG9seWdvbiBmaWxsPSIjMTgxODE4IiBwb2ludHM9IjE5MywxMTU5Ljg3NSwyMDMsMTE2My44NzUsMTkzLDExNjcuODc1LDE5NywxMTYzLjg3NSIgc3R5bGU9InN0cm9rZTojMTgxODE4O3N0cm9rZS13aWR0aDoxLjA7Ii8+PGxpbmUgc3R5bGU9InN0cm9rZTojMTgxODE4O3N0cm9rZS13aWR0aDoxLjA7IiB4MT0iMzA3IiB4Mj0iMzA3IiB5MT0iODgxLjY1NjMiIHkyPSIxMTYzLjg3NSIvPjxsaW5lIHN0eWxlPSJzdHJva2U6IzE4MTgxODtzdHJva2Utd2lkdGg6MS4wOyIgeDE9IjMwNyIgeDI9IjIyNyIgeTE9IjExNjMuODc1IiB5Mj0iMTE2My44NzUiLz48cG9seWdvbiBmaWxsPSIjMTgxODE4IiBwb2ludHM9IjIzNywxMTU5Ljg3NSwyMjcsMTE2My44NzUsMjM3LDExNjcuODc1LDIzMywxMTYzLjg3NSIgc3R5bGU9InN0cm9rZTojMTgxODE4O3N0cm9rZS13aWR0aDoxLjA7Ii8+PGxpbmUgc3R5bGU9InN0cm9rZTojMTgxODE4O3N0cm9rZS13aWR0aDoxLjA7IiB4MT0iMjE1IiB4Mj0iMjE1IiB5MT0iNzk0LjgxMjUiIHkyPSI4MTQuODEyNSIvPjxwb2x5Z29uIGZpbGw9IiMxODE4MTgiIHBvaW50cz0iMjExLDgwNC44MTI1LDIxNSw4MTQuODEyNSwyMTksODA0LjgxMjUsMjE1LDgwOC44MTI1IiBzdHlsZT0ic3Ryb2tlOiMxODE4MTg7c3Ryb2tlLXdpZHRoOjEuMDsiLz48bGluZSBzdHlsZT0ic3Ryb2tlOiMxODE4MTg7c3Ryb2tlLXdpZHRoOjEuMDsiIHgxPSIyMTUiIHgyPSIyMTUiIHkxPSIxMTc1Ljg3NSIgeTI9IjExOTUuODc1Ii8+PHBvbHlnb24gZmlsbD0iIzE4MTgxOCIgcG9pbnRzPSIyMTEsMTE4NS44NzUsMjE1LDExOTUuODc1LDIxOSwxMTg1Ljg3NSwyMTUsMTE4OS44NzUiIHN0eWxlPSJzdHJva2U6IzE4MTgxODtzdHJva2Utd2lkdGg6MS4wOyIvPjxsaW5lIHN0eWxlPSJzdHJva2U6IzE4MTgxODtzdHJva2Utd2lkdGg6MS4wOyIgeDE9IjIxNSIgeDI9IjIxNSIgeTE9IjEyMjguNzE4OCIgeTI9IjEyNDguNzE4OCIvPjxwb2x5Z29uIGZpbGw9IiMxODE4MTgiIHBvaW50cz0iMjExLDEyMzguNzE4OCwyMTUsMTI0OC43MTg4LDIxOSwxMjM4LjcxODgsMjE1LDEyNDIuNzE4OCIgc3R5bGU9InN0cm9rZTojMTgxODE4O3N0cm9rZS13aWR0aDoxLjA7Ii8+PGxpbmUgc3R5bGU9InN0cm9rZTojMTgxODE4O3N0cm9rZS13aWR0aDoxLjA7IiB4MT0iMjE1IiB4Mj0iMjE1IiB5MT0iMTI4MS41NjI1IiB5Mj0iMTMwMS41NjI1Ii8+PHBvbHlnb24gZmlsbD0iIzE4MTgxOCIgcG9pbnRzPSIyMTEsMTI5MS41NjI1LDIxNSwxMzAxLjU2MjUsMjE5LDEyOTEuNTYyNSwyMTUsMTI5NS41NjI1IiBzdHlsZT0ic3Ryb2tlOiMxODE4MTg7c3Ryb2tlLXdpZHRoOjEuMDsiLz48bGluZSBzdHlsZT0ic3Ryb2tlOiMxODE4MTg7c3Ryb2tlLXdpZHRoOjEuMDsiIHgxPSIyMTUiIHgyPSIyMTUiIHkxPSIxMzM0LjQwNjMiIHkyPSIxMzU0LjQwNjMiLz48cG9seWdvbiBmaWxsPSIjMTgxODE4IiBwb2ludHM9IjIxMSwxMzQ0LjQwNjMsMjE1LDEzNTQuNDA2MywyMTksMTM0NC40MDYzLDIxNSwxMzQ4LjQwNjMiIHN0eWxlPSJzdHJva2U6IzE4MTgxODtzdHJva2Utd2lkdGg6MS4wOyIvPjwhLS1TUkM9W1BMRlJKamowNDd0ZEF0V2lscTItZmNmMUhLOUdZUnhxQkhTU2FaWG5CZUhTN0s5a2lnQzZFdjBCWmZ0V2R6Y1BOSl9yNXBnUkJRUVlhY0xQdXphcHZ2bXpTbXBiakIzSWVDdDBsTUxVNFlUUmpncllvZU1uMU9PNmN4SzhrczlHWEY1SU41VVphTzZUUFVCV3hGSm00b0p4UUZmSHF5NlVXVXRSZ0JOME4xV3Jic1pjeU5hV3RzUFVoNFV5U3VyY0lPb3FleUNWdHF1azNaeTlMeE9TN0htSkM2WUozd1NKMXlUTzZaQWxXRE13VTFkSktRQTB6VzNybGdmRzB2SWhsRHg3WmVLall3V25wX3pSREVSeVRZc1ZOT0tVb1RxVDRhNjktSlA1TUFGZWZXM1FXbGE2RGtSSGkxNkQtalloNDR0R2JpR3RTTjFvVmRMMnloR1N5cWZXMURwS2NQeWJsWm9tVUYzdWhyX0tVXzdyeDVHRXRuVEo0LTdfV2dCX1VyaUtwVzFvRFRYREhOaVptV2VLUkJSajQ5NGVUSUVpNTNUcU40czk4NUhjSzZ2MHUwbDdJU0d1Qm5Fc0N5NFA0bXZjNWYyUkMteUwybFRWQmctIC1kdF8tWVNrMHVEd3hZT2hzMThQRDFpZllmR2hSMXJudGJOT25wcUhRM1Rzd003TlpDU0FuWFVFM1FRakoyZnJqeWIxZ0E5UUdCVTZDRjNVNTRvZXFlaTlzTVZLRE9QaUZZelh5bUNLVHl5VFlkZWw5ZUVWWE9lNUYzekEyUDRRcWd3STRCa1kzNFAzQm9oVmZnb1pudVBuNFlqS0FuYkRtUmlZTkE5cUt4ZWoyVW1pRVZ3bzNOclR0V1VzRXA0WGxHa1ZLR0VPUHhtMnI4ZmV3YjdLTXAxSTY1NHJNa1Z0X1UtWmNjVi1DaExLUzlIOTR6WDJXUWUxajRra2x0OVlJTjFhYmxTUTM3aWNMM1ZpQ29YNnZTWm8yMUdzUUF0RV9fcWk3SFI4YTdKOWprTTNEckROYi1VTFJwNVhHODN3cTQzb3p1S2l0YldSVFVvYmpsbkRnOFRfM1BqZUtQMlpGU1JaV2JRb0FXeWZSbDBUZVRhTGVIZFZjRmNETG9YODlZUlNYUWNkMjNMSUgtaWI2Nk55ZEpyaWdqeERiSzB5RjBvZFNpRWFjd0dDaU5UOWM2bnNSNmpjMWxMUzhDdlpINGR5MF0tLT48L2c+PC9zdmc+;" parent="1" vertex="1">
            <mxGeometry x="56" y="1930" width="382" height="1398" as="geometry" />
          </mxCell>
        </UserObject>
        <UserObject label="" plantUmlData="{&quot;data&quot;:&quot;@startuml\n:开始新的一周并筹备周末party;\n:在一楼大厅为大家准备丰盛早餐;\n:向大家介绍即将到来的party;\n:请王强负责现场布置和设施维护;\n:讨论布置方案，确定主题和材料需求;\n:去李晓阳的日料店;\n:李晓阳请我帮他取食材清单;\n:回到公寓并进入李晓阳房间找清单;\n:无意间发现李晓阳的秘密日记本;\n:将食材清单交给李晓阳并请教食物和饮料建议;\n:李晓阳答应帮忙筹备party;\n:讨论彩虹运动会事宜并请王浩帮忙设计比赛项目;\nif (王浩说给我上一节免费拉伸课) then (答应了)\n:讨论彩虹运动会事宜;\n:王浩捏我的肌肉并评论;\n:王浩提议免费上一节拉伸课;\n:我接受并换上运动衣服;\n:在王浩指导下进行各种拉伸动作;\n:王浩纠正我的姿势并确保有效拉伸;\n:产生暧昧气氛;\n:互动变得越来越亲密;\n:王浩调侃我逗我开心;\n:期间暧昧不止;\nelse (没答应)\n:我离开了;\nendif\n:约定晚些时候在公寓再讨论细节;\n:去赵天宇的学校告知活动计划;\n:赵天宇答应晚上抽空协助王浩组织彩虹运动会;\n:去张涛的画室讨论cosplay活动筹备;\n:张涛答应晚上回公寓后帮忙设计服装和准备化妆用品;\nif (张涛邀请我作为模特给他画人体彩绘) then (我答应了)\n:张涛介绍人体彩绘艺术;\n:讲解作品创作背景和艺术特色;\n:详细解释人体彩绘技巧和特点;\n:观察模特身上的艺术与人体结合;\n:张涛邀请我尝试成为人体彩绘模特;\n:思考并决定接受提议;\n:在张涛指导下开始接受人体彩绘;\n:张涛用画笔在我的身上绘制图案;\n:感受画笔带来的酥麻感觉和痒痒感;\n:张涛要求我全裸以便进行绘画;\n:继续进行人体彩绘;\n:另一个模特观察我们;\n:张涛和我暧昧;\n:与另一个模特一起暧昧;\nelse (没答应)\n:我离开了;\nendif\n:晚上所有人回到公寓;\n:共同讨论活动细节安排;\n:确定各自安排并满意;\n:各自休息;\n@enduml&quot;,&quot;format&quot;:&quot;svg&quot;}" id="r1ljRUxPK0vmspmCGqQE-1">
          <mxCell style="shape=image;noLabel=1;verticalAlign=top;aspect=fixed;imageAspect=0;image=data:image/svg+xml,PD94bWwgdmVyc2lvbj0iMS4wIiBlbmNvZGluZz0idXMtYXNjaWkiIHN0YW5kYWxvbmU9Im5vIj8+PHN2ZyB4bWxucz0iaHR0cDovL3d3dy53My5vcmcvMjAwMC9zdmciIHhtbG5zOnhsaW5rPSJodHRwOi8vd3d3LnczLm9yZy8xOTk5L3hsaW5rIiBjb250ZW50U3R5bGVUeXBlPSJ0ZXh0L2NzcyIgaGVpZ2h0PSIyNTA3cHgiIHByZXNlcnZlQXNwZWN0UmF0aW89Im5vbmUiIHN0eWxlPSJ3aWR0aDozODBweDtoZWlnaHQ6MjUwN3B4O2JhY2tncm91bmQ6I0ZGRkZGRjsiIHZlcnNpb249IjEuMSIgdmlld0JveD0iMCAwIDM4MCAyNTA3IiB3aWR0aD0iMzgwcHgiIHpvb21BbmRQYW49Im1hZ25pZnkiPjxkZWZzLz48Zz48cmVjdCBmaWxsPSIjRjFGMUYxIiBoZWlnaHQ9IjMyLjg0MzgiIHJ4PSIxMi41IiByeT0iMTIuNSIgc3R5bGU9InN0cm9rZTojMTgxODE4O3N0cm9rZS13aWR0aDowLjU7IiB3aWR0aD0iMTg2IiB4PSIxMjgiIHk9IjExIi8+PHRleHQgZmlsbD0iIzAwMDAwMCIgZm9udC1mYW1pbHk9InNhbnMtc2VyaWYiIGZvbnQtc2l6ZT0iMTIiIGxlbmd0aEFkanVzdD0ic3BhY2luZyIgdGV4dExlbmd0aD0iMTY2IiB4PSIxMzgiIHk9IjMyLjM0MzgiPiYjMjQzMjA7JiMyMjk4NzsmIzI2MDMyOyYjMzAzNDA7JiMxOTk2ODsmIzIxNjA4OyYjMjQxODI7JiMzMTYwOTsmIzIyNzkxOyYjMjE2MDg7JiMyNjQxMTtwYXJ0eTwvdGV4dD48cmVjdCBmaWxsPSIjRjFGMUYxIiBoZWlnaHQ9IjMyLjg0MzgiIHJ4PSIxMi41IiByeT0iMTIuNSIgc3R5bGU9InN0cm9rZTojMTgxODE4O3N0cm9rZS13aWR0aDowLjU7IiB3aWR0aD0iMTg4IiB4PSIxMjciIHk9IjYzLjg0MzgiLz48dGV4dCBmaWxsPSIjMDAwMDAwIiBmb250LWZhbWlseT0ic2Fucy1zZXJpZiIgZm9udC1zaXplPSIxMiIgbGVuZ3RoQWRqdXN0PSJzcGFjaW5nIiB0ZXh0TGVuZ3RoPSIxNjgiIHg9IjEzNyIgeT0iODUuMTg3NSI+JiMyMjMxMjsmIzE5OTY4OyYjMjcwMDQ7JiMyMjgyMzsmIzIxMzgxOyYjMjAwMjY7JiMyMjgyMzsmIzIzNDc4OyYjMjA5MzQ7JiMyMjc5MTsmIzIwMDE2OyYjMzA0Mjc7JiMyNjA4OTsmIzM5MTg0OzwvdGV4dD48cmVjdCBmaWxsPSIjRjFGMUYxIiBoZWlnaHQ9IjMyLjg0MzgiIHJ4PSIxMi41IiByeT0iMTIuNSIgc3R5bGU9InN0cm9rZTojMTgxODE4O3N0cm9rZS13aWR0aDowLjU7IiB3aWR0aD0iMTc0IiB4PSIxMzQiIHk9IjExNi42ODc1Ii8+PHRleHQgZmlsbD0iIzAwMDAwMCIgZm9udC1mYW1pbHk9InNhbnMtc2VyaWYiIGZvbnQtc2l6ZT0iMTIiIGxlbmd0aEFkanVzdD0ic3BhY2luZyIgdGV4dExlbmd0aD0iMTU0IiB4PSIxNDQiIHk9IjEzOC4wMzEzIj4mIzIxNTIxOyYjMjI4MjM7JiMyMzQ3ODsmIzIwMTcxOyYjMzI0NjE7JiMyMTM2MzsmIzIzNTU4OyYjMjEwNDA7JiMyNjQ2OTsmIzMwMzQwO3BhcnR5PC90ZXh0PjxyZWN0IGZpbGw9IiNGMUYxRjEiIGhlaWdodD0iMzIuODQzOCIgcng9IjEyLjUiIHJ5PSIxMi41IiBzdHlsZT0ic3Ryb2tlOiMxODE4MTg7c3Ryb2tlLXdpZHRoOjAuNTsiIHdpZHRoPSIxODgiIHg9IjEyNyIgeT0iMTY5LjUzMTMiLz48dGV4dCBmaWxsPSIjMDAwMDAwIiBmb250LWZhbWlseT0ic2Fucy1zZXJpZiIgZm9udC1zaXplPSIxMiIgbGVuZ3RoQWRqdXN0PSJzcGFjaW5nIiB0ZXh0TGVuZ3RoPSIxNjgiIHg9IjEzNyIgeT0iMTkwLjg3NSI+JiMzNTgzMTsmIzI5NTc5OyYjMjQzNzg7JiMzNjEyNzsmIzM2MTMxOyYjMjk2MTY7JiMyMjMzMDsmIzI0MDY3OyYjMzI2MjI7JiMyMTY0NDsmIzM1Nzc0OyYjMjYwNDU7JiMzMjUwMDsmIzI1MjUyOzwvdGV4dD48cmVjdCBmaWxsPSIjRjFGMUYxIiBoZWlnaHQ9IjMyLjg0MzgiIHJ4PSIxMi41IiByeT0iMTIuNSIgc3R5bGU9InN0cm9rZTojMTgxODE4O3N0cm9rZS13aWR0aDowLjU7IiB3aWR0aD0iMjEyIiB4PSIxMTUiIHk9IjIyMi4zNzUiLz48dGV4dCBmaWxsPSIjMDAwMDAwIiBmb250LWZhbWlseT0ic2Fucy1zZXJpZiIgZm9udC1zaXplPSIxMiIgbGVuZ3RoQWRqdXN0PSJzcGFjaW5nIiB0ZXh0TGVuZ3RoPSIxOTIiIHg9IjEyNSIgeT0iMjQzLjcxODgiPiYjMzU3NTI7JiMzNTc3MDsmIzI0MDY3OyYjMzI2MjI7JiMyNjA0MTsmIzI2Njk2OyYjNjUyOTI7JiMzMDgzMDsmIzIzNDUwOyYjMjAwMjc7JiMzOTA2NDsmIzIxNjQ0OyYjMjY0NDg7JiMyNjAwOTsmIzM4NjU2OyYjMjc3MTQ7PC90ZXh0PjxyZWN0IGZpbGw9IiNGMUYxRjEiIGhlaWdodD0iMzIuODQzOCIgcng9IjEyLjUiIHJ5PSIxMi41IiBzdHlsZT0ic3Ryb2tlOiMxODE4MTg7c3Ryb2tlLXdpZHRoOjAuNTsiIHdpZHRoPSIxMTYiIHg9IjE2MyIgeT0iMjc1LjIxODgiLz48dGV4dCBmaWxsPSIjMDAwMDAwIiBmb250LWZhbWlseT0ic2Fucy1zZXJpZiIgZm9udC1zaXplPSIxMiIgbGVuZ3RoQWRqdXN0PSJzcGFjaW5nIiB0ZXh0TGVuZ3RoPSI5NiIgeD0iMTczIiB5PSIyOTYuNTYyNSI+JiMyMTQzNTsmIzI2NDQ2OyYjMjYxOTU7JiMzODQ1MTsmIzMwMzQwOyYjMjYwODU7JiMyNjAwOTsmIzI0MjE1OzwvdGV4dD48cmVjdCBmaWxsPSIjRjFGMUYxIiBoZWlnaHQ9IjMyLjg0MzgiIHJ4PSIxMi41IiByeT0iMTIuNSIgc3R5bGU9InN0cm9rZTojMTgxODE4O3N0cm9rZS13aWR0aDowLjU7IiB3aWR0aD0iMTY0IiB4PSIxMzkiIHk9IjMyOC4wNjI1Ii8+PHRleHQgZmlsbD0iIzAwMDAwMCIgZm9udC1mYW1pbHk9InNhbnMtc2VyaWYiIGZvbnQtc2l6ZT0iMTIiIGxlbmd0aEFkanVzdD0ic3BhY2luZyIgdGV4dExlbmd0aD0iMTQ0IiB4PSIxNDkiIHk9IjM0OS40MDYzIj4mIzI2NDQ2OyYjMjYxOTU7JiMzODQ1MTsmIzM1ODMxOyYjMjUxMDU7JiMyNDExMDsmIzIwMTgyOyYjMjE0NjI7JiMzOTEzNTsmIzI2NDQ4OyYjMjgxNjU7JiMyMTMzMzs8L3RleHQ+PHJlY3QgZmlsbD0iI0YxRjFGMSIgaGVpZ2h0PSIzMi44NDM4IiByeD0iMTIuNSIgcnk9IjEyLjUiIHN0eWxlPSJzdHJva2U6IzE4MTgxODtzdHJva2Utd2lkdGg6MC41OyIgd2lkdGg9IjIwMCIgeD0iMTIxIiB5PSIzODAuOTA2MyIvPjx0ZXh0IGZpbGw9IiMwMDAwMDAiIGZvbnQtZmFtaWx5PSJzYW5zLXNlcmlmIiBmb250LXNpemU9IjEyIiBsZW5ndGhBZGp1c3Q9InNwYWNpbmciIHRleHRMZW5ndGg9IjE4MCIgeD0iMTMxIiB5PSI0MDIuMjUiPiYjMjIyMzg7JiMyMTA0MDsmIzIwODQ0OyYjMjM1MDc7JiMyNDE4MjsmIzM2ODI3OyYjMjA4Mzc7JiMyNjQ0NjsmIzI2MTk1OyYjMzg0NTE7JiMyNTE1MTsmIzM4Mzg4OyYjMjUyMTQ7JiMyODE2NTsmIzIxMzMzOzwvdGV4dD48cmVjdCBmaWxsPSIjRjFGMUYxIiBoZWlnaHQ9IjMyLjg0MzgiIHJ4PSIxMi41IiByeT0iMTIuNSIgc3R5bGU9InN0cm9rZTojMTgxODE4O3N0cm9rZS13aWR0aDowLjU7IiB3aWR0aD0iMTg4IiB4PSIxMjciIHk9IjQzMy43NSIvPjx0ZXh0IGZpbGw9IiMwMDAwMDAiIGZvbnQtZmFtaWx5PSJzYW5zLXNlcmlmIiBmb250LXNpemU9IjEyIiBsZW5ndGhBZGp1c3Q9InNwYWNpbmciIHRleHRMZW5ndGg9IjE2OCIgeD0iMTM3IiB5PSI0NTUuMDkzOCI+JiMyNjA4MDsmIzI0ODQ3OyYjMzgzODg7JiMyMTQ1NzsmIzI5NjE2OyYjMjY0NDY7JiMyNjE5NTsmIzM4NDUxOyYjMzAzNDA7JiMzMTE5MjsmIzIzNDk0OyYjMjYwODU7JiMzNTc2MDsmIzI2NDEyOzwvdGV4dD48cmVjdCBmaWxsPSIjRjFGMUYxIiBoZWlnaHQ9IjMyLjg0MzgiIHJ4PSIxMi41IiByeT0iMTIuNSIgc3R5bGU9InN0cm9rZTojMTgxODE4O3N0cm9rZS13aWR0aDowLjU7IiB3aWR0aD0iMjYwIiB4PSI5MSIgeT0iNDg2LjU5MzgiLz48dGV4dCBmaWxsPSIjMDAwMDAwIiBmb250LWZhbWlseT0ic2Fucy1zZXJpZiIgZm9udC1zaXplPSIxMiIgbGVuZ3RoQWRqdXN0PSJzcGFjaW5nIiB0ZXh0TGVuZ3RoPSIyNDAiIHg9IjEwMSIgeT0iNTA3LjkzNzUiPiYjMjM1NTg7JiMzOTEzNTsmIzI2NDQ4OyYjMjgxNjU7JiMyMTMzMzsmIzIwMTMyOyYjMzI0NzM7JiMyNjQ0NjsmIzI2MTk1OyYjMzg0NTE7JiMyNDE4MjsmIzM1ODMxOyYjMjU5NDU7JiMzOTEzNTsmIzI5Mjg5OyYjMjE2NDQ7JiMzOTI3ODsmIzI2MDA5OyYjMjQzMTQ7JiMzNTc1ODs8L3RleHQ+PHJlY3QgZmlsbD0iI0YxRjFGMSIgaGVpZ2h0PSIzMi44NDM4IiByeD0iMTIuNSIgcnk9IjEyLjUiIHN0eWxlPSJzdHJva2U6IzE4MTgxODtzdHJva2Utd2lkdGg6MC41OyIgd2lkdGg9IjE2MiIgeD0iMTQwIiB5PSI1MzkuNDM3NSIvPjx0ZXh0IGZpbGw9IiMwMDAwMDAiIGZvbnQtZmFtaWx5PSJzYW5zLXNlcmlmIiBmb250LXNpemU9IjEyIiBsZW5ndGhBZGp1c3Q9InNwYWNpbmciIHRleHRMZW5ndGg9IjE0MiIgeD0iMTUwIiB5PSI1NjAuNzgxMyI+JiMyNjQ0NjsmIzI2MTk1OyYjMzg0NTE7JiMzMTU3MjsmIzI0MjEyOyYjMjQxMTA7JiMyNDUzNzsmIzMxNjA5OyYjMjI3OTE7cGFydHk8L3RleHQ+PHJlY3QgZmlsbD0iI0YxRjFGMSIgaGVpZ2h0PSIzMi44NDM4IiByeD0iMTIuNSIgcnk9IjEyLjUiIHN0eWxlPSJzdHJva2U6IzE4MTgxODtzdHJva2Utd2lkdGg6MC41OyIgd2lkdGg9IjI3MiIgeD0iODUiIHk9IjU5Mi4yODEzIi8+PHRleHQgZmlsbD0iIzAwMDAwMCIgZm9udC1mYW1pbHk9InNhbnMtc2VyaWYiIGZvbnQtc2l6ZT0iMTIiIGxlbmd0aEFkanVzdD0ic3BhY2luZyIgdGV4dExlbmd0aD0iMjUyIiB4PSI5NSIgeT0iNjEzLjYyNSI+JiMzNTc1MjsmIzM1NzcwOyYjMjQ0MjU7JiMzNDQyNTsmIzM2ODE2OyYjMjExNjA7JiMyMDI1MDsmIzIwMTA3OyYjMjM0NTI7JiMyNDE4MjsmIzM1ODMxOyYjMjk1Nzk7JiMyODAwOTsmIzI0MTEwOyYjMjQ1Mzc7JiMzNTc3NDsmIzM1NzQ1OyYjMjc2MDQ7JiMzNjE4NzsmIzM5MDMzOyYjMzA0NDY7PC90ZXh0Pjxwb2x5Z29uIGZpbGw9IiNGMUYxRjEiIHBvaW50cz0iMTQ5LjUsNjQ1LjEyNSwyOTIuNSw2NDUuMTI1LDMwNC41LDY1Ny4xMjUsMjkyLjUsNjY5LjEyNSwxNDkuNSw2NjkuMTI1LDEzNy41LDY1Ny4xMjUsMTQ5LjUsNjQ1LjEyNSIgc3R5bGU9InN0cm9rZTojMTgxODE4O3N0cm9rZS13aWR0aDowLjU7Ii8+PHRleHQgZmlsbD0iIzAwMDAwMCIgZm9udC1mYW1pbHk9InNhbnMtc2VyaWYiIGZvbnQtc2l6ZT0iMTEiIGxlbmd0aEFkanVzdD0ic3BhY2luZyIgdGV4dExlbmd0aD0iMTQzIiB4PSIxNDkuNSIgeT0iNjYxLjYzNjciPiYjMjk1Nzk7JiMyODAwOTsmIzM1ODI4OyYjMzI0NzM7JiMyNTEwNTsmIzE5OTc4OyYjMTk5Njg7JiMzMzQxMDsmIzIwODEzOyYjMzYxNTM7JiMyNTI4OTsmIzIwMjgwOyYjMzU4Mzg7PC90ZXh0Pjx0ZXh0IGZpbGw9IiMwMDAwMDAiIGZvbnQtZmFtaWx5PSJzYW5zLXNlcmlmIiBmb250LXNpemU9IjExIiBsZW5ndGhBZGp1c3Q9InNwYWNpbmciIHRleHRMZW5ndGg9IjMzIiB4PSIxMDQuNSIgeT0iNjU1Ljc1Ij4mIzMxNTcyOyYjMjQyMTI7JiMyMDEwMjs8L3RleHQ+PHRleHQgZmlsbD0iIzAwMDAwMCIgZm9udC1mYW1pbHk9InNhbnMtc2VyaWYiIGZvbnQtc2l6ZT0iMTEiIGxlbmd0aEFkanVzdD0ic3BhY2luZyIgdGV4dExlbmd0aD0iMzMiIHg9IjMwNC41IiB5PSI2NTUuNzUiPiYjMjc4MDk7JiMzMTU3MjsmIzI0MjEyOzwvdGV4dD48cmVjdCBmaWxsPSIjRjFGMUYxIiBoZWlnaHQ9IjMyLjg0MzgiIHJ4PSIxMi41IiByeT0iMTIuNSIgc3R5bGU9InN0cm9rZTojMTgxODE4O3N0cm9rZS13aWR0aDowLjU7IiB3aWR0aD0iMTI4IiB4PSI2My41IiB5PSI2NzkuMTI1Ii8+PHRleHQgZmlsbD0iIzAwMDAwMCIgZm9udC1mYW1pbHk9InNhbnMtc2VyaWYiIGZvbnQtc2l6ZT0iMTIiIGxlbmd0aEFkanVzdD0ic3BhY2luZyIgdGV4dExlbmd0aD0iMTA4IiB4PSI3My41IiB5PSI3MDAuNDY4OCI+JiMzNTc1MjsmIzM1NzcwOyYjMjQ0MjU7JiMzNDQyNTsmIzM2ODE2OyYjMjExNjA7JiMyMDI1MDsmIzIwMTA3OyYjMjM0NTI7PC90ZXh0PjxyZWN0IGZpbGw9IiNGMUYxRjEiIGhlaWdodD0iMzIuODQzOCIgcng9IjEyLjUiIHJ5PSIxMi41IiBzdHlsZT0ic3Ryb2tlOiMxODE4MTg7c3Ryb2tlLXdpZHRoOjAuNTsiIHdpZHRoPSIxNDAiIHg9IjU3LjUiIHk9IjczMS45Njg4Ii8+PHRleHQgZmlsbD0iIzAwMDAwMCIgZm9udC1mYW1pbHk9InNhbnMtc2VyaWYiIGZvbnQtc2l6ZT0iMTIiIGxlbmd0aEFkanVzdD0ic3BhY2luZyIgdGV4dExlbmd0aD0iMTIwIiB4PSI2Ny41IiB5PSI3NTMuMzEyNSI+JiMyOTU3OTsmIzI4MDA5OyYjMjU0MjM7JiMyNTEwNTsmIzMwMzQwOyYjMzI5MDg7JiMzMjkwNTsmIzI0MTgyOyYjMzU3ODA7JiMzNTc3MDs8L3RleHQ+PHJlY3QgZmlsbD0iI0YxRjFGMSIgaGVpZ2h0PSIzMi44NDM4IiByeD0iMTIuNSIgcnk9IjEyLjUiIHN0eWxlPSJzdHJva2U6IzE4MTgxODtzdHJva2Utd2lkdGg6MC41OyIgd2lkdGg9IjE2NCIgeD0iNDUuNSIgeT0iNzg0LjgxMjUiLz48dGV4dCBmaWxsPSIjMDAwMDAwIiBmb250LWZhbWlseT0ic2Fucy1zZXJpZiIgZm9udC1zaXplPSIxMiIgbGVuZ3RoQWRqdXN0PSJzcGFjaW5nIiB0ZXh0TGVuZ3RoPSIxNDQiIHg9IjU1LjUiIHk9IjgwNi4xNTYzIj4mIzI5NTc5OyYjMjgwMDk7JiMyNTU1MjsmIzM1NzU4OyYjMjA4MTM7JiMzNjE1MzsmIzE5OTc4OyYjMTk5Njg7JiMzMzQxMDsmIzI1Mjg5OyYjMjAyODA7JiMzNTgzODs8L3RleHQ+PHJlY3QgZmlsbD0iI0YxRjFGMSIgaGVpZ2h0PSIzMi44NDM4IiByeD0iMTIuNSIgcnk9IjEyLjUiIHN0eWxlPSJzdHJva2U6IzE4MTgxODtzdHJva2Utd2lkdGg6MC41OyIgd2lkdGg9IjE0MCIgeD0iNTcuNSIgeT0iODM3LjY1NjMiLz48dGV4dCBmaWxsPSIjMDAwMDAwIiBmb250LWZhbWlseT0ic2Fucy1zZXJpZiIgZm9udC1zaXplPSIxMiIgbGVuZ3RoQWRqdXN0PSJzcGFjaW5nIiB0ZXh0TGVuZ3RoPSIxMjAiIHg9IjY3LjUiIHk9Ijg1OSI+JiMyNTEwNTsmIzI1NTA5OyYjMjE0NjM7JiMyNDE4MjsmIzI1NDQyOyYjMTk5Nzg7JiMzNjgxNjsmIzIxMTYwOyYjMzQ5MTU7JiMyNjM4MTs8L3RleHQ+PHJlY3QgZmlsbD0iI0YxRjFGMSIgaGVpZ2h0PSIzMi44NDM4IiByeD0iMTIuNSIgcnk9IjEyLjUiIHN0eWxlPSJzdHJva2U6IzE4MTgxODtzdHJva2Utd2lkdGg6MC41OyIgd2lkdGg9IjE4OCIgeD0iMzMuNSIgeT0iODkwLjUiLz48dGV4dCBmaWxsPSIjMDAwMDAwIiBmb250LWZhbWlseT0ic2Fucy1zZXJpZiIgZm9udC1zaXplPSIxMiIgbGVuZ3RoQWRqdXN0PSJzcGFjaW5nIiB0ZXh0TGVuZ3RoPSIxNjgiIHg9IjQzLjUiIHk9IjkxMS44NDM4Ij4mIzIyMzEyOyYjMjk1Nzk7JiMyODAwOTsmIzI1MzUxOyYjMjM1NDg7JiMxOTk3OTsmIzM2ODI3OyYjMzQ4OTI7JiMyMTUwODsmIzMxMTgxOyYjMjUyODk7JiMyMDI4MDsmIzIxMTYwOyYjMjAzMTY7PC90ZXh0PjxyZWN0IGZpbGw9IiNGMUYxRjEiIGhlaWdodD0iMzIuODQzOCIgcng9IjEyLjUiIHJ5PSIxMi41IiBzdHlsZT0ic3Ryb2tlOiMxODE4MTg7c3Ryb2tlLXdpZHRoOjAuNTsiIHdpZHRoPSIyMDAiIHg9IjI3LjUiIHk9Ijk0My4zNDM4Ii8+PHRleHQgZmlsbD0iIzAwMDAwMCIgZm9udC1mYW1pbHk9InNhbnMtc2VyaWYiIGZvbnQtc2l6ZT0iMTIiIGxlbmd0aEFkanVzdD0ic3BhY2luZyIgdGV4dExlbmd0aD0iMTgwIiB4PSIzNy41IiB5PSI5NjQuNjg3NSI+JiMyOTU3OTsmIzI4MDA5OyYjMzI0MTY7JiMyNzQ5MTsmIzI1MTA1OyYjMzAzNDA7JiMyMzAzOTsmIzIxMTgzOyYjMjQxODI7JiMzMDgzMDsmIzIwNDQ1OyYjMjYzNzc7JiMyNTkyODsmIzI1Mjg5OyYjMjAyODA7PC90ZXh0PjxyZWN0IGZpbGw9IiNGMUYxRjEiIGhlaWdodD0iMzIuODQzOCIgcng9IjEyLjUiIHJ5PSIxMi41IiBzdHlsZT0ic3Ryb2tlOiMxODE4MTg7c3Ryb2tlLXdpZHRoOjAuNTsiIHdpZHRoPSI5MiIgeD0iODEuNSIgeT0iOTk2LjE4NzUiLz48dGV4dCBmaWxsPSIjMDAwMDAwIiBmb250LWZhbWlseT0ic2Fucy1zZXJpZiIgZm9udC1zaXplPSIxMiIgbGVuZ3RoQWRqdXN0PSJzcGFjaW5nIiB0ZXh0TGVuZ3RoPSI3MiIgeD0iOTEuNSIgeT0iMTAxNy41MzEzIj4mIzIwMTM1OyYjMjk5ODM7JiMyNjI3OTsmIzI2MTUxOyYjMjc2Njg7JiMyNzY3NTs8L3RleHQ+PHJlY3QgZmlsbD0iI0YxRjFGMSIgaGVpZ2h0PSIzMi44NDM4IiByeD0iMTIuNSIgcnk9IjEyLjUiIHN0eWxlPSJzdHJva2U6IzE4MTgxODtzdHJva2Utd2lkdGg6MC41OyIgd2lkdGg9IjEyOCIgeD0iNjMuNSIgeT0iMTA0OS4wMzEzIi8+PHRleHQgZmlsbD0iIzAwMDAwMCIgZm9udC1mYW1pbHk9InNhbnMtc2VyaWYiIGZvbnQtc2l6ZT0iMTIiIGxlbmd0aEFkanVzdD0ic3BhY2luZyIgdGV4dExlbmd0aD0iMTA4IiB4PSI3My41IiB5PSIxMDcwLjM3NSI+JiMyMDExNDsmIzIxMTYwOyYjMjE0NjQ7JiMyNDQ3MTsmIzM2MjM0OyYjMjY0Njk7JiMzNjIzNDsmIzIwMTQ2OyYjMjM0OTQ7PC90ZXh0PjxyZWN0IGZpbGw9IiNGMUYxRjEiIGhlaWdodD0iMzIuODQzOCIgcng9IjEyLjUiIHJ5PSIxMi41IiBzdHlsZT0ic3Ryb2tlOiMxODE4MTg7c3Ryb2tlLXdpZHRoOjAuNTsiIHdpZHRoPSIxMjgiIHg9IjYzLjUiIHk9IjExMDEuODc1Ii8+PHRleHQgZmlsbD0iIzAwMDAwMCIgZm9udC1mYW1pbHk9InNhbnMtc2VyaWYiIGZvbnQtc2l6ZT0iMTIiIGxlbmd0aEFkanVzdD0ic3BhY2luZyIgdGV4dExlbmd0aD0iMTA4IiB4PSI3My41IiB5PSIxMTIzLjIxODgiPiYjMjk1Nzk7JiMyODAwOTsmIzM1ODQzOyYjMjAzNTU7JiMyNTEwNTsmIzM2ODg3OyYjMjUxMDU7JiMyNDMyMDsmIzI0NTE1OzwvdGV4dD48cmVjdCBmaWxsPSIjRjFGMUYxIiBoZWlnaHQ9IjMyLjg0MzgiIHJ4PSIxMi41IiByeT0iMTIuNSIgc3R5bGU9InN0cm9rZTojMTgxODE4O3N0cm9rZS13aWR0aDowLjU7IiB3aWR0aD0iOTIiIHg9IjgxLjUiIHk9IjExNTQuNzE4OCIvPjx0ZXh0IGZpbGw9IiMwMDAwMDAiIGZvbnQtZmFtaWx5PSJzYW5zLXNlcmlmIiBmb250LXNpemU9IjEyIiBsZW5ndGhBZGp1c3Q9InNwYWNpbmciIHRleHRMZW5ndGg9IjcyIiB4PSI5MS41IiB5PSIxMTc2LjA2MjUiPiYjMjYzOTk7JiMzODM4ODsmIzI2Mjc5OyYjMjYxNTE7JiMxOTk4MTsmIzI3NDkwOzwvdGV4dD48cmVjdCBmaWxsPSIjRjFGMUYxIiBoZWlnaHQ9IjMyLjg0MzgiIHJ4PSIxMi41IiByeT0iMTIuNSIgc3R5bGU9InN0cm9rZTojMTgxODE4O3N0cm9rZS13aWR0aDowLjU7IiB3aWR0aD0iNjgiIHg9IjI4MC41IiB5PSI2NzkuMTI1Ii8+PHRleHQgZmlsbD0iIzAwMDAwMCIgZm9udC1mYW1pbHk9InNhbnMtc2VyaWYiIGZvbnQtc2l6ZT0iMTIiIGxlbmd0aEFkanVzdD0ic3BhY2luZyIgdGV4dExlbmd0aD0iNDgiIHg9IjI5MC41IiB5PSI3MDAuNDY4OCI+JiMyNTEwNTsmIzMxMTYzOyYjMjQzMjA7JiMyMDEwMjs8L3RleHQ+PHBvbHlnb24gZmlsbD0iI0YxRjFGMSIgcG9pbnRzPSIyMjEsMTE5My41NjI1LDIzMywxMjA1LjU2MjUsMjIxLDEyMTcuNTYyNSwyMDksMTIwNS41NjI1LDIyMSwxMTkzLjU2MjUiIHN0eWxlPSJzdHJva2U6IzE4MTgxODtzdHJva2Utd2lkdGg6MC41OyIvPjxyZWN0IGZpbGw9IiNGMUYxRjEiIGhlaWdodD0iMzIuODQzOCIgcng9IjEyLjUiIHJ5PSIxMi41IiBzdHlsZT0ic3Ryb2tlOiMxODE4MTg7c3Ryb2tlLXdpZHRoOjAuNTsiIHdpZHRoPSIxODgiIHg9IjEyNyIgeT0iMTIzNy41NjI1Ii8+PHRleHQgZmlsbD0iIzAwMDAwMCIgZm9udC1mYW1pbHk9InNhbnMtc2VyaWYiIGZvbnQtc2l6ZT0iMTIiIGxlbmd0aEFkanVzdD0ic3BhY2luZyIgdGV4dExlbmd0aD0iMTY4IiB4PSIxMzciIHk9IjEyNTguOTA2MyI+JiMzMjQyMjsmIzIzNDUwOyYjMjYyMDI7JiMyMDEyMzsmIzI2MTAyOyYjMjA1MDU7JiMyMjMxMjsmIzIwODQ0OyYjMjM1MDc7JiMyMDg3NzsmIzM1NzUyOyYjMzU3NzA7JiMzMjQ1NDsmIzMzNDEwOzwvdGV4dD48cmVjdCBmaWxsPSIjRjFGMUYxIiBoZWlnaHQ9IjMyLjg0MzgiIHJ4PSIxMi41IiByeT0iMTIuNSIgc3R5bGU9InN0cm9rZTojMTgxODE4O3N0cm9rZS13aWR0aDowLjU7IiB3aWR0aD0iMTc2IiB4PSIxMzMiIHk9IjEyOTAuNDA2MyIvPjx0ZXh0IGZpbGw9IiMwMDAwMDAiIGZvbnQtZmFtaWx5PSJzYW5zLXNlcmlmIiBmb250LXNpemU9IjEyIiBsZW5ndGhBZGp1c3Q9InNwYWNpbmciIHRleHRMZW5ndGg9IjE1NiIgeD0iMTQzIiB5PSIxMzExLjc1Ij4mIzIxNDM1OyYjMzYyMTM7JiMyMjgyNTsmIzIzNDMxOyYjMzAzNDA7JiMyMzM5ODsmIzI2NjU3OyYjMjE1Nzg7JiMzMDY5MzsmIzI3OTYzOyYjMjExNjA7JiMzNTc0NTsmIzIxMDEwOzwvdGV4dD48cmVjdCBmaWxsPSIjRjFGMUYxIiBoZWlnaHQ9IjMyLjg0MzgiIHJ4PSIxMi41IiByeT0iMTIuNSIgc3R5bGU9InN0cm9rZTojMTgxODE4O3N0cm9rZS13aWR0aDowLjU7IiB3aWR0aD0iMjYwIiB4PSI5MSIgeT0iMTM0My4yNSIvPjx0ZXh0IGZpbGw9IiMwMDAwMDAiIGZvbnQtZmFtaWx5PSJzYW5zLXNlcmlmIiBmb250LXNpemU9IjEyIiBsZW5ndGhBZGp1c3Q9InNwYWNpbmciIHRleHRMZW5ndGg9IjI0MCIgeD0iMTAxIiB5PSIxMzY0LjU5MzgiPiYjMzYyMTM7JiMyMjgyNTsmIzIzNDMxOyYjMzE1NzI7JiMyNDIxMjsmIzI2MjAyOyYjMTk5Nzg7JiMyNTI3NzsmIzMxMzU0OyYjMjEzMjc7JiMyMTE2MTsmIzI5NTc5OyYjMjgwMDk7JiMzMjQ1MjsmIzMyNDU1OyYjMjQ0MjU7JiMzNDQyNTsmIzM2ODE2OyYjMjExNjA7JiMyMDI1MDs8L3RleHQ+PHJlY3QgZmlsbD0iI0YxRjFGMSIgaGVpZ2h0PSIzMi44NDM4IiByeD0iMTIuNSIgcnk9IjEyLjUiIHN0eWxlPSJzdHJva2U6IzE4MTgxODtzdHJva2Utd2lkdGg6MC41OyIgd2lkdGg9IjIxMSIgeD0iMTE1LjUiIHk9IjEzOTYuMDkzOCIvPjx0ZXh0IGZpbGw9IiMwMDAwMDAiIGZvbnQtZmFtaWx5PSJzYW5zLXNlcmlmIiBmb250LXNpemU9IjEyIiBsZW5ndGhBZGp1c3Q9InNwYWNpbmciIHRleHRMZW5ndGg9IjE5MSIgeD0iMTI1LjUiIHk9IjE0MTcuNDM3NSI+JiMyMTQzNTsmIzI0MzUyOyYjMjgwNTk7JiMzMDM0MDsmIzMwMDExOyYjMjM0NjA7JiMzNTc1MjsmIzM1NzcwO2Nvc3BsYXkmIzI3OTYzOyYjMjExNjA7JiMzMTYwOTsmIzIyNzkxOzwvdGV4dD48cmVjdCBmaWxsPSIjRjFGMUYxIiBoZWlnaHQ9IjMyLjg0MzgiIHJ4PSIxMi41IiByeT0iMTIuNSIgc3R5bGU9InN0cm9rZTojMTgxODE4O3N0cm9rZS13aWR0aDowLjU7IiB3aWR0aD0iMjk2IiB4PSI3MyIgeT0iMTQ0OC45Mzc1Ii8+PHRleHQgZmlsbD0iIzAwMDAwMCIgZm9udC1mYW1pbHk9InNhbnMtc2VyaWYiIGZvbnQtc2l6ZT0iMTIiIGxlbmd0aEFkanVzdD0ic3BhY2luZyIgdGV4dExlbmd0aD0iMjc2IiB4PSI4MyIgeT0iMTQ3MC4yODEzIj4mIzI0MzUyOyYjMjgwNTk7JiMzMTU3MjsmIzI0MjEyOyYjMjYyMDI7JiMxOTk3ODsmIzIyMjM4OyYjMjA4NDQ7JiMyMzUwNzsmIzIxNTE4OyYjMjQxMTA7JiMyNDUzNzsmIzM1Nzc0OyYjMzU3NDU7JiMyNjM4MTsmIzM1MDEzOyYjMjE2NDQ7JiMyMDkzNDsmIzIyNzkxOyYjMjEyNzA7JiMyMjkxODsmIzI5OTkyOyYjMjE2OTc7PC90ZXh0Pjxwb2x5Z29uIGZpbGw9IiNGMUYxRjEiIHBvaW50cz0iMTMzLDE1MDEuNzgxMywzMDksMTUwMS43ODEzLDMyMSwxNTEzLjc4MTMsMzA5LDE1MjUuNzgxMywxMzMsMTUyNS43ODEzLDEyMSwxNTEzLjc4MTMsMTMzLDE1MDEuNzgxMyIgc3R5bGU9InN0cm9rZTojMTgxODE4O3N0cm9rZS13aWR0aDowLjU7Ii8+PHRleHQgZmlsbD0iIzAwMDAwMCIgZm9udC1mYW1pbHk9InNhbnMtc2VyaWYiIGZvbnQtc2l6ZT0iMTEiIGxlbmd0aEFkanVzdD0ic3BhY2luZyIgdGV4dExlbmd0aD0iMTc2IiB4PSIxMzMiIHk9IjE1MTguMjkzIj4mIzI0MzUyOyYjMjgwNTk7JiMzNjk5MjsmIzM1ODMxOyYjMjUxMDU7JiMyMDMxNjsmIzIwMDI2OyYjMjcxNjk7JiMyOTMwNTsmIzMyNDczOyYjMjAxODI7JiMzMDAxMTsmIzIwMTU0OyYjMjAzMDc7JiMyNDQyNTsmIzMyNDcyOzwvdGV4dD48dGV4dCBmaWxsPSIjMDAwMDAwIiBmb250LWZhbWlseT0ic2Fucy1zZXJpZiIgZm9udC1zaXplPSIxMSIgbGVuZ3RoQWRqdXN0PSJzcGFjaW5nIiB0ZXh0TGVuZ3RoPSI0NCIgeD0iNzciIHk9IjE1MTIuNDA2MyI+JiMyNTEwNTsmIzMxNTcyOyYjMjQyMTI7JiMyMDEwMjs8L3RleHQ+PHRleHQgZmlsbD0iIzAwMDAwMCIgZm9udC1mYW1pbHk9InNhbnMtc2VyaWYiIGZvbnQtc2l6ZT0iMTEiIGxlbmd0aEFkanVzdD0ic3BhY2luZyIgdGV4dExlbmd0aD0iMzMiIHg9IjMyMSIgeT0iMTUxMi40MDYzIj4mIzI3ODA5OyYjMzE1NzI7JiMyNDIxMjs8L3RleHQ+PHJlY3QgZmlsbD0iI0YxRjFGMSIgaGVpZ2h0PSIzMi44NDM4IiByeD0iMTIuNSIgcnk9IjEyLjUiIHN0eWxlPSJzdHJva2U6IzE4MTgxODtzdHJva2Utd2lkdGg6MC41OyIgd2lkdGg9IjE0MCIgeD0iNDEiIHk9IjE1MzUuNzgxMyIvPjx0ZXh0IGZpbGw9IiMwMDAwMDAiIGZvbnQtZmFtaWx5PSJzYW5zLXNlcmlmIiBmb250LXNpemU9IjEyIiBsZW5ndGhBZGp1c3Q9InNwYWNpbmciIHRleHRMZW5ndGg9IjEyMCIgeD0iNTEiIHk9IjE1NTcuMTI1Ij4mIzI0MzUyOyYjMjgwNTk7JiMyMDE3MTsmIzMyNDYxOyYjMjAxNTQ7JiMyMDMwNzsmIzI0NDI1OyYjMzI0NzI7JiMzMzQwMjsmIzI2NDE1OzwvdGV4dD48cmVjdCBmaWxsPSIjRjFGMUYxIiBoZWlnaHQ9IjMyLjg0MzgiIHJ4PSIxMi41IiByeT0iMTIuNSIgc3R5bGU9InN0cm9rZTojMTgxODE4O3N0cm9rZS13aWR0aDowLjU7IiB3aWR0aD0iMTc2IiB4PSIyMyIgeT0iMTU4OC42MjUiLz48dGV4dCBmaWxsPSIjMDAwMDAwIiBmb250LWZhbWlseT0ic2Fucy1zZXJpZiIgZm9udC1zaXplPSIxMiIgbGVuZ3RoQWRqdXN0PSJzcGFjaW5nIiB0ZXh0TGVuZ3RoPSIxNTYiIHg9IjMzIiB5PSIxNjA5Ljk2ODgiPiYjMzU3NjI7JiMzNTI5OTsmIzIwMzE2OyYjMjE2OTc7JiMyMTAxOTsmIzIwMzE2OyYjMzI5NzI7JiMyNjIyMzsmIzIxNjQ0OyYjMzM0MDI7JiMyNjQxNTsmIzI5MzA1OyYjMzMzOTQ7PC90ZXh0PjxyZWN0IGZpbGw9IiNGMUYxRjEiIGhlaWdodD0iMzIuODQzOCIgcng9IjEyLjUiIHJ5PSIxMi41IiBzdHlsZT0ic3Ryb2tlOiMxODE4MTg7c3Ryb2tlLXdpZHRoOjAuNTsiIHdpZHRoPSIxNzYiIHg9IjIzIiB5PSIxNjQxLjQ2ODgiLz48dGV4dCBmaWxsPSIjMDAwMDAwIiBmb250LWZhbWlseT0ic2Fucy1zZXJpZiIgZm9udC1zaXplPSIxMiIgbGVuZ3RoQWRqdXN0PSJzcGFjaW5nIiB0ZXh0TGVuZ3RoPSIxNTYiIHg9IjMzIiB5PSIxNjYyLjgxMjUiPiYjMzU4MTQ7JiMzMjQ1NDsmIzM1Mjk5OyYjMzczMjI7JiMyMDE1NDsmIzIwMzA3OyYjMjQ0MjU7JiMzMjQ3MjsmIzI1MjE2OyYjMjQwMzk7JiMyMTY0NDsmIzI5MzA1OyYjMjg4NTc7PC90ZXh0PjxyZWN0IGZpbGw9IiNGMUYxRjEiIGhlaWdodD0iMzIuODQzOCIgcng9IjEyLjUiIHJ5PSIxMi41IiBzdHlsZT0ic3Ryb2tlOiMxODE4MTg7c3Ryb2tlLXdpZHRoOjAuNTsiIHdpZHRoPSIxODgiIHg9IjE3IiB5PSIxNjk0LjMxMjUiLz48dGV4dCBmaWxsPSIjMDAwMDAwIiBmb250LWZhbWlseT0ic2Fucy1zZXJpZiIgZm9udC1zaXplPSIxMiIgbGVuZ3RoQWRqdXN0PSJzcGFjaW5nIiB0ZXh0TGVuZ3RoPSIxNjgiIHg9IjI3IiB5PSIxNzE1LjY1NjMiPiYjMzUyNjY7JiMyMzUxOTsmIzI3MTY5OyYjMjkzMDU7JiMzNjUyMzsmIzE5OTc4OyYjMzAzNDA7JiMzMzQwMjsmIzI2NDE1OyYjMTk5ODI7JiMyMDE1NDsmIzIwMzA3OyYjMzI0Njc7JiMyMTUxMjs8L3RleHQ+PHJlY3QgZmlsbD0iI0YxRjFGMSIgaGVpZ2h0PSIzMi44NDM4IiByeD0iMTIuNSIgcnk9IjEyLjUiIHN0eWxlPSJzdHJva2U6IzE4MTgxODtzdHJva2Utd2lkdGg6MC41OyIgd2lkdGg9IjIwMCIgeD0iMTEiIHk9IjE3NDcuMTU2MyIvPjx0ZXh0IGZpbGw9IiMwMDAwMDAiIGZvbnQtZmFtaWx5PSJzYW5zLXNlcmlmIiBmb250LXNpemU9IjEyIiBsZW5ndGhBZGp1c3Q9InNwYWNpbmciIHRleHRMZW5ndGg9IjE4MCIgeD0iMjEiIHk9IjE3NjguNSI+JiMyNDM1MjsmIzI4MDU5OyYjMzY5OTI7JiMzNTgzMTsmIzI1MTA1OyYjMjM1ODE7JiMzNTc5NzsmIzI1MTA0OyYjMjAwMjY7JiMyMDE1NDsmIzIwMzA3OyYjMjQ0MjU7JiMzMjQ3MjsmIzI3MTY5OyYjMjkzMDU7PC90ZXh0PjxyZWN0IGZpbGw9IiNGMUYxRjEiIGhlaWdodD0iMzIuODQzOCIgcng9IjEyLjUiIHJ5PSIxMi41IiBzdHlsZT0ic3Ryb2tlOiMxODE4MTg7c3Ryb2tlLXdpZHRoOjAuNTsiIHdpZHRoPSIxMjgiIHg9IjQ3IiB5PSIxODAwIi8+PHRleHQgZmlsbD0iIzAwMDAwMCIgZm9udC1mYW1pbHk9InNhbnMtc2VyaWYiIGZvbnQtc2l6ZT0iMTIiIGxlbmd0aEFkanVzdD0ic3BhY2luZyIgdGV4dExlbmd0aD0iMTA4IiB4PSI1NyIgeT0iMTgyMS4zNDM4Ij4mIzI0NjA1OyYjMzI3NzE7JiMyNDE4MjsmIzIwOTE1OyYjMjM0NTA7JiMyNTUwOTsmIzIxNDYzOyYjMjU1NTI7JiMzNTc1ODs8L3RleHQ+PHJlY3QgZmlsbD0iI0YxRjFGMSIgaGVpZ2h0PSIzMi44NDM4IiByeD0iMTIuNSIgcnk9IjEyLjUiIHN0eWxlPSJzdHJva2U6IzE4MTgxODtzdHJva2Utd2lkdGg6MC41OyIgd2lkdGg9IjE4OCIgeD0iMTciIHk9IjE4NTIuODQzOCIvPjx0ZXh0IGZpbGw9IiMwMDAwMDAiIGZvbnQtZmFtaWx5PSJzYW5zLXNlcmlmIiBmb250LXNpemU9IjEyIiBsZW5ndGhBZGp1c3Q9InNwYWNpbmciIHRleHRMZW5ndGg9IjE2OCIgeD0iMjciIHk9IjE4NzQuMTg3NSI+JiMyMjMxMjsmIzI0MzUyOyYjMjgwNTk7JiMyNTM1MTsmIzIzNTQ4OyYjMTk5Nzk7JiMyNDMyMDsmIzIyOTg3OyYjMjU1MDk7JiMyMTQ2MzsmIzIwMTU0OyYjMjAzMDc7JiMyNDQyNTsmIzMyNDcyOzwvdGV4dD48cmVjdCBmaWxsPSIjRjFGMUYxIiBoZWlnaHQ9IjMyLjg0MzgiIHJ4PSIxMi41IiByeT0iMTIuNSIgc3R5bGU9InN0cm9rZTojMTgxODE4O3N0cm9rZS13aWR0aDowLjU7IiB3aWR0aD0iMTg4IiB4PSIxNyIgeT0iMTkwNS42ODc1Ii8+PHRleHQgZmlsbD0iIzAwMDAwMCIgZm9udC1mYW1pbHk9InNhbnMtc2VyaWYiIGZvbnQtc2l6ZT0iMTIiIGxlbmd0aEFkanVzdD0ic3BhY2luZyIgdGV4dExlbmd0aD0iMTY4IiB4PSIyNyIgeT0iMTkyNy4wMzEzIj4mIzI0MzUyOyYjMjgwNTk7JiMyOTk5MjsmIzMwMDExOyYjMzE1MDg7JiMyMjMxMjsmIzI1MTA1OyYjMzAzNDA7JiMzNjUyMzsmIzE5OTc4OyYjMzI0NzI7JiMyMTA0NjsmIzIyMjcwOyYjMjY2OTY7PC90ZXh0PjxyZWN0IGZpbGw9IiNGMUYxRjEiIGhlaWdodD0iMzIuODQzOCIgcng9IjEyLjUiIHJ5PSIxMi41IiBzdHlsZT0ic3Ryb2tlOiMxODE4MTg7c3Ryb2tlLXdpZHRoOjAuNTsiIHdpZHRoPSIyMDAiIHg9IjExIiB5PSIxOTU4LjUzMTMiLz48dGV4dCBmaWxsPSIjMDAwMDAwIiBmb250LWZhbWlseT0ic2Fucy1zZXJpZiIgZm9udC1zaXplPSIxMiIgbGVuZ3RoQWRqdXN0PSJzcGFjaW5nIiB0ZXh0TGVuZ3RoPSIxODAiIHg9IjIxIiB5PSIxOTc5Ljg3NSI+JiMyNDg2MzsmIzIxNDYzOyYjMzAwMTE7JiMzMTUwODsmIzI0MTAyOyYjMjY0Njk7JiMzMDM0MDsmIzM3MjIxOyYjNDA2MzU7JiMyNDg2MzsmIzM1MjczOyYjMjE2NDQ7JiMzMDE2MjsmIzMwMTYyOyYjMjQ4NjM7PC90ZXh0PjxyZWN0IGZpbGw9IiNGMUYxRjEiIGhlaWdodD0iMzIuODQzOCIgcng9IjEyLjUiIHJ5PSIxMi41IiBzdHlsZT0ic3Ryb2tlOiMxODE4MTg7c3Ryb2tlLXdpZHRoOjAuNTsiIHdpZHRoPSIxNzYiIHg9IjIzIiB5PSIyMDExLjM3NSIvPjx0ZXh0IGZpbGw9IiMwMDAwMDAiIGZvbnQtZmFtaWx5PSJzYW5zLXNlcmlmIiBmb250LXNpemU9IjEyIiBsZW5ndGhBZGp1c3Q9InNwYWNpbmciIHRleHRMZW5ndGg9IjE1NiIgeD0iMzMiIHk9IjIwMzIuNzE4OCI+JiMyNDM1MjsmIzI4MDU5OyYjMzUyMDE7JiMyNzcxNDsmIzI1MTA1OyYjMjA4NDA7JiMzNTA2NDsmIzIwMTk3OyYjMjA0MTU7JiMzNjgyNzsmIzM0ODkyOyYjMzI0NzI7JiMzMDAxMTs8L3RleHQ+PHJlY3QgZmlsbD0iI0YxRjFGMSIgaGVpZ2h0PSIzMi44NDM4IiByeD0iMTIuNSIgcnk9IjEyLjUiIHN0eWxlPSJzdHJva2U6IzE4MTgxODtzdHJva2Utd2lkdGg6MC41OyIgd2lkdGg9IjExNiIgeD0iNTMiIHk9IjIwNjQuMjE4OCIvPjx0ZXh0IGZpbGw9IiMwMDAwMDAiIGZvbnQtZmFtaWx5PSJzYW5zLXNlcmlmIiBmb250LXNpemU9IjEyIiBsZW5ndGhBZGp1c3Q9InNwYWNpbmciIHRleHRMZW5ndGg9Ijk2IiB4PSI2MyIgeT0iMjA4NS41NjI1Ij4mIzMyNDg3OyYjMzI0OTM7JiMzNjgyNzsmIzM0ODkyOyYjMjAxNTQ7JiMyMDMwNzsmIzI0NDI1OyYjMzI0NzI7PC90ZXh0PjxyZWN0IGZpbGw9IiNGMUYxRjEiIGhlaWdodD0iMzIuODQzOCIgcng9IjEyLjUiIHJ5PSIxMi41IiBzdHlsZT0ic3Ryb2tlOiMxODE4MTg7c3Ryb2tlLXdpZHRoOjAuNTsiIHdpZHRoPSIxMjgiIHg9IjQ3IiB5PSIyMTE3LjA2MjUiLz48dGV4dCBmaWxsPSIjMDAwMDAwIiBmb250LWZhbWlseT0ic2Fucy1zZXJpZiIgZm9udC1zaXplPSIxMiIgbGVuZ3RoQWRqdXN0PSJzcGFjaW5nIiB0ZXh0TGVuZ3RoPSIxMDgiIHg9IjU3IiB5PSIyMTM4LjQwNjMiPiYjMjE0Nzg7JiMxOTk2ODsmIzIwMDEwOyYjMjcxNjk7JiMyOTMwNTsmIzM1MjY2OyYjMjM1MTk7JiMyNTEwNTsmIzIwMjA0OzwvdGV4dD48cmVjdCBmaWxsPSIjRjFGMUYxIiBoZWlnaHQ9IjMyLjg0MzgiIHJ4PSIxMi41IiByeT0iMTIuNSIgc3R5bGU9InN0cm9rZTojMTgxODE4O3N0cm9rZS13aWR0aDowLjU7IiB3aWR0aD0iOTIiIHg9IjY1IiB5PSIyMTY5LjkwNjMiLz48dGV4dCBmaWxsPSIjMDAwMDAwIiBmb250LWZhbWlseT0ic2Fucy1zZXJpZiIgZm9udC1zaXplPSIxMiIgbGVuZ3RoQWRqdXN0PSJzcGFjaW5nIiB0ZXh0TGVuZ3RoPSI3MiIgeD0iNzUiIHk9IjIxOTEuMjUiPiYjMjQzNTI7JiMyODA1OTsmIzIxNjQ0OyYjMjUxMDU7JiMyNjI3OTsmIzI2MTUxOzwvdGV4dD48cmVjdCBmaWxsPSIjRjFGMUYxIiBoZWlnaHQ9IjMyLjg0MzgiIHJ4PSIxMi41IiByeT0iMTIuNSIgc3R5bGU9InN0cm9rZTojMTgxODE4O3N0cm9rZS13aWR0aDowLjU7IiB3aWR0aD0iMTQwIiB4PSI0MSIgeT0iMjIyMi43NSIvPjx0ZXh0IGZpbGw9IiMwMDAwMDAiIGZvbnQtZmFtaWx5PSJzYW5zLXNlcmlmIiBmb250LXNpemU9IjEyIiBsZW5ndGhBZGp1c3Q9InNwYWNpbmciIHRleHRMZW5ndGg9IjEyMCIgeD0iNTEiIHk9IjIyNDQuMDkzOCI+JiMxOTk4MjsmIzIxNDc4OyYjMTk5Njg7JiMyMDAxMDsmIzI3MTY5OyYjMjkzMDU7JiMxOTk2ODsmIzM2MjE1OyYjMjYyNzk7JiMyNjE1MTs8L3RleHQ+PHJlY3QgZmlsbD0iI0YxRjFGMSIgaGVpZ2h0PSIzMi44NDM4IiByeD0iMTIuNSIgcnk9IjEyLjUiIHN0eWxlPSJzdHJva2U6IzE4MTgxODtzdHJva2Utd2lkdGg6MC41OyIgd2lkdGg9IjY4IiB4PSIyOTciIHk9IjE1MzUuNzgxMyIvPjx0ZXh0IGZpbGw9IiMwMDAwMDAiIGZvbnQtZmFtaWx5PSJzYW5zLXNlcmlmIiBmb250LXNpemU9IjEyIiBsZW5ndGhBZGp1c3Q9InNwYWNpbmciIHRleHRMZW5ndGg9IjQ4IiB4PSIzMDciIHk9IjE1NTcuMTI1Ij4mIzI1MTA1OyYjMzExNjM7JiMyNDMyMDsmIzIwMTAyOzwvdGV4dD48cG9seWdvbiBmaWxsPSIjRjFGMUYxIiBwb2ludHM9IjIyMSwyMjYxLjU5MzgsMjMzLDIyNzMuNTkzOCwyMjEsMjI4NS41OTM4LDIwOSwyMjczLjU5MzgsMjIxLDIyNjEuNTkzOCIgc3R5bGU9InN0cm9rZTojMTgxODE4O3N0cm9rZS13aWR0aDowLjU7Ii8+PHJlY3QgZmlsbD0iI0YxRjFGMSIgaGVpZ2h0PSIzMi44NDM4IiByeD0iMTIuNSIgcnk9IjEyLjUiIHN0eWxlPSJzdHJva2U6IzE4MTgxODtzdHJva2Utd2lkdGg6MC41OyIgd2lkdGg9IjEyOCIgeD0iMTU3IiB5PSIyMzA1LjU5MzgiLz48dGV4dCBmaWxsPSIjMDAwMDAwIiBmb250LWZhbWlseT0ic2Fucy1zZXJpZiIgZm9udC1zaXplPSIxMiIgbGVuZ3RoQWRqdXN0PSJzcGFjaW5nIiB0ZXh0TGVuZ3RoPSIxMDgiIHg9IjE2NyIgeT0iMjMyNi45Mzc1Ij4mIzI2MjAyOyYjMTk5Nzg7JiMyNTE1MjsmIzI2Mzc3OyYjMjAxNTQ7JiMyMjIzODsmIzIxMDQwOyYjMjA4NDQ7JiMyMzUwNzs8L3RleHQ+PHJlY3QgZmlsbD0iI0YxRjFGMSIgaGVpZ2h0PSIzMi44NDM4IiByeD0iMTIuNSIgcnk9IjEyLjUiIHN0eWxlPSJzdHJva2U6IzE4MTgxODtzdHJva2Utd2lkdGg6MC41OyIgd2lkdGg9IjE0MCIgeD0iMTUxIiB5PSIyMzU4LjQzNzUiLz48dGV4dCBmaWxsPSIjMDAwMDAwIiBmb250LWZhbWlseT0ic2Fucy1zZXJpZiIgZm9udC1zaXplPSIxMiIgbGVuZ3RoQWRqdXN0PSJzcGFjaW5nIiB0ZXh0TGVuZ3RoPSIxMjAiIHg9IjE2MSIgeT0iMjM3OS43ODEzIj4mIzIwODQ5OyYjMjE1MTY7JiMzNTc1MjsmIzM1NzcwOyYjMjc5NjM7JiMyMTE2MDsmIzMyNDU0OyYjMzM0MTA7JiMyMzQzMzsmIzI1NDkwOzwvdGV4dD48cmVjdCBmaWxsPSIjRjFGMUYxIiBoZWlnaHQ9IjMyLjg0MzgiIHJ4PSIxMi41IiByeT0iMTIuNSIgc3R5bGU9InN0cm9rZTojMTgxODE4O3N0cm9rZS13aWR0aDowLjU7IiB3aWR0aD0iMTI4IiB4PSIxNTciIHk9IjI0MTEuMjgxMyIvPjx0ZXh0IGZpbGw9IiMwMDAwMDAiIGZvbnQtZmFtaWx5PSJzYW5zLXNlcmlmIiBmb250LXNpemU9IjEyIiBsZW5ndGhBZGp1c3Q9InNwYWNpbmciIHRleHRMZW5ndGg9IjEwOCIgeD0iMTY3IiB5PSIyNDMyLjYyNSI+JiMzMDgzMDsmIzIzNDUwOyYjMjE1MDg7JiMzMzI1ODsmIzIzNDMzOyYjMjU0OTA7JiMyNDE4MjsmIzI4Mzg1OyYjMjQ4NDc7PC90ZXh0PjxyZWN0IGZpbGw9IiNGMUYxRjEiIGhlaWdodD0iMzIuODQzOCIgcng9IjEyLjUiIHJ5PSIxMi41IiBzdHlsZT0ic3Ryb2tlOiMxODE4MTg7c3Ryb2tlLXdpZHRoOjAuNTsiIHdpZHRoPSI2OCIgeD0iMTg3IiB5PSIyNDY0LjEyNSIvPjx0ZXh0IGZpbGw9IiMwMDAwMDAiIGZvbnQtZmFtaWx5PSJzYW5zLXNlcmlmIiBmb250LXNpemU9IjEyIiBsZW5ndGhBZGp1c3Q9InNwYWNpbmciIHRleHRMZW5ndGg9IjQ4IiB4PSIxOTciIHk9IjI0ODUuNDY4OCI+JiMyMTUwODsmIzMzMjU4OyYjMjAyNDE7JiMyNDY4Nzs8L3RleHQ+PGxpbmUgc3R5bGU9InN0cm9rZTojMTgxODE4O3N0cm9rZS13aWR0aDoxLjA7IiB4MT0iMjIxIiB4Mj0iMjIxIiB5MT0iNDMuODQzOCIgeTI9IjYzLjg0MzgiLz48cG9seWdvbiBmaWxsPSIjMTgxODE4IiBwb2ludHM9IjIxNyw1My44NDM4LDIyMSw2My44NDM4LDIyNSw1My44NDM4LDIyMSw1Ny44NDM4IiBzdHlsZT0ic3Ryb2tlOiMxODE4MTg7c3Ryb2tlLXdpZHRoOjEuMDsiLz48bGluZSBzdHlsZT0ic3Ryb2tlOiMxODE4MTg7c3Ryb2tlLXdpZHRoOjEuMDsiIHgxPSIyMjEiIHgyPSIyMjEiIHkxPSI5Ni42ODc1IiB5Mj0iMTE2LjY4NzUiLz48cG9seWdvbiBmaWxsPSIjMTgxODE4IiBwb2ludHM9IjIxNywxMDYuNjg3NSwyMjEsMTE2LjY4NzUsMjI1LDEwNi42ODc1LDIyMSwxMTAuNjg3NSIgc3R5bGU9InN0cm9rZTojMTgxODE4O3N0cm9rZS13aWR0aDoxLjA7Ii8+PGxpbmUgc3R5bGU9InN0cm9rZTojMTgxODE4O3N0cm9rZS13aWR0aDoxLjA7IiB4MT0iMjIxIiB4Mj0iMjIxIiB5MT0iMTQ5LjUzMTMiIHkyPSIxNjkuNTMxMyIvPjxwb2x5Z29uIGZpbGw9IiMxODE4MTgiIHBvaW50cz0iMjE3LDE1OS41MzEzLDIyMSwxNjkuNTMxMywyMjUsMTU5LjUzMTMsMjIxLDE2My41MzEzIiBzdHlsZT0ic3Ryb2tlOiMxODE4MTg7c3Ryb2tlLXdpZHRoOjEuMDsiLz48bGluZSBzdHlsZT0ic3Ryb2tlOiMxODE4MTg7c3Ryb2tlLXdpZHRoOjEuMDsiIHgxPSIyMjEiIHgyPSIyMjEiIHkxPSIyMDIuMzc1IiB5Mj0iMjIyLjM3NSIvPjxwb2x5Z29uIGZpbGw9IiMxODE4MTgiIHBvaW50cz0iMjE3LDIxMi4zNzUsMjIxLDIyMi4zNzUsMjI1LDIxMi4zNzUsMjIxLDIxNi4zNzUiIHN0eWxlPSJzdHJva2U6IzE4MTgxODtzdHJva2Utd2lkdGg6MS4wOyIvPjxsaW5lIHN0eWxlPSJzdHJva2U6IzE4MTgxODtzdHJva2Utd2lkdGg6MS4wOyIgeDE9IjIyMSIgeDI9IjIyMSIgeTE9IjI1NS4yMTg4IiB5Mj0iMjc1LjIxODgiLz48cG9seWdvbiBmaWxsPSIjMTgxODE4IiBwb2ludHM9IjIxNywyNjUuMjE4OCwyMjEsMjc1LjIxODgsMjI1LDI2NS4yMTg4LDIyMSwyNjkuMjE4OCIgc3R5bGU9InN0cm9rZTojMTgxODE4O3N0cm9rZS13aWR0aDoxLjA7Ii8+PGxpbmUgc3R5bGU9InN0cm9rZTojMTgxODE4O3N0cm9rZS13aWR0aDoxLjA7IiB4MT0iMjIxIiB4Mj0iMjIxIiB5MT0iMzA4LjA2MjUiIHkyPSIzMjguMDYyNSIvPjxwb2x5Z29uIGZpbGw9IiMxODE4MTgiIHBvaW50cz0iMjE3LDMxOC4wNjI1LDIyMSwzMjguMDYyNSwyMjUsMzE4LjA2MjUsMjIxLDMyMi4wNjI1IiBzdHlsZT0ic3Ryb2tlOiMxODE4MTg7c3Ryb2tlLXdpZHRoOjEuMDsiLz48bGluZSBzdHlsZT0ic3Ryb2tlOiMxODE4MTg7c3Ryb2tlLXdpZHRoOjEuMDsiIHgxPSIyMjEiIHgyPSIyMjEiIHkxPSIzNjAuOTA2MyIgeTI9IjM4MC45MDYzIi8+PHBvbHlnb24gZmlsbD0iIzE4MTgxOCIgcG9pbnRzPSIyMTcsMzcwLjkwNjMsMjIxLDM4MC45MDYzLDIyNSwzNzAuOTA2MywyMjEsMzc0LjkwNjMiIHN0eWxlPSJzdHJva2U6IzE4MTgxODtzdHJva2Utd2lkdGg6MS4wOyIvPjxsaW5lIHN0eWxlPSJzdHJva2U6IzE4MTgxODtzdHJva2Utd2lkdGg6MS4wOyIgeDE9IjIyMSIgeDI9IjIyMSIgeTE9IjQxMy43NSIgeTI9IjQzMy43NSIvPjxwb2x5Z29uIGZpbGw9IiMxODE4MTgiIHBvaW50cz0iMjE3LDQyMy43NSwyMjEsNDMzLjc1LDIyNSw0MjMuNzUsMjIxLDQyNy43NSIgc3R5bGU9InN0cm9rZTojMTgxODE4O3N0cm9rZS13aWR0aDoxLjA7Ii8+PGxpbmUgc3R5bGU9InN0cm9rZTojMTgxODE4O3N0cm9rZS13aWR0aDoxLjA7IiB4MT0iMjIxIiB4Mj0iMjIxIiB5MT0iNDY2LjU5MzgiIHkyPSI0ODYuNTkzOCIvPjxwb2x5Z29uIGZpbGw9IiMxODE4MTgiIHBvaW50cz0iMjE3LDQ3Ni41OTM4LDIyMSw0ODYuNTkzOCwyMjUsNDc2LjU5MzgsMjIxLDQ4MC41OTM4IiBzdHlsZT0ic3Ryb2tlOiMxODE4MTg7c3Ryb2tlLXdpZHRoOjEuMDsiLz48bGluZSBzdHlsZT0ic3Ryb2tlOiMxODE4MTg7c3Ryb2tlLXdpZHRoOjEuMDsiIHgxPSIyMjEiIHgyPSIyMjEiIHkxPSI1MTkuNDM3NSIgeTI9IjUzOS40Mzc1Ii8+PHBvbHlnb24gZmlsbD0iIzE4MTgxOCIgcG9pbnRzPSIyMTcsNTI5LjQzNzUsMjIxLDUzOS40Mzc1LDIyNSw1MjkuNDM3NSwyMjEsNTMzLjQzNzUiIHN0eWxlPSJzdHJva2U6IzE4MTgxODtzdHJva2Utd2lkdGg6MS4wOyIvPjxsaW5lIHN0eWxlPSJzdHJva2U6IzE4MTgxODtzdHJva2Utd2lkdGg6MS4wOyIgeDE9IjIyMSIgeDI9IjIyMSIgeTE9IjU3Mi4yODEzIiB5Mj0iNTkyLjI4MTMiLz48cG9seWdvbiBmaWxsPSIjMTgxODE4IiBwb2ludHM9IjIxNyw1ODIuMjgxMywyMjEsNTkyLjI4MTMsMjI1LDU4Mi4yODEzLDIyMSw1ODYuMjgxMyIgc3R5bGU9InN0cm9rZTojMTgxODE4O3N0cm9rZS13aWR0aDoxLjA7Ii8+PGxpbmUgc3R5bGU9InN0cm9rZTojMTgxODE4O3N0cm9rZS13aWR0aDoxLjA7IiB4MT0iMTI3LjUiIHgyPSIxMjcuNSIgeTE9IjcxMS45Njg4IiB5Mj0iNzMxLjk2ODgiLz48cG9seWdvbiBmaWxsPSIjMTgxODE4IiBwb2ludHM9IjEyMy41LDcyMS45Njg4LDEyNy41LDczMS45Njg4LDEzMS41LDcyMS45Njg4LDEyNy41LDcyNS45Njg4IiBzdHlsZT0ic3Ryb2tlOiMxODE4MTg7c3Ryb2tlLXdpZHRoOjEuMDsiLz48bGluZSBzdHlsZT0ic3Ryb2tlOiMxODE4MTg7c3Ryb2tlLXdpZHRoOjEuMDsiIHgxPSIxMjcuNSIgeDI9IjEyNy41IiB5MT0iNzY0LjgxMjUiIHkyPSI3ODQuODEyNSIvPjxwb2x5Z29uIGZpbGw9IiMxODE4MTgiIHBvaW50cz0iMTIzLjUsNzc0LjgxMjUsMTI3LjUsNzg0LjgxMjUsMTMxLjUsNzc0LjgxMjUsMTI3LjUsNzc4LjgxMjUiIHN0eWxlPSJzdHJva2U6IzE4MTgxODtzdHJva2Utd2lkdGg6MS4wOyIvPjxsaW5lIHN0eWxlPSJzdHJva2U6IzE4MTgxODtzdHJva2Utd2lkdGg6MS4wOyIgeDE9IjEyNy41IiB4Mj0iMTI3LjUiIHkxPSI4MTcuNjU2MyIgeTI9IjgzNy42NTYzIi8+PHBvbHlnb24gZmlsbD0iIzE4MTgxOCIgcG9pbnRzPSIxMjMuNSw4MjcuNjU2MywxMjcuNSw4MzcuNjU2MywxMzEuNSw4MjcuNjU2MywxMjcuNSw4MzEuNjU2MyIgc3R5bGU9InN0cm9rZTojMTgxODE4O3N0cm9rZS13aWR0aDoxLjA7Ii8+PGxpbmUgc3R5bGU9InN0cm9rZTojMTgxODE4O3N0cm9rZS13aWR0aDoxLjA7IiB4MT0iMTI3LjUiIHgyPSIxMjcuNSIgeTE9Ijg3MC41IiB5Mj0iODkwLjUiLz48cG9seWdvbiBmaWxsPSIjMTgxODE4IiBwb2ludHM9IjEyMy41LDg4MC41LDEyNy41LDg5MC41LDEzMS41LDg4MC41LDEyNy41LDg4NC41IiBzdHlsZT0ic3Ryb2tlOiMxODE4MTg7c3Ryb2tlLXdpZHRoOjEuMDsiLz48bGluZSBzdHlsZT0ic3Ryb2tlOiMxODE4MTg7c3Ryb2tlLXdpZHRoOjEuMDsiIHgxPSIxMjcuNSIgeDI9IjEyNy41IiB5MT0iOTIzLjM0MzgiIHkyPSI5NDMuMzQzOCIvPjxwb2x5Z29uIGZpbGw9IiMxODE4MTgiIHBvaW50cz0iMTIzLjUsOTMzLjM0MzgsMTI3LjUsOTQzLjM0MzgsMTMxLjUsOTMzLjM0MzgsMTI3LjUsOTM3LjM0MzgiIHN0eWxlPSJzdHJva2U6IzE4MTgxODtzdHJva2Utd2lkdGg6MS4wOyIvPjxsaW5lIHN0eWxlPSJzdHJva2U6IzE4MTgxODtzdHJva2Utd2lkdGg6MS4wOyIgeDE9IjEyNy41IiB4Mj0iMTI3LjUiIHkxPSI5NzYuMTg3NSIgeTI9Ijk5Ni4xODc1Ii8+PHBvbHlnb24gZmlsbD0iIzE4MTgxOCIgcG9pbnRzPSIxMjMuNSw5ODYuMTg3NSwxMjcuNSw5OTYuMTg3NSwxMzEuNSw5ODYuMTg3NSwxMjcuNSw5OTAuMTg3NSIgc3R5bGU9InN0cm9rZTojMTgxODE4O3N0cm9rZS13aWR0aDoxLjA7Ii8+PGxpbmUgc3R5bGU9InN0cm9rZTojMTgxODE4O3N0cm9rZS13aWR0aDoxLjA7IiB4MT0iMTI3LjUiIHgyPSIxMjcuNSIgeTE9IjEwMjkuMDMxMyIgeTI9IjEwNDkuMDMxMyIvPjxwb2x5Z29uIGZpbGw9IiMxODE4MTgiIHBvaW50cz0iMTIzLjUsMTAzOS4wMzEzLDEyNy41LDEwNDkuMDMxMywxMzEuNSwxMDM5LjAzMTMsMTI3LjUsMTA0My4wMzEzIiBzdHlsZT0ic3Ryb2tlOiMxODE4MTg7c3Ryb2tlLXdpZHRoOjEuMDsiLz48bGluZSBzdHlsZT0ic3Ryb2tlOiMxODE4MTg7c3Ryb2tlLXdpZHRoOjEuMDsiIHgxPSIxMjcuNSIgeDI9IjEyNy41IiB5MT0iMTA4MS44NzUiIHkyPSIxMTAxLjg3NSIvPjxwb2x5Z29uIGZpbGw9IiMxODE4MTgiIHBvaW50cz0iMTIzLjUsMTA5MS44NzUsMTI3LjUsMTEwMS44NzUsMTMxLjUsMTA5MS44NzUsMTI3LjUsMTA5NS44NzUiIHN0eWxlPSJzdHJva2U6IzE4MTgxODtzdHJva2Utd2lkdGg6MS4wOyIvPjxsaW5lIHN0eWxlPSJzdHJva2U6IzE4MTgxODtzdHJva2Utd2lkdGg6MS4wOyIgeDE9IjEyNy41IiB4Mj0iMTI3LjUiIHkxPSIxMTM0LjcxODgiIHkyPSIxMTU0LjcxODgiLz48cG9seWdvbiBmaWxsPSIjMTgxODE4IiBwb2ludHM9IjEyMy41LDExNDQuNzE4OCwxMjcuNSwxMTU0LjcxODgsMTMxLjUsMTE0NC43MTg4LDEyNy41LDExNDguNzE4OCIgc3R5bGU9InN0cm9rZTojMTgxODE4O3N0cm9rZS13aWR0aDoxLjA7Ii8+PGxpbmUgc3R5bGU9InN0cm9rZTojMTgxODE4O3N0cm9rZS13aWR0aDoxLjA7IiB4MT0iMTM3LjUiIHgyPSIxMjcuNSIgeTE9IjY1Ny4xMjUiIHkyPSI2NTcuMTI1Ii8+PGxpbmUgc3R5bGU9InN0cm9rZTojMTgxODE4O3N0cm9rZS13aWR0aDoxLjA7IiB4MT0iMTI3LjUiIHgyPSIxMjcuNSIgeTE9IjY1Ny4xMjUiIHkyPSI2NzkuMTI1Ii8+PHBvbHlnb24gZmlsbD0iIzE4MTgxOCIgcG9pbnRzPSIxMjMuNSw2NjkuMTI1LDEyNy41LDY3OS4xMjUsMTMxLjUsNjY5LjEyNSwxMjcuNSw2NzMuMTI1IiBzdHlsZT0ic3Ryb2tlOiMxODE4MTg7c3Ryb2tlLXdpZHRoOjEuMDsiLz48bGluZSBzdHlsZT0ic3Ryb2tlOiMxODE4MTg7c3Ryb2tlLXdpZHRoOjEuMDsiIHgxPSIzMDQuNSIgeDI9IjMxNC41IiB5MT0iNjU3LjEyNSIgeTI9IjY1Ny4xMjUiLz48bGluZSBzdHlsZT0ic3Ryb2tlOiMxODE4MTg7c3Ryb2tlLXdpZHRoOjEuMDsiIHgxPSIzMTQuNSIgeDI9IjMxNC41IiB5MT0iNjU3LjEyNSIgeTI9IjY3OS4xMjUiLz48cG9seWdvbiBmaWxsPSIjMTgxODE4IiBwb2ludHM9IjMxMC41LDY2OS4xMjUsMzE0LjUsNjc5LjEyNSwzMTguNSw2NjkuMTI1LDMxNC41LDY3My4xMjUiIHN0eWxlPSJzdHJva2U6IzE4MTgxODtzdHJva2Utd2lkdGg6MS4wOyIvPjxsaW5lIHN0eWxlPSJzdHJva2U6IzE4MTgxODtzdHJva2Utd2lkdGg6MS4wOyIgeDE9IjEyNy41IiB4Mj0iMTI3LjUiIHkxPSIxMTg3LjU2MjUiIHkyPSIxMjA1LjU2MjUiLz48bGluZSBzdHlsZT0ic3Ryb2tlOiMxODE4MTg7c3Ryb2tlLXdpZHRoOjEuMDsiIHgxPSIxMjcuNSIgeDI9IjIwOSIgeTE9IjEyMDUuNTYyNSIgeTI9IjEyMDUuNTYyNSIvPjxwb2x5Z29uIGZpbGw9IiMxODE4MTgiIHBvaW50cz0iMTk5LDEyMDEuNTYyNSwyMDksMTIwNS41NjI1LDE5OSwxMjA5LjU2MjUsMjAzLDEyMDUuNTYyNSIgc3R5bGU9InN0cm9rZTojMTgxODE4O3N0cm9rZS13aWR0aDoxLjA7Ii8+PGxpbmUgc3R5bGU9InN0cm9rZTojMTgxODE4O3N0cm9rZS13aWR0aDoxLjA7IiB4MT0iMzE0LjUiIHgyPSIzMTQuNSIgeTE9IjcxMS45Njg4IiB5Mj0iMTIwNS41NjI1Ii8+PGxpbmUgc3R5bGU9InN0cm9rZTojMTgxODE4O3N0cm9rZS13aWR0aDoxLjA7IiB4MT0iMzE0LjUiIHgyPSIyMzMiIHkxPSIxMjA1LjU2MjUiIHkyPSIxMjA1LjU2MjUiLz48cG9seWdvbiBmaWxsPSIjMTgxODE4IiBwb2ludHM9IjI0MywxMjAxLjU2MjUsMjMzLDEyMDUuNTYyNSwyNDMsMTIwOS41NjI1LDIzOSwxMjA1LjU2MjUiIHN0eWxlPSJzdHJva2U6IzE4MTgxODtzdHJva2Utd2lkdGg6MS4wOyIvPjxsaW5lIHN0eWxlPSJzdHJva2U6IzE4MTgxODtzdHJva2Utd2lkdGg6MS4wOyIgeDE9IjIyMSIgeDI9IjIyMSIgeTE9IjYyNS4xMjUiIHkyPSI2NDUuMTI1Ii8+PHBvbHlnb24gZmlsbD0iIzE4MTgxOCIgcG9pbnRzPSIyMTcsNjM1LjEyNSwyMjEsNjQ1LjEyNSwyMjUsNjM1LjEyNSwyMjEsNjM5LjEyNSIgc3R5bGU9InN0cm9rZTojMTgxODE4O3N0cm9rZS13aWR0aDoxLjA7Ii8+PGxpbmUgc3R5bGU9InN0cm9rZTojMTgxODE4O3N0cm9rZS13aWR0aDoxLjA7IiB4MT0iMjIxIiB4Mj0iMjIxIiB5MT0iMTIxNy41NjI1IiB5Mj0iMTIzNy41NjI1Ii8+PHBvbHlnb24gZmlsbD0iIzE4MTgxOCIgcG9pbnRzPSIyMTcsMTIyNy41NjI1LDIyMSwxMjM3LjU2MjUsMjI1LDEyMjcuNTYyNSwyMjEsMTIzMS41NjI1IiBzdHlsZT0ic3Ryb2tlOiMxODE4MTg7c3Ryb2tlLXdpZHRoOjEuMDsiLz48bGluZSBzdHlsZT0ic3Ryb2tlOiMxODE4MTg7c3Ryb2tlLXdpZHRoOjEuMDsiIHgxPSIyMjEiIHgyPSIyMjEiIHkxPSIxMjcwLjQwNjMiIHkyPSIxMjkwLjQwNjMiLz48cG9seWdvbiBmaWxsPSIjMTgxODE4IiBwb2ludHM9IjIxNywxMjgwLjQwNjMsMjIxLDEyOTAuNDA2MywyMjUsMTI4MC40MDYzLDIyMSwxMjg0LjQwNjMiIHN0eWxlPSJzdHJva2U6IzE4MTgxODtzdHJva2Utd2lkdGg6MS4wOyIvPjxsaW5lIHN0eWxlPSJzdHJva2U6IzE4MTgxODtzdHJva2Utd2lkdGg6MS4wOyIgeDE9IjIyMSIgeDI9IjIyMSIgeTE9IjEzMjMuMjUiIHkyPSIxMzQzLjI1Ii8+PHBvbHlnb24gZmlsbD0iIzE4MTgxOCIgcG9pbnRzPSIyMTcsMTMzMy4yNSwyMjEsMTM0My4yNSwyMjUsMTMzMy4yNSwyMjEsMTMzNy4yNSIgc3R5bGU9InN0cm9rZTojMTgxODE4O3N0cm9rZS13aWR0aDoxLjA7Ii8+PGxpbmUgc3R5bGU9InN0cm9rZTojMTgxODE4O3N0cm9rZS13aWR0aDoxLjA7IiB4MT0iMjIxIiB4Mj0iMjIxIiB5MT0iMTM3Ni4wOTM4IiB5Mj0iMTM5Ni4wOTM4Ii8+PHBvbHlnb24gZmlsbD0iIzE4MTgxOCIgcG9pbnRzPSIyMTcsMTM4Ni4wOTM4LDIyMSwxMzk2LjA5MzgsMjI1LDEzODYuMDkzOCwyMjEsMTM5MC4wOTM4IiBzdHlsZT0ic3Ryb2tlOiMxODE4MTg7c3Ryb2tlLXdpZHRoOjEuMDsiLz48bGluZSBzdHlsZT0ic3Ryb2tlOiMxODE4MTg7c3Ryb2tlLXdpZHRoOjEuMDsiIHgxPSIyMjEiIHgyPSIyMjEiIHkxPSIxNDI4LjkzNzUiIHkyPSIxNDQ4LjkzNzUiLz48cG9seWdvbiBmaWxsPSIjMTgxODE4IiBwb2ludHM9IjIxNywxNDM4LjkzNzUsMjIxLDE0NDguOTM3NSwyMjUsMTQzOC45Mzc1LDIyMSwxNDQyLjkzNzUiIHN0eWxlPSJzdHJva2U6IzE4MTgxODtzdHJva2Utd2lkdGg6MS4wOyIvPjxsaW5lIHN0eWxlPSJzdHJva2U6IzE4MTgxODtzdHJva2Utd2lkdGg6MS4wOyIgeDE9IjExMSIgeDI9IjExMSIgeTE9IjE1NjguNjI1IiB5Mj0iMTU4OC42MjUiLz48cG9seWdvbiBmaWxsPSIjMTgxODE4IiBwb2ludHM9IjEwNywxNTc4LjYyNSwxMTEsMTU4OC42MjUsMTE1LDE1NzguNjI1LDExMSwxNTgyLjYyNSIgc3R5bGU9InN0cm9rZTojMTgxODE4O3N0cm9rZS13aWR0aDoxLjA7Ii8+PGxpbmUgc3R5bGU9InN0cm9rZTojMTgxODE4O3N0cm9rZS13aWR0aDoxLjA7IiB4MT0iMTExIiB4Mj0iMTExIiB5MT0iMTYyMS40Njg4IiB5Mj0iMTY0MS40Njg4Ii8+PHBvbHlnb24gZmlsbD0iIzE4MTgxOCIgcG9pbnRzPSIxMDcsMTYzMS40Njg4LDExMSwxNjQxLjQ2ODgsMTE1LDE2MzEuNDY4OCwxMTEsMTYzNS40Njg4IiBzdHlsZT0ic3Ryb2tlOiMxODE4MTg7c3Ryb2tlLXdpZHRoOjEuMDsiLz48bGluZSBzdHlsZT0ic3Ryb2tlOiMxODE4MTg7c3Ryb2tlLXdpZHRoOjEuMDsiIHgxPSIxMTEiIHgyPSIxMTEiIHkxPSIxNjc0LjMxMjUiIHkyPSIxNjk0LjMxMjUiLz48cG9seWdvbiBmaWxsPSIjMTgxODE4IiBwb2ludHM9IjEwNywxNjg0LjMxMjUsMTExLDE2OTQuMzEyNSwxMTUsMTY4NC4zMTI1LDExMSwxNjg4LjMxMjUiIHN0eWxlPSJzdHJva2U6IzE4MTgxODtzdHJva2Utd2lkdGg6MS4wOyIvPjxsaW5lIHN0eWxlPSJzdHJva2U6IzE4MTgxODtzdHJva2Utd2lkdGg6MS4wOyIgeDE9IjExMSIgeDI9IjExMSIgeTE9IjE3MjcuMTU2MyIgeTI9IjE3NDcuMTU2MyIvPjxwb2x5Z29uIGZpbGw9IiMxODE4MTgiIHBvaW50cz0iMTA3LDE3MzcuMTU2MywxMTEsMTc0Ny4xNTYzLDExNSwxNzM3LjE1NjMsMTExLDE3NDEuMTU2MyIgc3R5bGU9InN0cm9rZTojMTgxODE4O3N0cm9rZS13aWR0aDoxLjA7Ii8+PGxpbmUgc3R5bGU9InN0cm9rZTojMTgxODE4O3N0cm9rZS13aWR0aDoxLjA7IiB4MT0iMTExIiB4Mj0iMTExIiB5MT0iMTc4MCIgeTI9IjE4MDAiLz48cG9seWdvbiBmaWxsPSIjMTgxODE4IiBwb2ludHM9IjEwNywxNzkwLDExMSwxODAwLDExNSwxNzkwLDExMSwxNzk0IiBzdHlsZT0ic3Ryb2tlOiMxODE4MTg7c3Ryb2tlLXdpZHRoOjEuMDsiLz48bGluZSBzdHlsZT0ic3Ryb2tlOiMxODE4MTg7c3Ryb2tlLXdpZHRoOjEuMDsiIHgxPSIxMTEiIHgyPSIxMTEiIHkxPSIxODMyLjg0MzgiIHkyPSIxODUyLjg0MzgiLz48cG9seWdvbiBmaWxsPSIjMTgxODE4IiBwb2ludHM9IjEwNywxODQyLjg0MzgsMTExLDE4NTIuODQzOCwxMTUsMTg0Mi44NDM4LDExMSwxODQ2Ljg0MzgiIHN0eWxlPSJzdHJva2U6IzE4MTgxODtzdHJva2Utd2lkdGg6MS4wOyIvPjxsaW5lIHN0eWxlPSJzdHJva2U6IzE4MTgxODtzdHJva2Utd2lkdGg6MS4wOyIgeDE9IjExMSIgeDI9IjExMSIgeTE9IjE4ODUuNjg3NSIgeTI9IjE5MDUuNjg3NSIvPjxwb2x5Z29uIGZpbGw9IiMxODE4MTgiIHBvaW50cz0iMTA3LDE4OTUuNjg3NSwxMTEsMTkwNS42ODc1LDExNSwxODk1LjY4NzUsMTExLDE4OTkuNjg3NSIgc3R5bGU9InN0cm9rZTojMTgxODE4O3N0cm9rZS13aWR0aDoxLjA7Ii8+PGxpbmUgc3R5bGU9InN0cm9rZTojMTgxODE4O3N0cm9rZS13aWR0aDoxLjA7IiB4MT0iMTExIiB4Mj0iMTExIiB5MT0iMTkzOC41MzEzIiB5Mj0iMTk1OC41MzEzIi8+PHBvbHlnb24gZmlsbD0iIzE4MTgxOCIgcG9pbnRzPSIxMDcsMTk0OC41MzEzLDExMSwxOTU4LjUzMTMsMTE1LDE5NDguNTMxMywxMTEsMTk1Mi41MzEzIiBzdHlsZT0ic3Ryb2tlOiMxODE4MTg7c3Ryb2tlLXdpZHRoOjEuMDsiLz48bGluZSBzdHlsZT0ic3Ryb2tlOiMxODE4MTg7c3Ryb2tlLXdpZHRoOjEuMDsiIHgxPSIxMTEiIHgyPSIxMTEiIHkxPSIxOTkxLjM3NSIgeTI9IjIwMTEuMzc1Ii8+PHBvbHlnb24gZmlsbD0iIzE4MTgxOCIgcG9pbnRzPSIxMDcsMjAwMS4zNzUsMTExLDIwMTEuMzc1LDExNSwyMDAxLjM3NSwxMTEsMjAwNS4zNzUiIHN0eWxlPSJzdHJva2U6IzE4MTgxODtzdHJva2Utd2lkdGg6MS4wOyIvPjxsaW5lIHN0eWxlPSJzdHJva2U6IzE4MTgxODtzdHJva2Utd2lkdGg6MS4wOyIgeDE9IjExMSIgeDI9IjExMSIgeTE9IjIwNDQuMjE4OCIgeTI9IjIwNjQuMjE4OCIvPjxwb2x5Z29uIGZpbGw9IiMxODE4MTgiIHBvaW50cz0iMTA3LDIwNTQuMjE4OCwxMTEsMjA2NC4yMTg4LDExNSwyMDU0LjIxODgsMTExLDIwNTguMjE4OCIgc3R5bGU9InN0cm9rZTojMTgxODE4O3N0cm9rZS13aWR0aDoxLjA7Ii8+PGxpbmUgc3R5bGU9InN0cm9rZTojMTgxODE4O3N0cm9rZS13aWR0aDoxLjA7IiB4MT0iMTExIiB4Mj0iMTExIiB5MT0iMjA5Ny4wNjI1IiB5Mj0iMjExNy4wNjI1Ii8+PHBvbHlnb24gZmlsbD0iIzE4MTgxOCIgcG9pbnRzPSIxMDcsMjEwNy4wNjI1LDExMSwyMTE3LjA2MjUsMTE1LDIxMDcuMDYyNSwxMTEsMjExMS4wNjI1IiBzdHlsZT0ic3Ryb2tlOiMxODE4MTg7c3Ryb2tlLXdpZHRoOjEuMDsiLz48bGluZSBzdHlsZT0ic3Ryb2tlOiMxODE4MTg7c3Ryb2tlLXdpZHRoOjEuMDsiIHgxPSIxMTEiIHgyPSIxMTEiIHkxPSIyMTQ5LjkwNjMiIHkyPSIyMTY5LjkwNjMiLz48cG9seWdvbiBmaWxsPSIjMTgxODE4IiBwb2ludHM9IjEwNywyMTU5LjkwNjMsMTExLDIxNjkuOTA2MywxMTUsMjE1OS45MDYzLDExMSwyMTYzLjkwNjMiIHN0eWxlPSJzdHJva2U6IzE4MTgxODtzdHJva2Utd2lkdGg6MS4wOyIvPjxsaW5lIHN0eWxlPSJzdHJva2U6IzE4MTgxODtzdHJva2Utd2lkdGg6MS4wOyIgeDE9IjExMSIgeDI9IjExMSIgeTE9IjIyMDIuNzUiIHkyPSIyMjIyLjc1Ii8+PHBvbHlnb24gZmlsbD0iIzE4MTgxOCIgcG9pbnRzPSIxMDcsMjIxMi43NSwxMTEsMjIyMi43NSwxMTUsMjIxMi43NSwxMTEsMjIxNi43NSIgc3R5bGU9InN0cm9rZTojMTgxODE4O3N0cm9rZS13aWR0aDoxLjA7Ii8+PGxpbmUgc3R5bGU9InN0cm9rZTojMTgxODE4O3N0cm9rZS13aWR0aDoxLjA7IiB4MT0iMTIxIiB4Mj0iMTExIiB5MT0iMTUxMy43ODEzIiB5Mj0iMTUxMy43ODEzIi8+PGxpbmUgc3R5bGU9InN0cm9rZTojMTgxODE4O3N0cm9rZS13aWR0aDoxLjA7IiB4MT0iMTExIiB4Mj0iMTExIiB5MT0iMTUxMy43ODEzIiB5Mj0iMTUzNS43ODEzIi8+PHBvbHlnb24gZmlsbD0iIzE4MTgxOCIgcG9pbnRzPSIxMDcsMTUyNS43ODEzLDExMSwxNTM1Ljc4MTMsMTE1LDE1MjUuNzgxMywxMTEsMTUyOS43ODEzIiBzdHlsZT0ic3Ryb2tlOiMxODE4MTg7c3Ryb2tlLXdpZHRoOjEuMDsiLz48bGluZSBzdHlsZT0ic3Ryb2tlOiMxODE4MTg7c3Ryb2tlLXdpZHRoOjEuMDsiIHgxPSIzMjEiIHgyPSIzMzEiIHkxPSIxNTEzLjc4MTMiIHkyPSIxNTEzLjc4MTMiLz48bGluZSBzdHlsZT0ic3Ryb2tlOiMxODE4MTg7c3Ryb2tlLXdpZHRoOjEuMDsiIHgxPSIzMzEiIHgyPSIzMzEiIHkxPSIxNTEzLjc4MTMiIHkyPSIxNTM1Ljc4MTMiLz48cG9seWdvbiBmaWxsPSIjMTgxODE4IiBwb2ludHM9IjMyNywxNTI1Ljc4MTMsMzMxLDE1MzUuNzgxMywzMzUsMTUyNS43ODEzLDMzMSwxNTI5Ljc4MTMiIHN0eWxlPSJzdHJva2U6IzE4MTgxODtzdHJva2Utd2lkdGg6MS4wOyIvPjxsaW5lIHN0eWxlPSJzdHJva2U6IzE4MTgxODtzdHJva2Utd2lkdGg6MS4wOyIgeDE9IjExMSIgeDI9IjExMSIgeTE9IjIyNTUuNTkzOCIgeTI9IjIyNzMuNTkzOCIvPjxsaW5lIHN0eWxlPSJzdHJva2U6IzE4MTgxODtzdHJva2Utd2lkdGg6MS4wOyIgeDE9IjExMSIgeDI9IjIwOSIgeTE9IjIyNzMuNTkzOCIgeTI9IjIyNzMuNTkzOCIvPjxwb2x5Z29uIGZpbGw9IiMxODE4MTgiIHBvaW50cz0iMTk5LDIyNjkuNTkzOCwyMDksMjI3My41OTM4LDE5OSwyMjc3LjU5MzgsMjAzLDIyNzMuNTkzOCIgc3R5bGU9InN0cm9rZTojMTgxODE4O3N0cm9rZS13aWR0aDoxLjA7Ii8+PGxpbmUgc3R5bGU9InN0cm9rZTojMTgxODE4O3N0cm9rZS13aWR0aDoxLjA7IiB4MT0iMzMxIiB4Mj0iMzMxIiB5MT0iMTU2OC42MjUiIHkyPSIyMjczLjU5MzgiLz48bGluZSBzdHlsZT0ic3Ryb2tlOiMxODE4MTg7c3Ryb2tlLXdpZHRoOjEuMDsiIHgxPSIzMzEiIHgyPSIyMzMiIHkxPSIyMjczLjU5MzgiIHkyPSIyMjczLjU5MzgiLz48cG9seWdvbiBmaWxsPSIjMTgxODE4IiBwb2ludHM9IjI0MywyMjY5LjU5MzgsMjMzLDIyNzMuNTkzOCwyNDMsMjI3Ny41OTM4LDIzOSwyMjczLjU5MzgiIHN0eWxlPSJzdHJva2U6IzE4MTgxODtzdHJva2Utd2lkdGg6MS4wOyIvPjxsaW5lIHN0eWxlPSJzdHJva2U6IzE4MTgxODtzdHJva2Utd2lkdGg6MS4wOyIgeDE9IjIyMSIgeDI9IjIyMSIgeTE9IjE0ODEuNzgxMyIgeTI9IjE1MDEuNzgxMyIvPjxwb2x5Z29uIGZpbGw9IiMxODE4MTgiIHBvaW50cz0iMjE3LDE0OTEuNzgxMywyMjEsMTUwMS43ODEzLDIyNSwxNDkxLjc4MTMsMjIxLDE0OTUuNzgxMyIgc3R5bGU9InN0cm9rZTojMTgxODE4O3N0cm9rZS13aWR0aDoxLjA7Ii8+PGxpbmUgc3R5bGU9InN0cm9rZTojMTgxODE4O3N0cm9rZS13aWR0aDoxLjA7IiB4MT0iMjIxIiB4Mj0iMjIxIiB5MT0iMjI4NS41OTM4IiB5Mj0iMjMwNS41OTM4Ii8+PHBvbHlnb24gZmlsbD0iIzE4MTgxOCIgcG9pbnRzPSIyMTcsMjI5NS41OTM4LDIyMSwyMzA1LjU5MzgsMjI1LDIyOTUuNTkzOCwyMjEsMjI5OS41OTM4IiBzdHlsZT0ic3Ryb2tlOiMxODE4MTg7c3Ryb2tlLXdpZHRoOjEuMDsiLz48bGluZSBzdHlsZT0ic3Ryb2tlOiMxODE4MTg7c3Ryb2tlLXdpZHRoOjEuMDsiIHgxPSIyMjEiIHgyPSIyMjEiIHkxPSIyMzM4LjQzNzUiIHkyPSIyMzU4LjQzNzUiLz48cG9seWdvbiBmaWxsPSIjMTgxODE4IiBwb2ludHM9IjIxNywyMzQ4LjQzNzUsMjIxLDIzNTguNDM3NSwyMjUsMjM0OC40Mzc1LDIyMSwyMzUyLjQzNzUiIHN0eWxlPSJzdHJva2U6IzE4MTgxODtzdHJva2Utd2lkdGg6MS4wOyIvPjxsaW5lIHN0eWxlPSJzdHJva2U6IzE4MTgxODtzdHJva2Utd2lkdGg6MS4wOyIgeDE9IjIyMSIgeDI9IjIyMSIgeTE9IjIzOTEuMjgxMyIgeTI9IjI0MTEuMjgxMyIvPjxwb2x5Z29uIGZpbGw9IiMxODE4MTgiIHBvaW50cz0iMjE3LDI0MDEuMjgxMywyMjEsMjQxMS4yODEzLDIyNSwyNDAxLjI4MTMsMjIxLDI0MDUuMjgxMyIgc3R5bGU9InN0cm9rZTojMTgxODE4O3N0cm9rZS13aWR0aDoxLjA7Ii8+PGxpbmUgc3R5bGU9InN0cm9rZTojMTgxODE4O3N0cm9rZS13aWR0aDoxLjA7IiB4MT0iMjIxIiB4Mj0iMjIxIiB5MT0iMjQ0NC4xMjUiIHkyPSIyNDY0LjEyNSIvPjxwb2x5Z29uIGZpbGw9IiMxODE4MTgiIHBvaW50cz0iMjE3LDI0NTQuMTI1LDIyMSwyNDY0LjEyNSwyMjUsMjQ1NC4xMjUsMjIxLDI0NTguMTI1IiBzdHlsZT0ic3Ryb2tlOiMxODE4MTg7c3Ryb2tlLXdpZHRoOjEuMDsiLz48IS0tU1JDPVtaTE5SU2pmODQ3dEZMX1duX2VOYVFyQXhKY3NnS2pkSzlZenZtczEwMkNKNW5ib0NNMm5wNElINktjb0NYT1JCcHFwdFo5eHM1eFA3V3NOWVh3c2pTaGQ0SkN5dnRNVnd6Qm8xVEdSU0NoTzJTTk42bW1tcWZoMVFZbGFBSGFOd0hsbDd2dFRfVlZ0c3pqS1JpQVVxWi1Dclo1b2V2ZGFPZ0d6bDJTSzJuVjhtNEJxVWpjVm5nQXcyd21zem9yYlBDMGtpVW1XQU8wSk83bkZGNHdKcTdxTXIzRWo4QldQb0NISkwwRW04bWZwT1U3MVVhVHVNTW5sMTVjWUVMQjB0YlR2LTVyaWhUOG5fclhOWFVFMVR5UDM1RG5xd1dscXdqaGduZFM2Vk1QTDViTTZfWWpzQms3REZqRFdVcW92NFJUZkFyb2E3RDFlR1Vmb3JlRFFBWG1DNTRrUjFrYkc4bFJ5ZlF5WlZXZHoxa2lYVDNfQlp6Mm1Ra3hZem1EOHNaU1ZzRFB4TFExNWczSWhkYTVzdTdWMEJiOEZxMGhIbDVOWEdFQUpacUtZbVJkZjRxTDVrYnJzQTRRS1BMSFVGRlBLX1l3SmQ3UE9XdmFzOGNiRzJ4Qmh3dmJBMWpNUVJjVW9rdkF1RXZmSWxodFhLMWlfTXkyR19GaXBxS1Q5UlVXeHdKVmRHWXZzTHcxNzlYX1Q3aHRNQ3oxU2dFd0YxR3ZGd0c5ZlBvNWpvaVM5b1lRejN3TS1GWnh4LVNWQTltZkRpVTVHdV9hei1vYXUzZXJLWkwxOThQWWlvTXFob0VnREpwbTZyRVhNaXNMQm9iNU85T0pJbUVlUFFjeXdZVEtDbmNhaXdHeEdqdFJmeGc0ZUhfM0tGb3RJSHFnYjBkTXg1cWIwZ2p5cnBMWUF3bmxiRzltUmszaW9UaWVOWnlMcVZ4SDlVNmxlS25WRjg1U3ExTmhkT1NKNWVPajFCNWl5OTQ2ZVRzQlJicWdJc2ZfeXlrZ0NFSTJiYWFFRlI3NTc0Y1JQZ0dKQllCZ1ZBaUdVZ2duOTA3YmV1bHRkeHdrSlpidkVacnRaZFE3TUZhd0I1WEQ0WEtmaHNGX3QtdUpxMUhuRW8wdFA5T19CWTRaOVRBZHRWbEdMQnR1UFcxVDlGa3FDLUZDMWUxYnZITEpjVnVCSzMzTENDbmhYV0laX0YwVURTakw0UWJoMGhfRDE0U29EYzRMV3JDNlR4cFRZUE9DS05qd3M5TzdzRG92dm9HUEUxRHpBUF9GUmRieXlWdHR0SlBCZm5MUkdFRk0xSTlqR3JyQWtfakFmam9NNlVaQTU3NDVIUUMyYzh2WEdrSmROZFFnV3VjejRjZl9rYmdPTEpIdkhNckNqYVVDZzZIbjdWTjUzSVdkTVVNYlhmVXozNTZhUEZpaURtTU9oR3pYRVJ0S2J0SUYzNDM0UUZGY0lrV2JyVjNSNGFYV1hid0l3UFUxRWJscGtDWS1PWDU5ZVBVN0dmTmdNTU5RYjhEbWwtRzJTaGVueWFXeDk4V2lSM2dadWg2NGJZZjlnYlhLQkdiX3ViNmRLZ3puVU0xNHNyTUFPbENwZGdRMlpTZ3VQOXRBRHpma3NZMExFeHgxLTk5RW1HeUZjd2NiRklLam1zd1VwVXBKZmRyVzVaMlJxalpNbDVVcE9XWDdyYUVENmxHUG1Wbm42WkJVY01iMEJqU19nWmRvY3VkOXBJRjVUcnZRVG82NzhzdmprVFRaM1g0dmdvNTdDNWMtbDVibmRNOVpHcFVGWHpCd09NYmpnMXRRT0t3a3NXQVA5dUpqYXRoQnV1ZlFSRW0tREptRi1xdXp1ZWZHb0QzNGhneTM1SHBGY1ZLQXplQS1temE1V0psMTlNYlV0cXVxUDNJWFFfd3FLcnU5WDNCcXBvbkFmcmxjeFdnVl9zTm0wMF0tLT48L2c+PC9zdmc+;" vertex="1" parent="1">
            <mxGeometry x="74" y="3370" width="380" height="2507" as="geometry" />
          </mxCell>
        </UserObject>
      </root>
    </mxGraphModel>
  </diagram>
</mxfile>
